{"glyphs":{"0":{"ha":814,"x_min":79,"x_max":784,"o":"m 430 1 q 291 38 358 1 q 173 147 224 75 q 79 503 79 283 q 173 860 79 723 q 292 971 224 934 q 429 1008 359 1008 q 569 972 500 1008 q 688 861 637 935 q 784 503 784 725 q 675 127 781 260 q 562 33 626 66 q 430 1 498 1 m 446 33 q 648 148 561 40 q 751 498 749 271 l 751 503 q 662 843 751 715 q 562 938 618 905 q 445 975 506 971 l 445 872 l 426 872 q 285 780 345 872 q 216 503 216 675 q 279 239 216 342 q 430 136 340 139 l 446 136 l 446 33 m 414 34 l 414 104 q 250 222 315 116 q 183 503 183 332 q 257 798 183 684 q 412 905 320 896 l 412 975 q 298 937 353 970 q 200 842 243 904 q 135 698 159 783 q 111 503 111 613 q 200 166 111 293 q 299 71 243 104 q 414 34 354 38 z "},"1":{"ha":365,"x_min":23,"x_max":275,"o":"m 275 1 l 138 1 l 138 975 l 23 975 l 23 1008 l 275 1008 l 275 1 m 243 33 l 242 975 l 171 975 l 171 33 l 243 33 z "},"2":{"ha":637,"x_min":7,"x_max":622,"o":"m 588 1 l 75 1 l 75 18 q 218 378 84 216 q 335 507 276 448 q 447 635 416 589 q 484 739 484 690 q 442 836 484 801 q 322 874 397 874 q 253 857 286 874 q 133 761 204 832 l 106 735 l 7 829 l 17 840 q 153 960 80 915 q 327 1008 230 1008 q 541 937 459 1008 q 622 743 622 865 q 457 443 622 568 l 445 433 l 383 509 q 248 363 291 414 q 109 33 122 213 l 588 33 l 588 1 m 450 479 q 589 743 589 591 q 519 911 589 850 q 327 975 447 975 q 241 964 280 975 q 52 831 144 936 l 106 781 q 173 843 147 821 q 322 907 248 907 q 463 861 409 907 q 517 739 517 816 q 486 633 517 683 q 406 533 454 584 l 450 479 z "},"3":{"ha":682,"x_min":14,"x_max":640,"o":"m 343 0 q 245 12 289 0 q 24 168 132 41 l 14 180 l 113 273 l 136 252 q 200 192 175 213 q 340 134 267 134 q 459 172 411 134 q 500 263 500 203 q 406 406 500 338 q 304 471 371 430 q 443 549 382 510 q 585 755 583 641 q 521 907 585 842 q 338 975 451 975 q 247 964 287 975 q 53 819 146 934 l 28 840 q 156 958 85 911 q 338 1008 235 1008 q 543 930 465 1008 q 618 758 618 855 q 405 487 618 603 l 500 486 q 595 401 556 456 q 640 266 640 341 q 559 72 640 143 q 343 0 479 0 m 343 33 q 537 96 467 33 q 607 266 607 158 q 569 383 607 330 q 495 456 535 429 l 393 454 q 489 374 446 421 q 532 261 532 326 q 479 146 532 186 q 340 102 423 102 q 182 164 256 102 q 113 228 159 184 l 60 178 q 180 73 118 111 q 343 33 249 33 z "},"4":{"ha":652,"x_min":68,"x_max":568,"o":"m 568 1 l 431 1 l 431 205 l 68 205 l 160 1008 l 193 1008 l 104 238 l 431 238 l 429 1008 l 568 1008 l 568 1 m 536 33 l 536 975 l 462 975 l 463 33 l 536 33 z "},"5":{"ha":656,"x_min":50,"x_max":646,"o":"m 363 0 q 185 43 254 0 q 58 170 116 87 l 50 181 l 149 275 q 248 174 199 210 q 360 134 298 134 q 468 186 427 134 q 509 330 509 238 q 460 459 509 412 q 332 508 410 508 q 218 487 277 508 q 139 441 164 468 l 110 451 l 110 1008 l 562 1008 l 562 975 l 143 975 l 143 599 q 341 643 231 643 q 562 559 480 643 q 646 323 646 471 q 566 85 646 171 q 363 0 488 0 m 363 33 q 542 106 473 33 q 613 323 613 184 q 538 536 613 457 q 341 610 467 610 q 142 562 228 610 l 142 487 q 207 518 170 505 q 332 541 271 541 q 484 481 424 541 q 541 330 541 425 q 494 166 541 227 q 360 102 443 102 q 288 114 320 102 q 146 227 214 141 l 93 177 q 202 71 144 108 q 363 33 264 33 z "},"6":{"ha":689,"x_min":90,"x_max":678,"o":"m 412 -1 l 400 -1 q 158 136 235 -1 q 90 461 90 256 q 98 637 90 544 q 224 950 117 854 q 397 1007 289 1007 q 519 981 461 1007 q 618 901 578 954 l 593 882 q 506 951 557 928 q 398 975 454 975 q 245 924 302 975 q 130 632 147 836 q 123 444 123 542 q 210 572 153 524 q 388 634 286 634 q 590 551 515 634 q 678 319 678 456 q 608 105 678 203 q 412 -1 534 6 m 383 33 l 383 134 l 399 135 q 498 190 456 137 q 541 324 541 245 q 504 447 541 397 q 397 498 468 498 l 376 498 l 376 601 q 209 526 277 597 q 132 325 143 456 q 383 33 170 48 m 416 33 q 581 125 522 43 q 646 319 646 214 q 567 529 646 444 q 410 600 510 591 l 410 530 q 532 466 491 523 q 574 322 572 409 q 524 170 574 235 q 416 103 479 113 l 416 33 z "},"7":{"ha":454,"x_min":-22,"x_max":457,"o":"m 161 33 l 414 977 l 335 977 l 80 33 l 161 33 m 186 1 l 37 1 l 301 977 l -22 977 l -22 1009 l 457 1009 l 186 1 z "},"8":{"ha":710,"x_min":96,"x_max":652,"o":"m 535 469 q 593 587 571 523 q 619 739 619 665 q 551 913 619 844 q 378 972 492 972 q 192 907 257 972 q 129 774 136 852 l 233 774 l 233 758 q 258 682 233 715 q 412 556 297 629 q 535 469 477 516 m 373 -3 q 173 67 244 -3 q 96 267 96 143 q 123 425 96 346 q 190 556 147 495 q 96 758 96 644 q 170 931 96 857 q 380 1008 246 1008 q 491 989 444 1008 q 632 850 594 950 q 652 735 652 797 q 624 576 652 657 q 559 447 600 507 q 652 247 652 361 q 577 76 652 150 q 373 -3 497 -3 m 619 260 q 581 371 614 323 q 497 457 547 419 q 394 528 448 495 q 265 624 321 574 q 201 742 210 673 l 129 742 q 168 632 134 680 q 251 546 201 585 q 353 475 300 508 q 482 379 427 429 q 546 260 537 329 l 619 260 m 373 30 q 555 99 484 30 q 618 227 610 153 l 514 227 l 514 244 q 475 337 514 292 q 334 447 437 382 q 214 534 272 487 q 153 414 176 479 q 128 268 128 340 q 197 92 128 161 q 373 30 258 30 z "},"9":{"ha":677,"x_min":45,"x_max":634,"o":"m 312 1007 l 323 1007 q 566 871 488 1007 q 634 545 634 751 q 626 370 634 463 q 500 57 607 152 q 326 -1 435 -1 q 204 26 262 -1 q 105 105 146 52 l 131 125 q 218 55 167 79 q 326 32 269 32 q 479 83 422 32 q 593 374 576 171 q 601 563 601 465 q 513 435 571 483 q 336 372 438 372 q 134 455 209 372 q 45 687 45 550 q 116 901 45 804 q 312 1007 189 1000 m 341 974 l 341 873 l 325 872 q 226 817 267 869 q 182 682 182 761 q 219 559 183 610 q 327 509 256 509 l 347 509 l 347 406 q 515 481 446 410 q 592 682 581 550 q 341 974 554 958 m 308 974 q 142 882 201 963 q 78 688 78 793 q 157 477 78 563 q 314 406 214 416 l 314 476 q 192 541 233 484 q 149 684 151 597 q 200 837 149 772 q 308 904 244 894 l 308 974 z "}," ":{"ha":345,"x_min":0,"x_max":0,"o":""}," ":{"ha":345,"x_min":0,"x_max":0,"o":""},"!":{"ha":205,"x_min":34,"x_max":172,"o":"m 172 181 l 34 181 l 34 1008 l 172 1008 l 172 181 m 139 214 l 139 975 l 67 975 l 67 214 l 139 214 m 172 -3 l 34 -3 l 34 133 l 172 133 l 172 -3 m 139 30 l 139 100 l 67 100 l 67 30 l 139 30 z "},"\"":{"ha":419,"x_min":34,"x_max":385,"o":"m 139 666 l 52 666 l 34 1008 l 157 1008 l 139 666 m 108 699 l 122 975 l 68 975 l 83 699 l 108 699 m 368 666 l 281 666 l 262 1008 l 385 1008 l 368 666 m 336 699 l 351 975 l 297 975 l 311 699 l 336 699 z "},"#":{"ha":932,"x_min":34,"x_max":899,"o":"m 680 -3 l 542 -3 l 563 194 l 205 194 l 183 -2 l 151 1 l 172 194 l 34 194 l 34 227 l 176 227 l 233 745 l 74 745 l 74 779 l 236 779 l 262 1009 l 399 1009 l 375 779 l 733 779 l 758 1008 l 791 1005 l 766 779 l 899 779 l 899 745 l 762 745 l 705 227 l 858 227 l 858 194 l 701 194 l 680 -3 m 566 227 l 597 517 l 703 511 l 729 745 l 371 745 l 344 490 l 238 495 l 208 227 l 566 227 m 650 30 l 700 478 l 627 482 l 578 30 l 650 30 m 315 524 l 363 977 l 291 977 l 241 528 l 315 524 z "},"$":{"ha":707,"x_min":34,"x_max":673,"o":"m 376 -104 l 342 -104 l 342 1 q 183 45 250 5 q 44 168 111 89 l 34 180 l 133 273 l 165 241 q 245 172 203 203 q 342 135 287 142 l 342 456 q 217 533 262 503 q 123 627 161 572 q 85 762 85 681 q 159 930 85 857 q 342 1008 226 998 l 342 1141 l 376 1141 l 376 1008 q 514 977 455 1006 q 635 883 576 946 l 673 841 l 650 819 l 610 860 q 500 947 556 920 q 376 975 448 973 l 376 475 l 397 462 l 452 548 l 466 541 q 657 265 657 442 q 576 72 657 144 q 376 1 503 5 l 376 -104 m 342 494 l 342 975 q 181 907 240 966 q 119 758 119 844 q 237 560 119 642 q 342 494 288 524 m 376 135 q 478 173 437 139 q 519 270 519 208 q 500 335 519 306 q 448 389 480 363 q 376 437 416 414 l 376 135 m 363 33 q 555 96 486 33 q 625 265 625 159 q 464 505 625 416 l 425 445 q 490 396 461 422 q 535 339 519 370 q 552 270 552 309 q 499 147 552 193 q 359 102 446 102 q 203 162 275 102 q 133 228 179 182 l 79 178 q 200 74 138 111 q 363 33 269 33 z "},"%":{"ha":785,"x_min":34,"x_max":751,"o":"m 152 1 l 115 1 l 633 1008 l 669 1008 l 152 1 m 224 541 q 309 593 272 547 q 357 759 357 646 q 315 918 357 859 q 223 978 276 971 l 223 929 l 208 929 q 144 888 172 929 q 113 765 113 845 q 141 636 113 682 q 209 590 170 591 l 224 590 l 224 541 m 195 541 l 195 562 q 117 621 148 570 q 84 759 84 673 q 120 905 85 852 q 194 958 150 951 l 194 978 q 104 918 142 970 q 63 759 63 857 q 104 601 63 661 q 195 541 142 549 m 206 513 q 81 585 134 513 q 34 759 34 650 q 46 859 34 815 q 80 934 59 903 q 139 990 106 971 q 208 1008 173 1008 q 339 935 287 1008 q 385 762 385 865 q 333 573 385 639 q 206 513 285 513 m 589 31 q 673 82 637 37 q 722 247 722 138 q 680 408 722 348 q 588 467 641 460 l 588 418 l 572 418 q 509 378 537 418 q 478 255 478 334 q 506 126 478 171 q 574 79 534 81 l 589 79 l 589 31 m 559 31 l 559 51 q 481 110 513 60 q 449 248 449 163 q 485 394 450 342 q 559 447 515 440 l 559 467 q 469 407 507 460 q 428 248 428 347 q 469 91 428 150 q 559 31 507 38 m 574 2 q 446 74 498 2 q 398 248 398 140 q 411 349 398 305 q 445 424 424 393 q 504 479 471 460 q 573 498 538 498 q 704 425 651 498 q 751 256 751 356 q 698 63 751 130 q 574 2 650 2 z "},"&":{"ha":693,"x_min":34,"x_max":659,"o":"m 330 33 q 494 73 425 33 q 614 178 555 111 l 560 228 q 492 164 514 184 q 334 102 417 102 q 194 146 250 102 q 141 261 142 186 q 184 374 141 326 q 281 454 227 421 l 178 456 q 104 383 138 429 q 66 266 66 330 q 137 96 66 158 q 330 33 207 33 m 363 -138 l 330 -138 l 330 0 q 114 72 195 0 q 34 266 34 143 q 78 401 34 341 q 174 486 117 456 l 269 487 q 56 758 56 603 q 130 930 56 855 q 330 1008 208 1007 l 330 1154 l 363 1154 l 363 1008 q 517 958 450 1002 q 645 840 588 911 l 621 819 q 427 963 527 934 q 335 975 387 975 q 153 907 222 975 q 88 754 88 842 q 231 548 91 641 q 370 471 292 510 q 268 405 302 430 q 173 263 173 338 q 214 172 173 203 q 334 134 262 134 q 474 192 406 134 q 560 273 494 209 l 659 180 l 649 168 q 429 12 541 41 q 363 1 399 3 l 363 -138 z "},"'":{"ha":191,"x_min":34,"x_max":157,"o":"m 139 666 l 52 666 l 34 1008 l 157 1008 l 139 666 m 108 699 l 122 975 l 68 975 l 83 699 l 108 699 z "},"(":{"ha":258,"x_min":34,"x_max":224,"o":"m 222 -122 l 185 -122 q 75 161 123 -33 q 34 517 35 328 q 76 873 34 703 q 189 1158 125 1069 l 224 1158 q 163 1038 195 1118 q 67 523 67 802 q 162 -3 67 232 q 222 -122 194 -81 z "},")":{"ha":258,"x_min":34,"x_max":224,"o":"m 37 1158 l 73 1158 q 183 875 135 1069 q 224 519 224 708 q 182 162 224 332 q 70 -122 133 -34 l 34 -122 q 96 -3 63 -82 q 191 513 191 234 q 96 1038 191 804 q 37 1158 64 1117 z "},"*":{"ha":382,"x_min":34,"x_max":348,"o":"m 208 665 l 175 665 l 175 808 l 51 736 l 34 765 l 159 836 l 34 908 l 51 937 l 175 865 l 175 1008 l 208 1008 l 208 865 l 332 937 l 348 908 l 224 836 l 348 765 l 332 736 l 208 808 l 208 665 z "},"+":{"ha":579,"x_min":34,"x_max":545,"o":"m 306 249 l 273 249 l 273 488 l 34 488 l 34 521 l 273 521 l 273 760 l 306 760 l 306 521 l 545 521 l 545 488 l 306 488 l 306 249 z "},",":{"ha":273,"x_min":68,"x_max":205,"o":"m 172 30 l 172 100 l 100 100 l 100 30 l 172 30 m 136 -137 l 99 -137 l 169 -3 l 68 -3 l 68 133 l 205 133 l 205 -3 l 136 -137 z "},"-":{"ha":471,"x_min":34,"x_max":437,"o":"m 437 488 l 34 488 l 34 521 l 437 521 l 437 488 z "},"­":{"ha":471,"x_min":34,"x_max":437,"o":"m 437 488 l 34 488 l 34 521 l 437 521 l 437 488 z "},".":{"ha":273,"x_min":68,"x_max":205,"o":"m 205 -3 l 68 -3 l 68 133 l 205 133 l 205 -3 m 172 30 l 172 100 l 100 100 l 100 30 l 172 30 z "},"/":{"ha":305,"x_min":-18,"x_max":287,"o":"m -18 1 l 252 1008 l 287 1008 l 16 1 l -18 1 z "},":":{"ha":273,"x_min":68,"x_max":205,"o":"m 205 -3 l 68 -3 l 68 133 l 205 133 l 205 -3 m 172 30 l 172 100 l 100 100 l 100 30 l 172 30 m 205 432 l 68 432 l 68 568 l 205 568 l 205 432 m 172 465 l 172 536 l 100 536 l 100 465 l 172 465 z "},";":{"ha":273,"x_min":68,"x_max":205,"o":"m 172 30 l 172 100 l 100 100 l 100 30 l 172 30 m 136 -137 l 99 -137 l 169 -3 l 68 -3 l 68 133 l 205 133 l 205 -3 l 136 -137 m 205 432 l 68 432 l 68 568 l 205 568 l 205 432 m 172 465 l 172 536 l 100 536 l 100 465 l 172 465 z "},"<":{"ha":579,"x_min":34,"x_max":545,"o":"m 531 300 l 34 490 l 34 519 l 531 709 l 545 679 l 94 505 l 545 330 l 531 300 z "},"=":{"ha":579,"x_min":34,"x_max":545,"o":"m 545 610 l 34 610 l 34 643 l 545 643 l 545 610 m 545 366 l 34 366 l 34 399 l 545 399 l 545 366 z "},">":{"ha":579,"x_min":34,"x_max":545,"o":"m 47 300 l 34 330 l 485 505 l 34 679 l 47 709 l 545 519 l 545 490 l 47 300 z "},"?":{"ha":683,"x_min":34,"x_max":649,"o":"m 372 184 l 339 184 q 409 538 339 408 q 465 629 437 592 q 500 685 485 656 q 513 742 513 711 q 469 840 513 805 q 355 874 424 874 q 282 857 317 874 q 134 735 224 827 l 34 829 q 180 960 108 915 q 355 1008 258 1008 q 569 937 485 1008 q 649 745 649 869 q 620 625 649 680 q 551 519 590 570 q 511 463 528 489 l 429 504 q 372 184 372 384 m 500 505 l 525 538 q 589 637 561 586 q 616 745 616 688 q 548 913 616 854 q 355 975 475 975 q 269 964 308 975 q 79 831 172 936 l 133 781 q 220 857 185 831 q 355 907 288 907 q 490 865 437 907 q 546 742 546 822 q 531 673 546 703 q 493 612 515 644 q 443 533 468 578 l 500 505 m 424 -3 l 286 -3 l 286 133 l 424 133 l 424 -3 m 391 30 l 391 100 l 319 100 l 319 30 l 391 30 z "},"@":{"ha":743,"x_min":34,"x_max":709,"o":"m 398 -111 l 387 -111 q 127 35 219 -111 q 35 363 41 172 q 34 401 34 373 q 151 852 34 694 q 450 1008 265 1008 q 709 669 709 1008 l 709 0 l 559 0 q 292 75 385 0 q 201 255 202 146 l 201 259 q 228 363 201 314 q 572 517 307 512 l 572 686 l 677 686 q 632 884 675 811 q 452 975 580 975 q 177 833 282 975 q 66 394 66 683 q 155 53 66 193 q 387 -79 237 -79 l 397 -79 l 398 -111 m 572 33 l 572 484 q 326 422 410 481 q 234 255 235 359 q 312 100 235 163 q 559 33 396 33 l 572 33 m 677 33 l 677 653 l 605 653 l 605 33 l 677 33 z "},"A":{"ha":705,"x_min":-32,"x_max":697,"o":"m 499 468 l 331 952 l 164 468 l 499 468 m 84 33 l 223 435 l 153 435 l 14 33 l 84 33 m 107 0 l -32 0 l 315 1008 l 346 1008 l 697 1 l 663 1 l 511 435 l 257 435 l 107 0 z "},"B":{"ha":646,"x_min":84,"x_max":600,"o":"m 218 0 l 84 0 l 84 1008 l 221 1008 q 572 857 490 999 q 600 751 600 808 q 571 648 600 698 q 346 502 509 542 q 550 363 495 465 q 576 259 576 314 l 576 255 q 485 75 575 146 q 218 0 391 0 m 221 33 q 465 99 387 36 q 543 256 543 163 q 521 348 543 307 q 221 484 452 475 l 221 33 m 221 517 q 542 663 464 532 q 567 751 567 706 q 543 841 567 799 q 221 975 471 966 l 221 517 m 189 33 l 189 975 l 117 975 l 117 33 l 189 33 z "},"C":{"ha":613,"x_min":22,"x_max":599,"o":"m 372 1 q 227 39 290 1 q 121 141 164 77 q 47 309 72 214 q 22 505 22 404 q 50 695 22 602 q 232 968 104 886 q 372 1008 295 1008 q 493 982 436 1008 q 590 907 550 957 l 564 887 q 479 952 530 930 q 372 975 429 975 q 152 840 242 975 q 56 521 62 705 l 161 521 l 161 500 q 176 370 161 442 q 227 235 191 298 q 287 165 251 192 q 374 136 326 136 q 499 198 448 136 l 511 213 l 599 112 q 372 1 510 1 m 372 33 q 556 111 484 33 l 511 163 q 378 104 454 104 q 199 218 264 104 q 146 354 163 281 q 128 488 130 427 l 56 488 q 149 161 60 296 q 372 33 233 33 z "},"D":{"ha":685,"x_min":84,"x_max":631,"o":"m 215 1 l 84 1 l 84 1008 l 221 1008 q 515 875 411 998 q 602 716 573 808 q 631 515 631 624 q 527 138 631 275 q 215 1 420 1 m 221 33 q 501 158 410 38 q 599 515 599 286 q 490 853 599 728 q 221 975 395 966 l 221 33 m 189 33 l 189 975 l 117 975 l 117 33 l 189 33 z "},"E":{"ha":522,"x_min":84,"x_max":496,"o":"m 189 33 l 189 488 l 117 488 l 117 33 l 189 33 m 496 0 l 84 0 l 85 1008 l 496 1008 l 496 975 l 118 975 l 117 520 l 447 520 l 447 488 l 221 488 l 221 33 l 496 33 l 496 0 z "},"F":{"ha":504,"x_min":84,"x_max":496,"o":"m 189 521 l 189 975 l 117 975 l 117 521 l 189 521 m 118 0 l 85 0 l 84 1008 l 496 1008 l 496 975 l 221 975 l 221 521 l 447 521 l 447 488 l 117 488 l 118 0 z "},"G":{"ha":713,"x_min":26,"x_max":638,"o":"m 606 33 l 606 488 l 332 488 l 332 418 l 534 418 l 534 33 l 606 33 m 638 0 l 385 1 q 118 132 208 2 q 26 494 26 263 q 125 866 26 717 q 375 1008 220 1008 q 498 982 439 1008 q 594 907 554 957 l 568 887 q 375 975 496 975 q 248 941 303 975 q 83 688 129 867 q 59 494 59 597 q 144 151 59 273 q 385 33 226 35 l 500 33 l 500 385 l 299 385 l 299 521 l 638 522 l 638 0 z "},"H":{"ha":760,"x_min":84,"x_max":635,"o":"m 635 0 l 498 0 l 498 488 l 117 488 l 118 0 l 85 0 l 84 1008 l 221 1008 l 221 521 l 602 521 l 602 1008 l 634 1008 l 635 0 m 603 33 l 602 488 l 531 488 l 531 33 l 603 33 m 189 521 l 189 975 l 117 975 l 117 521 l 189 521 z "},"I":{"ha":355,"x_min":84,"x_max":221,"o":"m 221 1 l 84 1 l 84 1008 l 221 1008 l 221 1 m 189 33 l 189 975 l 117 975 l 117 33 l 189 33 z "},"J":{"ha":407,"x_min":-52,"x_max":290,"o":"m 102 1 q -52 62 12 1 l -28 85 q 102 33 24 33 q 237 138 205 33 q 257 310 257 203 l 257 323 l 152 323 l 152 1008 l 290 1008 l 290 323 q 287 231 290 281 q 102 1 273 1 m 256 355 l 256 975 l 184 975 l 184 355 l 256 355 z "},"K":{"ha":599,"x_min":84,"x_max":578,"o":"m 189 33 l 189 488 l 117 488 l 117 33 l 189 33 m 578 0 l 541 0 l 300 488 l 221 488 l 221 0 l 84 0 l 85 1008 l 118 1008 l 117 520 l 195 520 l 433 1008 l 574 1008 l 328 504 l 578 0 m 300 520 l 522 975 l 453 975 l 231 520 l 300 520 z "},"L":{"ha":397,"x_min":84,"x_max":422,"o":"m 189 33 l 189 488 l 117 488 l 117 33 l 189 33 m 422 0 l 84 0 l 86 1008 l 119 1008 l 118 520 l 222 520 l 222 33 l 422 33 l 422 0 z "},"M":{"ha":1029,"x_min":84,"x_max":893,"o":"m 860 33 l 860 975 l 788 975 l 788 33 l 860 33 m 893 1 l 755 1 l 755 933 l 503 496 l 474 496 l 221 933 l 221 1 l 84 1 l 84 1008 l 218 1008 l 488 536 l 757 1008 l 893 1008 l 893 1 m 189 33 l 189 975 l 117 975 l 117 33 l 189 33 z "},"N":{"ha":848,"x_min":84,"x_max":715,"o":"m 189 33 l 189 975 l 117 975 l 117 33 l 189 33 m 683 33 l 683 975 l 611 975 l 611 33 l 683 33 m 715 1 l 578 1 l 222 915 l 222 1 l 84 1 l 84 1008 l 222 1008 l 578 94 l 578 1008 l 715 1008 l 715 1 z "},"O":{"ha":785,"x_min":24,"x_max":730,"o":"m 378 1 q 246 33 310 1 q 134 127 182 66 q 24 503 28 260 q 120 861 24 725 q 240 972 172 935 q 380 1008 308 1008 q 517 971 450 1008 q 635 860 584 934 q 730 503 730 723 q 635 147 730 283 q 517 38 584 75 q 378 1 451 1 m 362 33 l 362 136 l 378 136 q 530 239 469 139 q 592 503 592 342 q 524 780 592 675 q 382 872 463 872 l 363 872 l 363 975 q 247 938 302 971 q 147 843 191 905 q 57 503 57 715 l 57 498 q 160 148 60 271 q 362 33 248 40 m 395 34 q 510 71 455 38 q 608 166 565 104 q 697 503 697 293 q 673 698 697 613 q 608 842 649 783 q 510 937 565 904 q 396 975 455 970 l 396 905 q 551 798 489 896 q 625 503 625 684 q 558 222 625 332 q 395 104 493 116 l 395 34 z "},"P":{"ha":626,"x_min":84,"x_max":600,"o":"m 221 1 l 84 1 l 84 1008 l 221 1008 q 572 857 491 999 q 600 751 600 808 q 571 648 600 698 q 484 559 542 597 q 221 485 390 495 l 221 1 m 221 517 q 465 586 379 527 q 542 663 516 620 q 568 751 568 706 q 543 841 568 799 q 221 975 471 966 l 221 517 m 189 33 l 189 975 l 117 975 l 117 33 l 189 33 z "},"Q":{"ha":789,"x_min":24,"x_max":730,"o":"m 666 -79 l 525 -79 l 479 19 q 376 1 429 1 q 246 34 309 1 q 55 282 111 103 q 24 500 26 375 q 50 710 24 620 q 240 972 105 899 q 380 1008 308 1008 q 517 971 450 1008 q 635 861 584 935 q 730 503 730 723 q 692 255 730 358 q 589 87 653 149 l 666 -79 m 362 34 l 362 137 l 378 137 q 530 240 469 139 q 592 503 592 342 q 525 780 591 680 q 382 873 463 873 l 363 873 l 363 975 q 246 939 302 971 q 81 700 130 870 q 58 506 58 618 q 160 149 58 275 q 362 34 248 41 m 614 -45 l 549 95 l 557 103 q 661 266 623 161 q 697 503 697 363 q 608 842 697 713 q 510 938 565 905 q 396 975 455 971 l 396 905 q 552 799 488 897 q 624 500 624 690 q 557 222 624 332 q 395 105 493 117 l 395 34 q 495 61 439 37 l 545 -45 l 614 -45 z "},"R":{"ha":629,"x_min":84,"x_max":600,"o":"m 538 1 l 502 1 l 267 488 l 221 485 l 221 1 l 84 1 l 84 1008 l 221 1005 q 572 857 490 999 q 600 751 600 808 q 570 648 600 698 q 483 559 541 597 q 300 493 413 511 l 538 1 m 221 517 q 541 663 464 532 q 567 751 567 706 q 543 841 567 799 q 221 975 470 966 l 221 517 m 189 33 l 189 975 l 117 975 l 117 33 l 189 33 z "},"S":{"ha":663,"x_min":-12,"x_max":628,"o":"m 317 0 q 219 12 263 0 q -1 168 106 41 l -12 180 l 87 273 q 176 191 156 207 q 314 134 241 134 q 433 172 388 134 q 474 270 474 208 q 379 406 474 342 q 288 461 337 433 q 173 533 228 494 q 80 623 117 571 q 40 762 40 680 q 114 929 40 857 q 318 1008 194 1008 q 469 977 407 1008 q 589 883 531 946 l 628 841 l 604 819 l 565 860 q 455 947 511 920 q 318 975 399 975 q 136 906 207 975 q 73 758 73 844 q 196 557 73 640 q 351 462 241 526 l 407 548 l 420 541 q 612 265 612 442 q 532 72 612 144 q 317 0 452 0 m 317 33 q 510 96 440 33 q 579 265 579 159 q 418 505 579 416 l 379 445 q 481 355 450 400 q 507 270 507 316 q 453 147 507 193 q 314 102 400 102 q 157 162 230 102 q 87 228 134 182 l 34 178 q 155 74 92 111 q 317 33 223 33 z "},"T":{"ha":528,"x_min":20,"x_max":521,"o":"m 343 1 l 205 1 l 205 871 l 20 871 l 20 1008 l 521 1008 l 521 975 l 343 975 l 343 1 m 310 33 l 310 975 l 54 975 l 54 905 l 239 905 l 239 33 l 310 33 z "},"U":{"ha":844,"x_min":65,"x_max":738,"o":"m 405 1 q 279 32 341 1 q 115 222 173 87 q 65 502 65 341 l 65 1008 l 203 1008 l 203 502 q 264 237 203 345 q 404 136 321 136 l 420 136 l 420 34 q 618 166 536 42 q 705 502 705 298 l 705 1008 l 738 1008 l 738 502 q 648 146 738 282 q 536 37 600 74 q 405 1 473 1 m 387 34 l 387 104 q 235 221 294 117 q 170 502 170 338 l 170 975 l 98 975 l 98 502 q 198 149 98 281 q 387 34 279 42 z "},"V":{"ha":827,"x_min":2,"x_max":818,"o":"m 479 1 l 335 1 l 2 1009 l 37 1009 l 351 58 l 670 1009 l 818 1009 l 479 1 m 456 33 l 772 977 l 694 977 l 377 33 l 456 33 z "},"W":{"ha":1158,"x_min":11,"x_max":1131,"o":"m 868 33 l 1090 977 l 1010 977 l 787 33 l 868 33 m 748 0 l 565 646 l 411 1 l 265 1 l 11 1009 l 158 1009 l 395 73 l 618 1009 l 652 1009 l 581 711 l 762 70 l 985 1009 l 1131 1009 l 895 1 l 748 0 m 371 33 l 132 977 l 53 977 l 290 33 l 371 33 z "},"X":{"ha":656,"x_min":-21,"x_max":655,"o":"m 600 1 l 562 1 l 349 410 l 139 1 l -21 1 l 269 564 l 38 1008 l 73 1008 l 287 599 l 498 1008 l 655 1008 l 367 445 l 600 1 m 119 33 l 602 975 l 517 975 l 33 33 l 119 33 z "},"Y":{"ha":627,"x_min":-7,"x_max":627,"o":"m 361 488 l 590 1009 l 627 1009 l 374 444 l 374 1 l 237 1 l 237 445 l -7 1009 l 142 1009 l 361 488 m 342 33 l 342 453 l 123 977 l 47 977 l 269 448 l 269 33 l 342 33 z "},"Z":{"ha":525,"x_min":2,"x_max":507,"o":"m 129 33 l 461 977 l 382 977 l 48 33 l 129 33 m 465 1 l 2 1 l 348 977 l 29 977 l 29 1009 l 507 1009 l 163 33 l 465 33 l 465 1 z "},"[":{"ha":241,"x_min":34,"x_max":208,"o":"m 208 -121 l 34 -121 l 34 1157 l 208 1157 l 208 1124 l 66 1124 l 66 -88 l 208 -88 l 208 -121 z "},"\\":{"ha":373,"x_min":34,"x_max":339,"o":"m 339 1 l 305 1 l 34 1008 l 68 1008 l 339 1 z "},"]":{"ha":241,"x_min":34,"x_max":208,"o":"m 34 -121 l 34 -88 l 175 -88 l 175 1124 l 34 1124 l 34 1157 l 208 1157 l 208 -121 l 34 -121 z "},"^":{"ha":398,"x_min":34,"x_max":364,"o":"m 34 629 l 187 1008 l 218 1008 l 364 629 l 334 619 l 202 959 l 64 619 l 34 629 z "},"_":{"ha":579,"x_min":34,"x_max":545,"o":"m 545 -100 l 34 -100 l 34 -68 l 545 -68 l 545 -100 z "},"`":{"ha":239,"x_min":34,"x_max":205,"o":"m 205 1099 l 184 1077 l 34 1219 l 54 1241 l 205 1099 z "},"a":{"ha":700,"x_min":-32,"x_max":697,"o":"m 165 468 l 501 468 l 334 952 l 165 468 m 442 435 l 581 33 l 651 33 l 513 435 l 442 435 m 408 435 l 155 435 l 2 1 l -32 1 l 319 1008 l 350 1008 l 697 0 l 558 0 l 408 435 z "},"b":{"ha":648,"x_min":91,"x_max":607,"o":"m 225 0 l 91 1 l 91 1008 l 229 1008 q 579 857 498 999 q 607 751 607 808 q 578 648 607 698 q 353 502 516 542 q 557 363 503 465 q 583 259 583 314 l 583 255 q 492 75 583 146 q 225 0 398 0 m 229 33 q 472 99 394 36 q 550 256 550 163 q 528 348 550 307 q 229 484 459 475 l 229 33 m 229 517 q 549 663 471 532 q 574 751 574 706 q 478 914 574 852 q 229 975 391 970 l 229 517 m 196 33 l 196 975 l 124 975 l 124 33 l 196 33 z "},"c":{"ha":614,"x_min":29,"x_max":606,"o":"m 378 1 q 239 41 302 1 q 56 314 111 122 q 29 504 29 406 q 54 700 29 605 q 127 867 79 795 q 378 1008 222 1008 q 502 982 442 1008 q 597 907 557 957 l 606 897 l 518 795 l 506 810 q 384 872 455 872 q 234 774 290 872 q 167 488 167 655 l 62 488 q 159 168 69 303 q 378 33 249 33 q 486 56 435 33 q 571 121 536 79 l 597 102 q 500 26 557 52 q 378 1 443 1 m 135 520 q 153 655 136 582 q 205 790 170 728 q 277 871 234 840 q 380 905 322 905 q 518 846 460 905 l 563 897 q 378 975 491 975 q 156 848 239 975 q 62 520 66 713 l 135 520 z "},"d":{"ha":686,"x_min":91,"x_max":638,"o":"m 228 1 l 91 1 l 91 1008 l 228 1008 q 522 875 418 998 q 609 716 580 808 q 638 515 638 624 q 532 138 638 275 q 228 1 427 1 m 228 33 q 508 158 416 38 q 606 515 606 286 q 498 854 606 728 q 228 975 402 966 l 228 33 m 195 33 l 195 975 l 123 975 l 123 33 l 195 33 z "},"e":{"ha":526,"x_min":91,"x_max":503,"o":"m 195 521 l 195 975 l 123 975 l 124 521 l 195 521 m 503 0 l 92 0 l 91 1008 l 503 1008 l 503 975 l 228 975 l 228 521 l 454 521 l 454 488 l 124 488 l 125 33 l 503 33 l 503 0 z "},"f":{"ha":511,"x_min":91,"x_max":503,"o":"m 228 0 l 91 0 l 92 1008 l 503 1008 l 503 975 l 125 975 l 124 520 l 437 520 l 437 488 l 228 488 l 228 0 m 195 33 l 195 488 l 124 488 l 123 33 l 195 33 z "},"g":{"ha":715,"x_min":33,"x_max":645,"o":"m 612 33 l 612 488 l 339 488 l 339 418 l 541 418 l 541 33 l 612 33 m 645 0 l 392 1 q 125 132 214 2 q 33 494 33 263 q 132 866 33 717 q 382 1008 227 1008 q 505 982 446 1008 q 601 907 561 957 l 575 887 q 492 951 541 930 q 382 975 439 975 q 254 941 310 975 q 159 848 198 906 q 89 688 113 778 q 66 500 66 597 q 152 151 66 275 q 392 33 233 35 l 508 33 l 508 385 l 306 385 l 306 521 l 645 522 l 645 0 z "},"h":{"ha":771,"x_min":91,"x_max":643,"o":"m 642 0 l 609 0 l 610 488 l 229 488 l 229 0 l 91 0 l 93 1008 l 125 1008 l 125 520 l 506 520 l 506 1008 l 643 1008 l 642 0 m 610 520 l 610 975 l 538 975 l 538 520 l 610 520 m 196 33 l 196 488 l 125 488 l 124 33 l 196 33 z "},"i":{"ha":357,"x_min":91,"x_max":229,"o":"m 229 1 l 91 1 l 91 1008 l 229 1008 l 229 1 m 196 33 l 196 975 l 124 975 l 124 33 l 196 33 z "},"j":{"ha":410,"x_min":-44,"x_max":297,"o":"m 113 1 q -44 62 18 1 l -22 85 q 109 33 33 33 q 243 138 212 33 q 264 308 264 203 l 264 323 l 159 323 l 159 1008 l 296 1008 q 297 311 296 339 q 294 227 297 275 q 113 1 280 1 m 264 355 l 264 975 l 191 975 l 191 355 l 264 355 z "},"k":{"ha":604,"x_min":91,"x_max":585,"o":"m 195 520 l 195 975 l 123 975 l 124 520 l 195 520 m 125 0 l 92 0 l 91 1008 l 228 1008 l 228 520 l 307 520 l 547 1008 l 585 1008 l 335 504 l 581 1 l 439 1 l 201 488 l 124 488 l 125 0 m 528 33 l 307 488 l 238 488 l 460 33 l 528 33 z "},"l":{"ha":413,"x_min":91,"x_max":455,"o":"m 195 520 l 195 975 l 123 975 l 124 520 l 195 520 m 455 0 l 92 0 l 91 1008 l 228 1008 l 228 487 l 124 488 l 125 33 l 455 33 l 455 0 z "},"m":{"ha":1029,"x_min":91,"x_max":899,"o":"m 867 33 l 867 975 l 795 975 l 795 33 l 867 33 m 899 1 l 762 1 l 762 933 l 509 496 l 481 496 l 228 933 l 228 1 l 91 1 l 91 1008 l 224 1008 l 495 536 l 764 1008 l 899 1008 l 899 1 m 195 33 l 195 975 l 123 975 l 123 33 l 195 33 z "},"n":{"ha":850,"x_min":91,"x_max":722,"o":"m 195 33 l 195 975 l 123 975 l 123 33 l 195 33 m 689 33 l 689 975 l 618 975 l 618 33 l 689 33 m 722 1 l 585 1 l 228 915 l 228 1 l 91 1 l 91 1008 l 228 1008 l 585 94 l 585 1008 l 722 1008 l 722 1 z "},"o":{"ha":783,"x_min":33,"x_max":736,"o":"m 385 1 q 252 33 316 1 q 140 127 189 66 q 33 513 33 262 q 126 861 33 728 q 246 972 178 935 q 386 1008 314 1008 q 523 971 456 1008 q 642 860 590 934 q 736 503 736 723 q 642 147 736 283 q 524 38 591 75 q 385 1 457 1 m 368 33 l 368 136 l 385 136 q 536 239 475 139 q 599 503 599 342 q 530 779 599 672 q 389 872 469 872 l 370 872 l 370 975 q 253 938 309 971 q 153 843 197 905 q 63 498 63 715 q 167 148 66 273 q 368 33 254 40 m 401 34 q 516 71 461 38 q 614 166 572 104 q 703 503 703 293 q 679 698 703 613 q 614 842 655 783 q 516 937 571 904 q 402 975 461 970 l 402 905 q 557 798 495 896 q 631 503 631 682 q 564 222 631 332 q 401 104 499 116 l 401 34 z "},"p":{"ha":628,"x_min":91,"x_max":607,"o":"m 229 1 l 91 1 l 91 1008 l 229 1008 q 579 857 498 999 q 607 751 607 808 q 578 648 607 698 q 490 559 549 597 q 229 485 397 495 l 229 1 m 229 517 q 473 586 386 527 q 549 663 523 620 q 574 751 574 706 q 550 841 574 799 q 229 975 477 966 l 229 517 m 195 33 l 195 975 l 123 975 l 123 33 l 195 33 z "},"q":{"ha":788,"x_min":32,"x_max":736,"o":"m 672 -79 l 531 -79 l 485 19 q 385 0 436 1 q 252 33 316 0 q 140 127 189 66 q 32 509 32 262 q 126 861 32 727 q 246 972 178 935 q 386 1008 314 1008 q 523 971 456 1008 q 641 860 590 934 q 736 503 736 723 q 699 254 736 357 q 595 86 660 149 l 672 -79 m 368 33 l 368 136 l 385 137 q 536 239 475 139 q 598 516 598 342 q 532 772 598 672 q 387 872 466 872 l 370 872 l 370 975 q 253 938 309 971 q 153 843 197 905 q 64 505 64 718 q 167 148 64 275 q 368 33 254 40 m 621 -46 l 555 94 l 564 102 q 667 265 629 160 q 703 503 703 363 q 679 698 703 613 q 614 842 655 783 q 516 937 571 904 q 402 975 461 970 l 402 905 q 559 798 494 896 q 630 500 630 690 q 564 222 630 331 q 401 104 499 116 l 401 34 q 501 61 445 37 l 552 -46 l 621 -46 z "},"r":{"ha":633,"x_min":91,"x_max":607,"o":"m 545 1 l 509 1 l 273 488 q 228 485 252 486 l 229 1 l 91 1 l 91 1008 l 228 1008 q 578 857 497 999 q 607 751 607 808 q 577 648 607 698 q 490 559 548 597 q 307 493 420 511 l 545 1 m 228 517 q 472 586 386 527 q 548 663 523 620 q 574 751 574 706 q 550 841 574 799 q 228 975 477 966 l 228 517 m 195 33 l 195 975 l 123 975 l 123 33 l 195 33 z "},"s":{"ha":665,"x_min":-5,"x_max":635,"o":"m 324 0 q 226 12 270 0 q 5 168 113 41 l -5 180 l 94 273 q 182 191 163 207 q 321 134 248 134 q 439 172 395 134 q 481 270 481 208 q 386 406 481 342 q 295 461 344 433 q 189 526 240 491 q 85 626 123 571 q 47 762 47 681 q 121 929 47 857 q 325 1008 201 1008 q 476 977 414 1008 q 596 883 538 946 l 635 841 l 611 819 l 572 860 q 462 947 517 920 q 325 975 406 975 q 143 906 214 975 q 80 758 80 844 q 203 557 80 640 q 358 462 248 526 l 414 548 l 427 541 q 618 265 618 442 q 539 72 618 144 q 324 0 459 0 m 324 33 q 516 96 447 33 q 586 265 586 159 q 425 505 586 416 l 386 445 q 485 359 454 402 q 513 270 513 318 q 460 147 513 193 q 321 102 407 102 q 165 162 237 102 q 94 228 140 182 l 41 178 q 161 74 99 111 q 324 33 230 33 z "},"t":{"ha":537,"x_min":-3,"x_max":504,"o":"m -3 1008 l 504 1008 l 504 871 l 319 871 l 319 1 l 182 1 l 182 975 l -3 975 l -3 1008 m 471 975 l 214 975 l 214 33 l 286 33 l 286 905 l 471 905 l 471 975 z "},"u":{"ha":846,"x_min":72,"x_max":745,"o":"m 404 1 q 273 37 336 1 q 161 146 210 74 q 72 502 72 282 l 72 1008 l 104 1008 l 104 502 q 191 166 104 298 q 389 34 273 42 l 389 136 l 406 136 q 546 237 489 136 q 607 502 607 345 l 607 1008 l 745 1008 l 745 502 q 640 127 745 264 q 530 32 591 64 q 404 1 469 1 m 422 34 q 612 149 530 42 q 712 502 712 281 l 712 975 l 640 975 l 640 502 q 574 221 640 338 q 422 104 516 117 l 422 34 z "},"v":{"ha":827,"x_min":3,"x_max":819,"o":"m 486 1 l 342 1 l 3 1009 l 151 1009 l 471 58 l 785 1009 l 819 1009 l 486 1 m 444 33 l 127 977 l 49 977 l 366 33 l 444 33 z "},"w":{"ha":1157,"x_min":15,"x_max":1135,"o":"m 872 33 l 1093 977 l 1014 977 l 791 33 l 872 33 m 752 0 l 569 646 l 414 1 l 269 1 l 15 1009 l 161 1009 l 398 73 l 623 1009 l 656 1009 l 585 711 l 766 70 l 988 1009 l 1135 1009 l 898 1 l 752 0 m 374 33 l 136 977 l 57 977 l 294 33 l 374 33 z "},"x":{"ha":662,"x_min":-6,"x_max":670,"o":"m 670 1 l 510 1 l 300 410 l 87 1 l 50 1 l 282 445 l -6 1008 l 152 1008 l 362 599 l 575 1008 l 611 1008 l 380 564 l 670 1 m 616 33 l 132 975 l 47 975 l 530 33 l 616 33 z "},"y":{"ha":627,"x_min":-3,"x_max":631,"o":"m 365 488 l 594 1009 l 631 1009 l 378 444 l 378 1 l 241 1 l 241 445 l -3 1009 l 146 1009 l 365 488 m 346 33 l 346 453 l 127 977 l 51 977 l 273 448 l 273 33 l 346 33 z "},"z":{"ha":526,"x_min":7,"x_max":512,"o":"m 387 977 l 53 33 l 134 33 l 466 977 l 387 977 m 353 977 l 34 977 l 34 1009 l 512 1009 l 168 33 l 470 33 l 470 1 l 7 1 l 353 977 z "},"{":{"ha":387,"x_min":34,"x_max":353,"o":"m 353 -121 q 174 -58 223 -121 q 135 91 135 -9 q 147 213 135 133 q 159 332 159 292 q 135 442 159 399 q 34 502 111 486 l 34 534 q 136 595 111 551 q 159 705 159 636 q 147 824 159 745 q 135 945 135 903 q 174 1095 135 1045 q 353 1157 223 1157 l 353 1124 q 199 1074 239 1124 q 168 945 168 1034 q 180 826 168 906 q 192 705 192 747 q 186 637 192 669 q 93 518 170 553 q 163 458 141 496 q 192 332 192 412 q 180 210 192 290 q 168 91 168 131 q 199 -37 168 3 q 353 -87 239 -87 l 353 -121 z "},"|":{"ha":643,"x_min":305,"x_max":338,"o":"m 305 -121 l 305 1157 l 338 1157 l 338 -121 l 305 -121 z "},"}":{"ha":387,"x_min":34,"x_max":353,"o":"m 34 -121 l 34 -87 q 187 -37 148 -87 q 219 91 219 3 q 207 210 219 131 q 195 332 195 290 q 223 458 195 412 q 294 518 246 496 q 201 637 217 553 q 195 705 195 669 q 207 826 195 747 q 219 945 219 906 q 187 1074 219 1034 q 34 1124 148 1124 l 34 1157 q 213 1095 163 1157 q 252 945 252 1045 q 240 824 252 903 q 228 705 228 745 q 251 595 228 636 q 353 534 276 551 l 353 502 q 252 442 276 486 q 228 332 229 399 q 240 213 228 292 q 252 91 252 133 q 213 -58 252 -9 q 34 -121 163 -121 z "},"~":{"ha":604,"x_min":34,"x_max":570,"o":"m 398 435 q 337 452 364 435 q 285 492 310 469 q 240 526 263 511 q 193 541 218 541 q 60 441 132 541 l 34 461 q 193 574 115 574 q 254 556 227 574 q 306 517 281 539 q 351 483 328 498 q 398 467 374 467 q 439 475 420 467 q 546 568 487 495 l 570 547 q 496 471 536 504 q 398 435 449 435 z "},"¡":{"ha":205,"x_min":34,"x_max":172,"o":"m 172 824 l 172 -3 l 34 -3 l 34 824 l 172 824 m 139 791 l 67 791 l 67 30 l 139 30 l 139 791 m 172 1008 l 172 872 l 34 872 l 34 1008 l 172 1008 m 139 975 l 67 975 l 67 905 l 139 905 l 139 975 z "},"¢":{"ha":644,"x_min":34,"x_max":610,"o":"m 140 520 q 158 655 141 582 q 210 790 174 728 q 281 871 239 840 q 385 905 327 905 q 523 846 465 905 l 568 897 q 383 975 496 975 q 161 848 244 975 q 67 520 71 713 l 140 520 m 165 -87 l 140 -87 l 186 86 q 61 314 103 168 q 34 504 34 406 q 59 700 34 605 q 132 867 83 795 q 383 1008 227 1008 q 433 1004 408 1008 l 467 1131 l 493 1131 l 458 999 q 507 982 482 993 q 610 897 562 956 l 523 795 l 511 810 q 422 869 472 857 l 216 104 q 383 33 290 33 q 491 56 440 33 q 576 121 541 79 l 602 102 q 505 26 562 52 q 383 1 448 1 q 207 68 288 1 l 165 -87 m 197 124 l 397 872 l 389 872 q 239 774 294 872 q 172 488 172 655 l 67 488 q 164 168 74 303 q 197 124 180 144 z "},"£":{"ha":812,"x_min":34,"x_max":778,"o":"m 135 654 q 206 831 143 767 q 399 907 283 907 q 490 892 452 907 q 542 863 517 880 q 636 781 576 839 l 689 831 q 395 975 558 975 q 262 951 320 975 q 164 888 205 928 q 94 788 118 844 q 67 674 70 732 l 135 654 m 778 1 l 73 1 l 73 17 q 87 77 73 46 q 119 140 100 107 q 168 260 163 218 l 61 260 l 61 293 l 168 293 q 153 437 166 348 q 134 620 138 522 l 34 650 q 141 912 34 807 q 395 1008 240 1008 q 724 840 579 1008 l 735 829 l 635 735 q 545 819 570 799 q 480 860 514 846 q 399 873 446 873 q 230 808 297 873 q 167 632 167 744 q 185 441 167 557 q 201 293 199 350 l 610 293 l 610 260 l 200 260 q 147 123 196 210 q 108 33 118 75 l 778 33 l 778 1 z "},"¤":{"ha":452,"x_min":34,"x_max":418,"o":"m 395 312 l 321 387 q 226 353 280 353 q 132 387 172 353 l 57 312 l 34 335 l 109 410 q 75 505 75 450 q 109 599 75 558 l 34 673 l 57 696 l 132 622 q 226 655 172 655 q 321 622 279 655 l 395 696 l 418 673 l 344 599 q 377 505 377 557 q 344 410 377 450 l 418 335 l 395 312 m 226 386 q 310 420 275 386 q 345 505 345 455 q 310 588 345 553 q 226 623 275 623 q 142 588 177 623 q 108 505 108 553 q 142 420 108 455 q 226 386 177 386 z "},"¥":{"ha":702,"x_min":34,"x_max":668,"o":"m 383 33 l 383 453 l 164 977 l 88 977 l 311 448 l 311 33 l 383 33 m 416 1 l 278 1 l 278 215 l 87 215 l 87 248 l 278 248 l 278 405 l 87 405 l 87 437 l 278 437 l 278 445 l 34 1009 l 184 1009 l 402 488 l 631 1009 l 668 1009 l 416 444 l 416 437 l 604 437 l 604 405 l 416 405 l 416 248 l 604 248 l 604 215 l 416 215 l 416 1 z "},"§":{"ha":642,"x_min":34,"x_max":608,"o":"m 384 163 q 520 328 519 239 q 513 368 520 347 q 410 493 490 431 q 258 599 364 529 q 122 435 123 522 q 130 393 122 415 q 231 269 152 330 q 384 163 278 233 m 334 -246 q 244 -236 284 -246 q 45 -94 142 -209 l 34 -82 l 126 5 q 206 -71 189 -57 q 331 -121 265 -121 q 436 -87 393 -121 q 474 -1 474 -56 q 451 60 474 31 q 311 174 416 104 q 210 245 258 208 q 127 329 161 283 q 90 434 90 383 q 137 547 90 498 q 230 620 175 587 q 174 671 197 644 l 97 609 l 87 623 q 41 767 41 686 q 113 943 41 877 q 308 1008 186 1008 q 397 998 358 1008 q 597 856 500 971 l 608 844 l 516 758 q 436 833 453 819 q 311 884 377 884 q 206 849 249 884 q 168 763 168 819 q 191 701 168 730 q 332 589 227 658 q 433 517 384 555 q 514 433 481 479 q 553 328 553 378 q 505 215 552 264 q 412 142 467 174 q 468 91 445 117 l 545 153 l 555 139 q 602 -5 602 76 q 529 -180 602 -115 q 334 -246 456 -246 m 334 -214 q 507 -157 444 -214 q 569 -5 569 -100 q 538 106 569 58 l 488 64 q 507 -1 507 35 q 458 -113 507 -72 q 331 -155 409 -155 q 189 -99 254 -155 q 125 -41 167 -81 l 79 -84 q 186 -178 132 -144 q 334 -214 244 -214 m 104 656 l 155 697 q 136 763 136 728 q 184 875 136 833 q 311 916 233 916 q 454 861 389 916 q 516 803 476 842 l 563 846 q 456 940 510 906 q 308 975 398 975 q 136 919 198 975 q 73 767 73 862 q 104 656 73 705 z "},"¨":{"ha":355,"x_min":34,"x_max":321,"o":"m 34 1077 l 34 1187 l 144 1187 l 144 1077 l 34 1077 m 59 1102 l 116 1102 l 116 1162 l 59 1162 l 59 1102 m 210 1077 l 210 1187 l 321 1187 l 321 1077 l 210 1077 m 235 1102 l 292 1102 l 292 1162 l 235 1162 l 235 1102 z "},"©":{"ha":1048,"x_min":8,"x_max":1008,"o":"m 508 6 q 154 153 300 6 q 8 506 8 299 q 154 859 8 713 q 508 1006 300 1006 q 861 859 715 1006 q 1008 506 1008 713 q 861 153 1008 299 q 508 6 715 6 m 509 114 q 402 142 449 114 q 322 218 355 170 q 267 344 286 273 q 249 490 249 414 q 269 631 249 563 q 405 835 310 774 q 509 865 452 865 q 600 846 557 865 q 672 790 642 827 l 653 775 q 590 824 627 807 q 509 841 552 841 q 346 740 413 841 q 274 502 279 640 l 352 502 l 352 486 q 363 390 352 444 q 401 288 375 336 q 446 237 419 256 q 511 215 475 215 q 604 261 566 215 l 614 272 l 679 197 q 509 114 612 114 m 509 138 q 647 196 593 138 l 614 235 q 514 191 571 191 q 380 276 429 191 q 341 377 353 323 q 328 477 329 431 l 274 477 q 343 233 277 334 q 509 138 406 138 m 508 39 q 840 176 703 39 q 977 506 977 313 q 840 837 977 700 q 508 973 703 973 q 176 837 313 973 q 38 506 38 700 q 176 176 38 313 q 508 39 313 39 z "},"«":{"ha":351,"x_min":34,"x_max":317,"o":"m 155 257 l 34 505 l 155 751 l 184 737 l 71 505 l 184 271 l 155 257 m 288 257 l 166 505 l 288 751 l 317 737 l 203 505 l 317 271 l 288 257 z "},"¬":{"ha":579,"x_min":34,"x_max":545,"o":"m 545 249 l 513 249 l 513 488 l 34 488 l 34 521 l 545 521 l 545 249 z "},"®":{"ha":1067,"x_min":34,"x_max":1034,"o":"m 724 123 l 696 123 l 522 487 l 488 485 l 488 123 l 385 123 l 385 875 l 488 873 q 749 762 688 868 q 770 683 770 725 q 748 606 770 644 q 683 540 726 568 q 547 490 631 505 l 724 123 m 488 509 q 726 617 669 519 q 745 683 745 650 q 728 750 745 719 q 488 850 673 844 l 488 509 m 463 148 l 463 850 l 410 850 l 410 148 l 463 148 m 534 6 q 180 153 326 6 q 34 506 34 299 q 180 859 34 713 q 534 1006 326 1006 q 887 859 741 1006 q 1034 506 1034 713 q 887 153 1034 299 q 534 6 741 6 m 534 39 q 866 176 728 39 q 1003 506 1003 313 q 866 837 1003 700 q 534 973 728 973 q 201 837 339 973 q 64 506 64 700 q 201 176 64 313 q 534 39 339 39 z "},"¯":{"ha":471,"x_min":34,"x_max":437,"o":"m 437 777 l 34 777 l 34 810 l 437 810 l 437 777 z "},"°":{"ha":366,"x_min":34,"x_max":332,"o":"m 183 710 q 78 753 121 710 q 34 859 34 797 q 78 965 34 921 q 183 1008 121 1008 q 289 965 245 1008 q 332 859 332 921 q 289 753 332 797 q 183 710 245 710 m 183 738 q 269 773 233 738 q 304 859 304 809 q 269 945 304 909 q 183 980 233 980 q 97 945 133 980 q 62 859 62 909 q 97 773 62 809 q 183 738 133 738 z "},"±":{"ha":579,"x_min":34,"x_max":545,"o":"m 306 249 l 273 249 l 273 488 l 34 488 l 34 521 l 273 521 l 273 760 l 306 760 l 306 521 l 545 521 l 545 488 l 306 488 l 306 249 m 34 0 l 34 33 l 545 33 l 545 0 l 34 0 z "},"´":{"ha":239,"x_min":34,"x_max":205,"o":"m 205 1219 l 54 1077 l 34 1099 l 184 1241 l 205 1219 z "},"¶":{"ha":667,"x_min":34,"x_max":633,"o":"m 532 -33 l 532 975 l 460 975 l 460 -33 l 532 -33 m 565 -65 l 427 -65 l 427 975 l 284 975 l 283 -65 l 251 -65 l 251 592 q 143 619 193 592 q 81 670 106 639 q 34 800 34 726 q 118 967 34 907 q 251 1008 176 1008 l 633 1008 l 633 975 l 565 975 l 565 -65 z "},"·":{"ha":345,"x_min":68,"x_max":184,"o":"m 184 446 l 68 446 l 68 562 l 184 562 l 184 446 m 157 474 l 157 534 l 96 534 l 96 474 l 157 474 z "},"∙":{"ha":345,"x_min":68,"x_max":184,"o":"m 184 446 l 68 446 l 68 562 l 184 562 l 184 446 m 157 474 l 157 534 l 96 534 l 96 474 l 157 474 z "},"¸":{"ha":174,"x_min":34,"x_max":140,"o":"m 34 -195 l 34 -165 q 111 -100 111 -163 q 107 -79 111 -87 q 66 -54 94 -54 l 35 -54 l 70 33 l 98 22 l 79 -26 q 115 -42 99 -29 q 140 -100 140 -62 q 34 -195 140 -188 z "},"»":{"ha":351,"x_min":34,"x_max":317,"o":"m 63 257 l 34 271 l 148 505 l 34 737 l 63 751 l 184 505 l 63 257 m 195 257 l 166 271 l 280 505 l 166 737 l 195 751 l 317 505 l 195 257 z "},"¼":{"ha":882,"x_min":68,"x_max":814,"o":"m 68 1012 l 227 1012 l 227 387 l 134 387 l 134 982 l 68 982 l 68 1012 m 197 982 l 163 982 l 163 416 l 197 416 l 197 982 m 127 1 l 91 1 l 608 1008 l 644 1008 l 127 1 m 785 30 l 784 595 l 749 595 l 749 30 l 785 30 m 814 0 l 720 0 l 720 125 l 498 125 l 555 620 l 585 616 l 531 155 l 720 155 l 719 625 l 814 625 l 814 0 z "},"½":{"ha":953,"x_min":68,"x_max":885,"o":"m 68 1012 l 227 1012 l 227 387 l 134 387 l 134 982 l 68 982 l 68 1012 m 197 982 l 163 982 l 163 416 l 197 416 l 197 982 m 127 1 l 91 1 l 608 1008 l 644 1008 l 127 1 m 860 0 l 541 0 q 597 192 545 116 q 701 317 646 264 q 765 388 739 354 q 791 456 791 421 q 767 511 791 493 q 697 533 739 533 q 637 513 665 533 q 565 447 617 497 l 498 510 l 507 521 q 591 596 546 567 q 700 625 635 625 q 834 579 781 625 q 885 458 885 534 q 783 271 885 349 l 771 262 l 734 309 l 722 296 q 626 184 671 248 q 572 29 581 120 l 860 29 l 860 0 m 776 303 q 855 458 855 369 q 814 557 855 522 q 700 595 770 595 q 606 570 644 595 q 539 512 570 547 l 565 488 q 633 545 606 528 q 697 563 665 563 q 785 534 750 563 q 821 456 821 505 q 802 391 821 421 q 754 330 783 360 l 776 303 z "},"¾":{"ha":1116,"x_min":68,"x_max":1048,"o":"m 275 387 q 163 414 208 387 q 77 491 119 441 l 68 501 l 136 565 q 191 513 178 524 q 273 478 231 478 q 343 500 313 478 q 366 549 366 517 q 333 617 366 589 q 242 679 300 645 l 265 690 q 367 755 318 716 q 416 859 416 795 q 380 942 416 905 q 271 981 342 981 q 218 975 239 981 q 102 888 159 958 l 79 907 q 159 980 115 951 q 270 1011 207 1011 q 400 964 353 1011 q 447 854 447 918 q 332 694 446 762 l 371 690 q 433 639 399 686 q 461 553 461 600 q 411 432 461 477 q 275 387 360 387 m 275 416 q 391 453 349 416 q 432 553 432 490 q 367 665 432 620 l 321 665 q 395 551 395 614 q 361 477 395 503 q 273 449 322 449 q 135 524 205 449 l 109 500 q 178 439 143 462 q 275 416 216 416 m 362 1 l 326 1 l 843 1008 l 879 1008 l 362 1 m 1019 30 l 1019 595 l 983 595 l 984 30 l 1019 30 m 1048 0 l 955 0 l 955 125 l 732 125 l 789 620 l 819 616 l 766 155 l 955 155 l 954 625 l 1048 625 l 1048 0 z "},"¿":{"ha":683,"x_min":34,"x_max":649,"o":"m 311 822 l 344 822 q 275 467 344 597 q 218 376 245 414 q 183 321 198 349 q 170 264 170 295 q 214 166 170 201 q 328 132 259 132 q 401 149 366 132 q 549 271 458 179 l 649 177 q 503 45 575 91 q 328 -3 425 -3 q 114 69 198 -3 q 34 260 34 136 q 63 381 34 326 q 132 487 93 436 q 172 543 155 517 l 254 502 q 311 822 311 622 m 182 500 l 158 468 q 94 369 122 420 q 66 260 66 318 q 135 93 66 152 q 328 31 208 31 q 414 41 375 31 q 604 175 511 70 l 550 225 q 463 149 498 174 q 328 99 395 99 q 193 140 246 99 q 137 264 137 184 q 152 332 137 302 q 191 393 168 362 q 240 473 215 427 l 182 500 m 259 1008 l 397 1008 l 397 872 l 259 872 l 259 1008 m 292 976 l 292 905 l 363 905 l 363 976 l 292 976 z "},"À":{"ha":693,"x_min":-32,"x_max":697,"o":"m 499 468 l 331 952 l 164 468 l 499 468 m 84 33 l 223 435 l 153 435 l 14 33 l 84 33 m 107 0 l -32 0 l 315 1008 l 346 1008 l 697 1 l 663 1 l 511 435 l 257 435 l 107 0 m 418 1099 l 397 1077 l 247 1219 l 267 1241 l 418 1099 z "},"Á":{"ha":693,"x_min":-32,"x_max":697,"o":"m 499 468 l 331 952 l 164 468 l 499 468 m 84 33 l 223 435 l 153 435 l 14 33 l 84 33 m 107 0 l -32 0 l 315 1008 l 346 1008 l 697 1 l 663 1 l 511 435 l 257 435 l 107 0 m 418 1219 l 267 1077 l 247 1099 l 397 1241 l 418 1219 z "},"Â":{"ha":697,"x_min":-32,"x_max":697,"o":"m 499 468 l 331 952 l 164 468 l 499 468 m 84 33 l 223 435 l 153 435 l 14 33 l 84 33 m 107 0 l -32 0 l 315 1008 l 346 1008 l 697 1 l 663 1 l 511 435 l 257 435 l 107 0 m 474 1077 l 332 1210 l 191 1077 l 171 1099 l 332 1251 l 494 1099 l 474 1077 z "},"Ã":{"ha":694,"x_min":-31,"x_max":699,"o":"m 500 468 l 332 952 l 165 468 l 500 468 m 85 33 l 224 435 l 154 435 l 15 33 l 85 33 m 109 0 l -31 0 l 317 1008 l 347 1008 l 699 1 l 665 1 l 512 435 l 258 435 l 109 0 m 439 1077 q 387 1088 416 1077 q 330 1114 359 1100 q 230 1150 257 1150 q 208 1139 216 1150 q 197 1088 197 1126 l 168 1088 q 230 1179 168 1179 q 282 1168 254 1179 q 340 1142 311 1156 q 439 1107 412 1107 q 471 1168 471 1107 l 500 1168 q 485 1101 500 1122 q 439 1077 468 1077 z "},"Ä":{"ha":699,"x_min":-32,"x_max":697,"o":"m 499 468 l 331 952 l 164 468 l 499 468 m 84 33 l 223 435 l 153 435 l 14 33 l 84 33 m 107 0 l -32 0 l 315 1008 l 346 1008 l 697 1 l 663 1 l 511 435 l 257 435 l 107 0 m 189 1077 l 189 1187 l 300 1187 l 300 1077 l 189 1077 m 215 1102 l 271 1102 l 271 1162 l 215 1162 l 215 1102 m 366 1077 l 366 1187 l 476 1187 l 476 1077 l 366 1077 m 391 1102 l 448 1102 l 448 1162 l 391 1162 l 391 1102 z "},"Å":{"ha":699,"x_min":-32,"x_max":697,"o":"m 499 468 l 331 952 l 164 468 l 499 468 m 84 33 l 223 435 l 153 435 l 14 33 l 84 33 m 107 0 l -32 0 l 315 1008 l 346 1008 l 697 1 l 663 1 l 511 435 l 257 435 l 107 0 m 330 1077 q 261 1106 290 1077 q 232 1175 232 1135 q 261 1244 232 1215 q 330 1273 290 1273 q 399 1244 370 1273 q 428 1175 428 1215 q 399 1106 428 1135 q 330 1077 370 1077 m 330 1107 q 378 1127 358 1107 q 398 1175 398 1147 q 378 1223 398 1203 q 330 1244 358 1244 q 282 1223 302 1244 q 262 1175 262 1203 q 282 1127 262 1147 q 330 1107 302 1107 z "},"Æ":{"ha":974,"x_min":-32,"x_max":948,"o":"m 536 468 l 537 975 l 339 975 l 164 468 l 536 468 m 640 33 l 640 488 l 569 488 l 568 33 l 640 33 m 84 33 l 223 435 l 153 435 l 14 33 l 84 33 m 948 0 l 536 0 l 536 435 l 257 435 l 107 0 l -32 0 l 315 1008 l 948 1008 l 948 975 l 570 975 l 569 520 l 899 520 l 899 488 l 673 488 l 673 33 l 948 33 l 948 0 z "},"Ç":{"ha":611,"x_min":22,"x_max":599,"o":"m 372 33 q 556 111 484 33 l 511 163 q 378 104 454 104 q 199 218 264 104 q 146 354 163 281 q 128 488 130 427 l 56 488 q 149 161 60 296 q 372 33 233 33 m 332 -195 l 332 -165 q 410 -100 410 -163 q 364 -54 410 -54 l 333 -54 l 356 1 q 227 39 284 4 q 47 309 98 117 q 22 505 22 404 q 50 695 22 602 q 232 968 104 886 q 372 1008 295 1008 q 493 982 436 1008 q 590 907 550 957 l 564 887 q 479 952 530 930 q 372 975 429 975 q 152 840 242 975 q 56 521 62 705 l 161 521 q 227 235 161 352 q 287 165 251 192 q 374 136 326 136 q 499 198 448 136 l 511 213 l 599 112 q 388 1 515 7 l 377 -26 q 413 -42 397 -29 q 439 -100 439 -63 q 332 -195 439 -188 z "},"È":{"ha":522,"x_min":84,"x_max":496,"o":"m 189 33 l 189 488 l 117 488 l 117 33 l 189 33 m 496 0 l 84 0 l 85 1008 l 496 1008 l 496 975 l 118 975 l 117 520 l 447 520 l 447 488 l 221 488 l 221 33 l 496 33 l 496 0 m 376 1099 l 355 1077 l 205 1219 l 225 1241 l 376 1099 z "},"É":{"ha":522,"x_min":84,"x_max":496,"o":"m 189 33 l 189 488 l 117 488 l 117 33 l 189 33 m 496 0 l 84 0 l 85 1008 l 496 1008 l 496 975 l 118 975 l 117 520 l 447 520 l 447 488 l 221 488 l 221 33 l 496 33 l 496 0 m 376 1219 l 225 1077 l 205 1099 l 355 1241 l 376 1219 z "},"Ê":{"ha":519,"x_min":84,"x_max":496,"o":"m 189 33 l 189 488 l 117 488 l 117 33 l 189 33 m 496 0 l 84 0 l 85 1008 l 496 1008 l 496 975 l 118 975 l 117 520 l 447 520 l 447 488 l 221 488 l 221 33 l 496 33 l 496 0 m 431 1077 l 290 1210 l 149 1077 l 129 1099 l 290 1251 l 452 1099 l 431 1077 z "},"Ë":{"ha":522,"x_min":84,"x_max":496,"o":"m 189 33 l 189 488 l 117 488 l 117 33 l 189 33 m 496 0 l 84 0 l 85 1008 l 496 1008 l 496 975 l 118 975 l 117 520 l 447 520 l 447 488 l 221 488 l 221 33 l 496 33 l 496 0 m 146 1077 l 146 1187 l 257 1187 l 257 1077 l 146 1077 m 172 1102 l 229 1102 l 229 1162 l 172 1162 l 172 1102 m 323 1077 l 323 1187 l 433 1187 l 433 1077 l 323 1077 m 349 1102 l 406 1102 l 406 1162 l 349 1162 l 349 1102 z "},"Ì":{"ha":368,"x_min":84,"x_max":255,"o":"m 238 1 l 101 1 l 101 1008 l 238 1008 l 238 1 m 205 33 l 205 975 l 134 975 l 134 33 l 205 33 m 255 1099 l 235 1077 l 84 1219 l 104 1241 l 255 1099 z "},"Í":{"ha":380,"x_min":84,"x_max":267,"o":"m 221 1 l 84 1 l 84 1008 l 221 1008 l 221 1 m 189 33 l 189 975 l 117 975 l 117 33 l 189 33 m 267 1219 l 116 1077 l 96 1099 l 246 1241 l 267 1219 z "},"Î":{"ha":309,"x_min":-18,"x_max":305,"o":"m 212 1 l 75 1 l 75 1008 l 212 1008 l 212 1 m 180 33 l 180 975 l 108 975 l 108 33 l 180 33 m 285 1077 l 144 1210 l 2 1077 l -18 1099 l 144 1251 l 305 1099 l 285 1077 z "},"Ï":{"ha":273,"x_min":-18,"x_max":269,"o":"m 194 1 l 57 1 l 57 1008 l 194 1008 l 194 1 m 161 33 l 161 975 l 90 975 l 90 33 l 161 33 m -18 1077 l -18 1187 l 93 1187 l 93 1077 l -18 1077 m 7 1102 l 64 1102 l 64 1162 l 7 1162 l 7 1102 m 159 1077 l 159 1187 l 269 1187 l 269 1077 l 159 1077 m 184 1102 l 241 1102 l 241 1162 l 184 1162 l 184 1102 z "},"Ð":{"ha":701,"x_min":1,"x_max":648,"o":"m 237 33 q 517 158 426 38 q 615 515 615 286 q 507 853 615 728 q 237 975 412 966 l 237 521 l 411 521 l 411 488 l 237 488 l 237 33 m 205 33 l 205 975 l 133 975 l 133 33 l 205 33 m 231 1 l 100 1 l 100 488 l 1 488 l 1 521 l 100 521 l 100 1008 l 237 1008 q 532 875 427 998 q 648 515 648 740 q 543 138 648 275 q 231 1 436 1 z "},"Ñ":{"ha":829,"x_min":84,"x_max":715,"o":"m 189 33 l 189 975 l 117 975 l 117 33 l 189 33 m 683 33 l 683 975 l 611 975 l 611 33 l 683 33 m 715 1 l 578 1 l 222 915 l 222 1 l 84 1 l 84 1008 l 222 1008 l 578 94 l 578 1008 l 715 1008 l 715 1 m 506 1077 q 454 1088 482 1077 q 396 1114 425 1100 q 296 1150 323 1150 q 273 1139 281 1150 q 263 1088 263 1126 l 233 1088 q 296 1179 233 1179 q 348 1168 319 1179 q 406 1142 377 1156 q 506 1107 479 1107 q 536 1168 536 1107 l 566 1168 q 551 1101 566 1122 q 506 1077 534 1077 z "},"Ò":{"ha":781,"x_min":22,"x_max":728,"o":"m 376 1 q 244 33 308 1 q 132 127 180 66 q 22 503 26 260 q 118 861 22 725 q 238 972 170 935 q 378 1008 306 1008 q 515 971 448 1008 q 633 860 582 934 q 728 503 728 723 q 633 147 728 283 q 515 38 582 75 q 376 1 449 1 m 360 33 l 360 136 l 376 136 q 528 239 467 139 q 590 503 590 342 q 522 780 590 675 q 380 872 461 872 l 361 872 l 361 975 q 244 938 300 971 q 145 843 189 905 q 55 503 55 715 l 55 498 q 158 148 58 271 q 360 33 245 40 m 393 34 q 508 71 453 38 q 606 166 563 104 q 695 503 695 293 q 671 698 695 613 q 606 842 647 783 q 508 937 563 904 q 394 975 453 970 l 394 905 q 549 798 487 896 q 623 503 623 684 q 556 222 623 332 q 393 104 491 116 l 393 34 m 433 1099 l 413 1077 l 262 1219 l 283 1241 l 433 1099 z "},"Ó":{"ha":781,"x_min":22,"x_max":728,"o":"m 376 1 q 244 33 308 1 q 132 127 180 66 q 22 503 26 260 q 118 861 22 725 q 238 972 170 935 q 378 1008 306 1008 q 515 971 448 1008 q 633 860 582 934 q 728 503 728 723 q 633 147 728 283 q 515 38 582 75 q 376 1 449 1 m 360 33 l 360 136 l 376 136 q 528 239 467 139 q 590 503 590 342 q 522 780 590 675 q 380 872 461 872 l 361 872 l 361 975 q 244 938 300 971 q 145 843 189 905 q 55 503 55 715 l 55 498 q 158 148 58 271 q 360 33 245 40 m 393 34 q 508 71 453 38 q 606 166 563 104 q 695 503 695 293 q 671 698 695 613 q 606 842 647 783 q 508 937 563 904 q 394 975 453 970 l 394 905 q 549 798 487 896 q 623 503 623 684 q 556 222 623 332 q 393 104 491 116 l 393 34 m 490 1219 l 340 1077 l 319 1099 l 470 1241 l 490 1219 z "},"Ô":{"ha":781,"x_min":22,"x_max":728,"o":"m 376 1 q 244 33 308 1 q 132 127 180 66 q 22 503 26 260 q 118 861 22 725 q 238 972 170 935 q 378 1008 306 1008 q 515 971 448 1008 q 633 860 582 934 q 728 503 728 723 q 633 147 728 283 q 515 38 582 75 q 376 1 449 1 m 360 33 l 360 136 l 376 136 q 528 239 467 139 q 590 503 590 342 q 522 780 590 675 q 380 872 461 872 l 361 872 l 361 975 q 244 938 300 971 q 145 843 189 905 q 55 503 55 715 l 55 498 q 158 148 58 271 q 360 33 245 40 m 393 34 q 508 71 453 38 q 606 166 563 104 q 695 503 695 293 q 671 698 695 613 q 606 842 647 783 q 508 937 563 904 q 394 975 453 970 l 394 905 q 549 798 487 896 q 623 503 623 684 q 556 222 623 332 q 393 104 491 116 l 393 34 m 517 1077 l 376 1210 l 235 1077 l 215 1099 l 376 1251 l 538 1099 l 517 1077 z "},"Õ":{"ha":781,"x_min":22,"x_max":728,"o":"m 376 1 q 244 33 308 1 q 132 127 180 66 q 22 503 26 260 q 118 861 22 725 q 238 972 170 935 q 378 1008 306 1008 q 515 971 448 1008 q 633 860 582 934 q 728 503 728 723 q 633 147 728 283 q 515 38 582 75 q 376 1 449 1 m 360 33 l 360 136 l 376 136 q 528 239 467 139 q 590 503 590 342 q 522 780 590 675 q 380 872 461 872 l 361 872 l 361 975 q 244 938 300 971 q 145 843 189 905 q 55 503 55 715 l 55 498 q 158 148 58 271 q 360 33 245 40 m 393 34 q 508 71 453 38 q 606 166 563 104 q 695 503 695 293 q 671 698 695 613 q 606 842 647 783 q 508 937 563 904 q 394 975 453 970 l 394 905 q 549 798 487 896 q 623 503 623 684 q 556 222 623 332 q 393 104 491 116 l 393 34 m 482 1077 q 430 1088 458 1077 q 372 1114 401 1100 q 272 1150 300 1150 q 250 1139 258 1150 q 239 1088 239 1126 l 210 1088 q 272 1179 210 1179 q 325 1168 296 1179 q 383 1142 354 1156 q 482 1107 455 1107 q 513 1168 513 1107 l 543 1168 q 528 1101 543 1122 q 482 1077 510 1077 z "},"Ö":{"ha":781,"x_min":22,"x_max":728,"o":"m 376 1 q 244 33 308 1 q 132 127 180 66 q 22 503 26 260 q 118 861 22 725 q 238 972 170 935 q 378 1008 306 1008 q 515 971 448 1008 q 633 860 582 934 q 728 503 728 723 q 633 147 728 283 q 515 38 582 75 q 376 1 449 1 m 360 33 l 360 136 l 376 136 q 528 239 467 139 q 590 503 590 342 q 522 780 590 675 q 380 872 461 872 l 361 872 l 361 975 q 244 938 300 971 q 145 843 189 905 q 55 503 55 715 l 55 498 q 158 148 58 271 q 360 33 245 40 m 393 34 q 508 71 453 38 q 606 166 563 104 q 695 503 695 293 q 671 698 695 613 q 606 842 647 783 q 508 937 563 904 q 394 975 453 970 l 394 905 q 549 798 487 896 q 623 503 623 684 q 556 222 623 332 q 393 104 491 116 l 393 34 m 233 1077 l 233 1187 l 344 1187 l 344 1077 l 233 1077 m 258 1102 l 315 1102 l 315 1162 l 258 1162 l 258 1102 m 410 1077 l 410 1187 l 520 1187 l 520 1077 l 410 1077 m 435 1102 l 492 1102 l 492 1162 l 435 1162 l 435 1102 z "},"×":{"ha":453,"x_min":34,"x_max":419,"o":"m 395 312 l 227 481 l 57 312 l 34 335 l 203 505 l 34 673 l 57 696 l 227 528 l 395 696 l 419 673 l 250 505 l 419 335 l 395 312 z "},"Ø":{"ha":781,"x_min":22,"x_max":728,"o":"m 393 34 q 508 71 453 38 q 606 166 563 104 q 695 503 695 293 q 671 698 695 613 q 606 842 647 783 q 508 937 563 904 q 394 975 453 970 l 394 905 q 549 798 487 896 q 623 503 623 684 q 556 222 623 332 q 393 104 491 116 l 393 34 m 237 75 l 446 855 q 380 872 415 872 l 361 872 l 361 975 q 244 938 300 971 q 145 843 189 905 q 55 503 55 715 q 158 148 55 275 q 237 75 195 102 m 218 -87 l 193 -87 l 228 42 q 132 127 174 74 q 22 503 26 260 q 118 861 22 725 q 238 972 170 935 q 378 1008 306 1008 q 481 987 431 1008 l 520 1131 l 546 1131 l 504 977 q 633 860 578 939 q 728 503 728 723 q 633 147 728 283 q 515 38 582 75 q 376 1 449 1 q 250 31 311 1 l 218 -87 m 360 33 l 360 136 l 376 136 q 528 239 467 139 q 590 503 590 342 q 522 780 590 675 q 468 841 496 819 l 258 62 q 360 33 307 37 z "},"Ù":{"ha":842,"x_min":65,"x_max":738,"o":"m 405 1 q 279 32 341 1 q 115 222 173 87 q 65 502 65 341 l 65 1008 l 203 1008 l 203 502 q 264 237 203 345 q 404 136 321 136 l 420 136 l 420 34 q 618 166 536 42 q 705 502 705 298 l 705 1008 l 738 1008 l 738 502 q 648 146 738 282 q 536 37 600 74 q 405 1 473 1 m 387 34 l 387 104 q 235 221 294 117 q 170 502 170 338 l 170 975 l 98 975 l 98 502 q 198 149 98 281 q 387 34 279 42 m 487 1099 l 467 1077 l 316 1219 l 336 1241 l 487 1099 z "},"Ú":{"ha":842,"x_min":65,"x_max":738,"o":"m 405 1 q 279 32 341 1 q 115 222 173 87 q 65 502 65 341 l 65 1008 l 203 1008 l 203 502 q 264 237 203 345 q 404 136 321 136 l 420 136 l 420 34 q 618 166 536 42 q 705 502 705 298 l 705 1008 l 738 1008 l 738 502 q 648 146 738 282 q 536 37 600 74 q 405 1 473 1 m 387 34 l 387 104 q 235 221 294 117 q 170 502 170 338 l 170 975 l 98 975 l 98 502 q 198 149 98 281 q 387 34 279 42 m 515 1219 l 365 1077 l 345 1099 l 495 1241 l 515 1219 z "},"Û":{"ha":842,"x_min":65,"x_max":738,"o":"m 405 1 q 279 32 341 1 q 115 222 173 87 q 65 502 65 341 l 65 1008 l 203 1008 l 203 502 q 264 237 203 345 q 404 136 321 136 l 420 136 l 420 34 q 618 166 536 42 q 705 502 705 298 l 705 1008 l 738 1008 l 738 502 q 648 146 738 282 q 536 37 600 74 q 405 1 473 1 m 387 34 l 387 104 q 235 221 294 117 q 170 502 170 338 l 170 975 l 98 975 l 98 502 q 198 149 98 281 q 387 34 279 42 m 543 1077 l 401 1210 l 260 1077 l 240 1099 l 401 1251 l 563 1099 l 543 1077 z "},"Ü":{"ha":842,"x_min":65,"x_max":738,"o":"m 405 1 q 279 32 341 1 q 115 222 173 87 q 65 502 65 341 l 65 1008 l 203 1008 l 203 502 q 264 237 203 345 q 404 136 321 136 l 420 136 l 420 34 q 618 166 536 42 q 705 502 705 298 l 705 1008 l 738 1008 l 738 502 q 648 146 738 282 q 536 37 600 74 q 405 1 473 1 m 387 34 l 387 104 q 235 221 294 117 q 170 502 170 338 l 170 975 l 98 975 l 98 502 q 198 149 98 281 q 387 34 279 42 m 258 1077 l 258 1187 l 369 1187 l 369 1077 l 258 1077 m 283 1102 l 340 1102 l 340 1162 l 283 1162 l 283 1102 m 435 1077 l 435 1187 l 545 1187 l 545 1077 l 435 1077 m 460 1102 l 517 1102 l 517 1162 l 460 1162 l 460 1102 z "},"Ý":{"ha":625,"x_min":-7,"x_max":627,"o":"m 361 488 l 590 1009 l 627 1009 l 374 444 l 374 1 l 237 1 l 237 445 l -7 1009 l 142 1009 l 361 488 m 342 33 l 342 453 l 123 977 l 47 977 l 269 448 l 269 33 l 342 33 m 423 1219 l 273 1077 l 252 1099 l 403 1241 l 423 1219 z "},"Þ":{"ha":607,"x_min":84,"x_max":602,"o":"m 189 33 l 189 975 l 117 975 l 117 33 l 189 33 m 221 1 l 84 1 l 84 1008 l 221 1008 l 221 811 q 574 660 494 800 q 602 554 602 611 q 573 451 602 501 q 221 290 490 307 l 221 1 m 221 322 q 544 467 467 338 q 570 554 570 509 q 545 644 570 602 q 221 779 474 767 l 221 322 z "},"ß":{"ha":932,"x_min":87,"x_max":910,"o":"m 191 521 l 191 975 l 119 975 l 120 521 l 191 521 m 616 33 q 808 96 739 33 q 878 265 878 159 q 717 505 878 416 l 677 445 q 764 375 734 409 q 805 270 805 327 q 752 147 805 193 q 612 102 699 102 q 456 162 528 102 q 386 228 432 182 l 332 178 q 453 74 391 111 q 616 33 522 33 m 616 0 q 517 12 562 0 q 297 168 404 41 l 287 180 l 386 273 q 474 191 454 207 q 612 134 539 134 q 731 172 686 134 q 772 270 772 208 q 677 406 772 342 q 587 460 635 433 q 470 534 526 494 q 382 618 418 569 q 338 762 338 677 q 412 930 338 857 q 472 975 439 958 l 224 975 l 224 488 l 120 488 l 121 0 l 88 0 l 87 1008 q 603 1008 584 1008 l 603 975 q 435 906 501 971 q 372 758 372 844 q 494 557 372 640 q 650 462 539 526 l 705 548 l 719 541 q 910 265 910 442 q 830 72 910 144 q 616 0 751 0 z "},"à":{"ha":699,"x_min":-33,"x_max":696,"o":"m 164 468 l 500 468 l 333 952 l 164 468 m 441 435 l 580 33 l 650 33 l 511 435 l 441 435 m 406 435 l 153 435 l 1 1 l -33 1 l 318 1008 l 349 1008 l 696 0 l 557 0 l 406 435 m 390 1134 l 370 1112 l 219 1255 l 239 1276 l 390 1134 z "},"á":{"ha":699,"x_min":-33,"x_max":696,"o":"m 164 468 l 500 468 l 333 952 l 164 468 m 441 435 l 580 33 l 650 33 l 511 435 l 441 435 m 406 435 l 153 435 l 1 1 l -33 1 l 318 1008 l 349 1008 l 696 0 l 557 0 l 406 435 m 447 1255 l 296 1112 l 276 1134 l 427 1276 l 447 1255 z "},"â":{"ha":686,"x_min":-34,"x_max":695,"o":"m 163 468 l 499 468 l 332 952 l 163 468 m 440 435 l 579 33 l 649 33 l 511 435 l 440 435 m 406 435 l 153 435 l 0 1 l -34 1 l 317 1008 l 348 1008 l 695 0 l 556 0 l 406 435 m 473 1112 l 332 1245 l 191 1112 l 171 1134 l 332 1286 l 494 1134 l 473 1112 z "},"ã":{"ha":686,"x_min":-34,"x_max":695,"o":"m 163 468 l 499 468 l 332 952 l 163 468 m 440 435 l 579 33 l 649 33 l 511 435 l 440 435 m 406 435 l 153 435 l 0 1 l -34 1 l 317 1008 l 348 1008 l 695 0 l 556 0 l 406 435 m 438 1112 q 386 1124 414 1112 q 328 1149 357 1135 q 228 1185 256 1185 q 205 1175 214 1185 q 195 1123 195 1161 l 166 1123 q 228 1215 166 1215 q 281 1203 252 1215 q 339 1177 310 1192 q 438 1142 411 1142 q 469 1203 469 1142 l 498 1203 q 484 1137 498 1157 q 438 1112 466 1112 z "},"ä":{"ha":686,"x_min":-34,"x_max":695,"o":"m 163 468 l 499 468 l 332 952 l 163 468 m 440 435 l 579 33 l 649 33 l 511 435 l 440 435 m 406 435 l 153 435 l 0 1 l -34 1 l 317 1008 l 348 1008 l 695 0 l 556 0 l 406 435 m 189 1112 l 189 1222 l 300 1222 l 300 1112 l 189 1112 m 214 1137 l 271 1137 l 271 1197 l 214 1197 l 214 1137 m 366 1112 l 366 1222 l 476 1222 l 476 1112 l 366 1112 m 391 1137 l 448 1137 l 448 1197 l 391 1197 l 391 1137 z "},"å":{"ha":699,"x_min":-33,"x_max":696,"o":"m 164 468 l 500 468 l 333 952 l 164 468 m 441 435 l 580 33 l 650 33 l 511 435 l 441 435 m 406 435 l 153 435 l 1 1 l -33 1 l 318 1008 l 349 1008 l 696 0 l 557 0 l 406 435 m 333 1112 q 263 1141 292 1112 q 235 1211 235 1170 q 263 1279 235 1251 q 333 1308 292 1308 q 402 1279 373 1308 q 431 1211 431 1251 q 402 1141 431 1170 q 333 1112 373 1112 m 333 1142 q 381 1162 361 1142 q 401 1211 401 1182 q 381 1259 401 1238 q 333 1279 361 1279 q 284 1259 304 1279 q 264 1211 264 1238 q 284 1162 264 1182 q 333 1142 304 1142 z "},"æ":{"ha":998,"x_min":-33,"x_max":979,"o":"m 568 468 l 566 975 l 341 975 l 164 468 l 568 468 m 671 521 l 671 975 l 600 975 l 600 521 l 671 521 m 979 0 l 568 0 l 568 435 l 153 435 l 1 1 l -33 1 l 318 1008 l 979 1008 l 979 975 l 704 975 l 704 521 l 930 521 l 930 488 l 600 488 l 601 33 l 979 33 l 979 0 z "},"ç":{"ha":610,"x_min":25,"x_max":602,"o":"m 131 520 q 149 655 132 582 q 201 790 165 728 q 273 871 230 840 q 376 905 318 905 q 514 846 456 905 l 559 897 q 374 975 487 975 q 152 848 235 975 q 58 520 62 713 l 131 520 m 338 -195 l 338 -165 q 415 -100 415 -163 q 408 -74 415 -84 q 370 -54 396 -54 l 338 -54 l 361 1 q 235 41 292 4 q 52 314 107 122 q 25 504 25 406 q 50 700 25 605 q 123 867 75 795 q 374 1008 218 1008 q 602 897 512 1008 l 514 795 l 502 810 q 380 872 451 872 q 230 774 286 872 q 163 488 163 655 l 58 488 q 155 168 65 303 q 374 33 245 33 q 482 56 431 33 q 567 121 532 79 l 593 102 q 496 26 553 52 q 393 1 447 5 l 382 -26 q 418 -42 403 -29 q 444 -100 444 -63 q 338 -195 444 -188 z "},"è":{"ha":519,"x_min":87,"x_max":499,"o":"m 191 521 l 191 975 l 119 975 l 120 521 l 191 521 m 499 0 l 88 0 l 87 1008 l 499 1008 l 499 975 l 224 975 l 224 521 l 450 521 l 450 488 l 120 488 l 121 33 l 499 33 l 499 0 m 378 1134 l 358 1112 l 208 1255 l 228 1276 l 378 1134 z "},"é":{"ha":519,"x_min":87,"x_max":499,"o":"m 191 521 l 191 975 l 119 975 l 120 521 l 191 521 m 499 0 l 88 0 l 87 1008 l 499 1008 l 499 975 l 224 975 l 224 521 l 450 521 l 450 488 l 120 488 l 121 33 l 499 33 l 499 0 m 378 1255 l 228 1112 l 208 1134 l 358 1276 l 378 1255 z "},"ê":{"ha":519,"x_min":87,"x_max":499,"o":"m 191 521 l 191 975 l 119 975 l 120 521 l 191 521 m 499 0 l 88 0 l 87 1008 l 499 1008 l 499 975 l 224 975 l 224 521 l 450 521 l 450 488 l 120 488 l 121 33 l 499 33 l 499 0 m 434 1112 l 293 1245 l 151 1112 l 132 1134 l 293 1286 l 454 1134 l 434 1112 z "},"ë":{"ha":519,"x_min":87,"x_max":499,"o":"m 191 521 l 191 975 l 119 975 l 120 521 l 191 521 m 499 0 l 88 0 l 87 1008 l 499 1008 l 499 975 l 224 975 l 224 521 l 450 521 l 450 488 l 120 488 l 121 33 l 499 33 l 499 0 m 150 1112 l 150 1222 l 260 1222 l 260 1112 l 150 1112 m 175 1137 l 232 1137 l 232 1197 l 175 1197 l 175 1137 m 326 1112 l 326 1222 l 437 1222 l 437 1112 l 326 1112 m 351 1137 l 408 1137 l 408 1197 l 351 1197 l 351 1137 z "},"ì":{"ha":366,"x_min":87,"x_max":257,"o":"m 241 1 l 103 1 l 103 1008 l 241 1008 l 241 1 m 208 33 l 208 975 l 136 975 l 136 33 l 208 33 m 257 1134 l 237 1112 l 87 1255 l 106 1276 l 257 1134 z "},"í":{"ha":367,"x_min":87,"x_max":258,"o":"m 241 1 l 104 1 l 104 1008 l 241 1008 l 241 1 m 208 33 l 208 975 l 136 975 l 136 33 l 208 33 m 258 1255 l 107 1112 l 87 1134 l 237 1276 l 258 1255 z "},"î":{"ha":309,"x_min":-16,"x_max":307,"o":"m 214 1 l 77 1 l 77 1008 l 214 1008 l 214 1 m 182 33 l 182 975 l 110 975 l 110 33 l 182 33 m 287 1112 l 146 1245 l 4 1112 l -16 1134 l 146 1286 l 307 1134 l 287 1112 z "},"ï":{"ha":273,"x_min":-16,"x_max":271,"o":"m 196 1 l 58 1 l 58 1008 l 196 1008 l 196 1 m 163 33 l 163 975 l 92 975 l 92 33 l 163 33 m -16 1112 l -16 1222 l 95 1222 l 95 1112 l -16 1112 m 9 1137 l 66 1137 l 66 1197 l 9 1197 l 9 1137 m 161 1112 l 161 1222 l 271 1222 l 271 1112 l 161 1112 m 186 1137 l 243 1137 l 243 1197 l 186 1197 l 186 1137 z "},"ð":{"ha":700,"x_min":4,"x_max":654,"o":"m 211 33 l 211 975 l 139 975 l 139 33 l 211 33 m 243 488 l 243 33 q 524 158 432 38 q 621 515 621 286 q 513 854 621 728 q 243 975 418 966 l 243 521 l 408 521 l 408 488 l 243 488 m 106 521 l 106 1008 l 243 1008 q 538 875 433 998 q 625 716 595 808 q 654 515 654 624 q 548 138 654 275 q 243 1 442 1 l 106 1 l 106 488 l 4 488 l 4 521 l 106 521 z "},"ñ":{"ha":827,"x_min":87,"x_max":718,"o":"m 191 33 l 191 975 l 119 975 l 119 33 l 191 33 m 685 33 l 685 975 l 614 975 l 614 33 l 685 33 m 718 1 l 581 1 l 224 915 l 224 1 l 87 1 l 87 1008 l 224 1008 l 581 94 l 581 1008 l 718 1008 l 718 1 m 508 1112 q 456 1124 484 1112 q 398 1149 427 1135 q 298 1185 326 1185 q 275 1175 283 1185 q 265 1123 265 1161 l 236 1123 q 298 1215 236 1215 q 351 1203 322 1215 q 409 1177 380 1192 q 508 1142 481 1142 q 538 1203 538 1142 l 568 1203 q 553 1137 568 1157 q 508 1112 536 1112 z "},"ò":{"ha":775,"x_min":25,"x_max":729,"o":"m 378 1 q 245 33 309 1 q 133 127 181 66 q 25 513 25 262 q 119 861 25 728 q 239 972 171 935 q 378 1008 307 1008 q 516 971 449 1008 q 634 860 583 934 q 729 503 729 723 q 634 147 729 283 q 516 38 583 75 q 378 1 450 1 m 361 33 l 361 136 l 377 136 q 528 239 467 139 q 591 503 591 342 q 522 779 591 672 q 381 872 462 872 l 362 872 l 362 975 q 245 938 302 971 q 146 843 189 905 q 56 498 56 715 q 159 148 58 273 q 361 33 246 40 m 394 34 q 509 71 454 38 q 607 166 564 104 q 696 503 696 293 q 672 698 696 613 q 607 842 648 783 q 509 937 564 904 q 395 975 454 970 l 395 905 q 550 798 488 896 q 624 503 624 682 q 557 222 624 332 q 394 104 492 116 l 394 34 m 436 1135 l 416 1113 l 265 1255 l 286 1277 l 436 1135 z "},"ó":{"ha":775,"x_min":25,"x_max":729,"o":"m 378 1 q 245 33 309 1 q 133 127 181 66 q 25 513 25 262 q 119 861 25 728 q 239 972 171 935 q 378 1008 307 1008 q 516 971 449 1008 q 634 860 583 934 q 729 503 729 723 q 634 147 729 283 q 516 38 583 75 q 378 1 450 1 m 361 33 l 361 136 l 377 136 q 528 239 467 139 q 591 503 591 342 q 522 779 591 672 q 381 872 462 872 l 362 872 l 362 975 q 245 938 302 971 q 146 843 189 905 q 56 498 56 715 q 159 148 58 273 q 361 33 246 40 m 394 34 q 509 71 454 38 q 607 166 564 104 q 696 503 696 293 q 672 698 696 613 q 607 842 648 783 q 509 937 564 904 q 395 975 454 970 l 395 905 q 550 798 488 896 q 624 503 624 682 q 557 222 624 332 q 394 104 492 116 l 394 34 m 493 1255 l 342 1113 l 322 1135 l 473 1277 l 493 1255 z "},"ô":{"ha":775,"x_min":25,"x_max":729,"o":"m 378 1 q 245 33 309 1 q 133 127 181 66 q 25 513 25 262 q 119 861 25 728 q 239 972 171 935 q 378 1008 307 1008 q 516 971 449 1008 q 634 860 583 934 q 729 503 729 723 q 634 147 729 283 q 516 38 583 75 q 378 1 450 1 m 361 33 l 361 136 l 377 136 q 528 239 467 139 q 591 503 591 342 q 522 779 591 672 q 381 872 462 872 l 362 872 l 362 975 q 245 938 302 971 q 146 843 189 905 q 56 498 56 715 q 159 148 58 273 q 361 33 246 40 m 394 34 q 509 71 454 38 q 607 166 564 104 q 696 503 696 293 q 672 698 696 613 q 607 842 648 783 q 509 937 564 904 q 395 975 454 970 l 395 905 q 550 798 488 896 q 624 503 624 682 q 557 222 624 332 q 394 104 492 116 l 394 34 m 520 1113 l 379 1246 l 237 1113 l 218 1135 l 379 1286 l 541 1135 l 520 1113 z "},"õ":{"ha":775,"x_min":25,"x_max":729,"o":"m 378 1 q 245 33 309 1 q 133 127 181 66 q 25 513 25 262 q 119 861 25 728 q 239 972 171 935 q 378 1008 307 1008 q 516 971 449 1008 q 634 860 583 934 q 729 503 729 723 q 634 147 729 283 q 516 38 583 75 q 378 1 450 1 m 361 33 l 361 136 l 377 136 q 528 239 467 139 q 591 503 591 342 q 522 779 591 672 q 381 872 462 872 l 362 872 l 362 975 q 245 938 302 971 q 146 843 189 905 q 56 498 56 715 q 159 148 58 273 q 361 33 246 40 m 394 34 q 509 71 454 38 q 607 166 564 104 q 696 503 696 293 q 672 698 696 613 q 607 842 648 783 q 509 937 564 904 q 395 975 454 970 l 395 905 q 550 798 488 896 q 624 503 624 682 q 557 222 624 332 q 394 104 492 116 l 394 34 m 485 1113 q 433 1124 461 1113 q 375 1150 404 1136 q 275 1186 302 1186 q 252 1175 260 1186 q 242 1124 242 1162 l 213 1124 q 275 1215 213 1215 q 328 1204 299 1215 q 386 1178 357 1192 q 485 1143 458 1143 q 515 1204 515 1143 l 545 1204 q 530 1137 545 1158 q 485 1113 513 1113 z "},"ö":{"ha":775,"x_min":25,"x_max":729,"o":"m 378 1 q 245 33 309 1 q 133 127 181 66 q 25 513 25 262 q 119 861 25 728 q 239 972 171 935 q 378 1008 307 1008 q 516 971 449 1008 q 634 860 583 934 q 729 503 729 723 q 634 147 729 283 q 516 38 583 75 q 378 1 450 1 m 361 33 l 361 136 l 377 136 q 528 239 467 139 q 591 503 591 342 q 522 779 591 672 q 381 872 462 872 l 362 872 l 362 975 q 245 938 302 971 q 146 843 189 905 q 56 498 56 715 q 159 148 58 273 q 361 33 246 40 m 394 34 q 509 71 454 38 q 607 166 564 104 q 696 503 696 293 q 672 698 696 613 q 607 842 648 783 q 509 937 564 904 q 395 975 454 970 l 395 905 q 550 798 488 896 q 624 503 624 682 q 557 222 624 332 q 394 104 492 116 l 394 34 m 236 1113 l 236 1223 l 347 1223 l 347 1113 l 236 1113 m 261 1138 l 318 1138 l 318 1198 l 261 1198 l 261 1138 m 412 1113 l 412 1223 l 523 1223 l 523 1113 l 412 1113 m 437 1138 l 494 1138 l 494 1198 l 437 1198 l 437 1138 z "},"÷":{"ha":579,"x_min":34,"x_max":545,"o":"m 34 488 l 34 521 l 545 521 l 545 488 l 34 488 m 358 218 l 221 218 l 221 355 l 358 355 l 358 218 m 326 251 l 326 321 l 254 321 l 254 251 l 326 251 m 358 654 l 221 654 l 221 789 l 358 789 l 358 654 m 326 686 l 326 757 l 254 757 l 254 686 l 326 686 z "},"ø":{"ha":775,"x_min":25,"x_max":729,"o":"m 394 34 q 509 71 454 38 q 607 166 564 104 q 696 503 696 293 q 672 698 696 613 q 607 842 648 783 q 509 937 564 904 q 395 975 454 970 l 395 905 q 550 798 488 896 q 624 503 624 682 q 557 222 624 332 q 394 104 492 116 l 394 34 m 239 74 l 448 854 q 381 872 416 872 l 362 872 l 362 975 q 245 938 302 971 q 146 843 189 905 q 56 498 56 715 q 159 148 58 273 q 239 74 197 102 m 220 -87 l 195 -87 l 230 41 q 133 127 175 73 q 25 513 25 262 q 119 861 25 728 q 239 972 171 935 q 378 1008 307 1008 q 484 987 432 1008 l 522 1131 l 548 1131 l 506 977 q 634 860 579 939 q 729 503 729 723 q 634 147 729 283 q 516 38 583 75 q 378 1 450 1 q 252 30 313 1 l 220 -87 m 361 33 l 361 136 l 377 136 q 528 239 467 139 q 591 503 591 342 q 522 779 591 672 q 469 840 497 817 l 260 62 q 361 33 307 37 z "},"ù":{"ha":842,"x_min":68,"x_max":741,"o":"m 401 1 q 270 37 333 1 q 158 146 206 74 q 68 502 68 282 l 68 1008 l 101 1008 l 101 502 q 188 166 101 298 q 386 34 270 42 l 386 136 l 402 136 q 543 237 486 136 q 604 502 604 345 l 604 1008 l 741 1008 l 741 502 q 636 127 741 264 q 527 32 588 64 q 401 1 465 1 m 418 34 q 608 149 527 42 q 709 502 709 281 l 709 975 l 636 975 l 637 502 q 571 221 637 338 q 418 104 513 117 l 418 34 m 462 1134 l 441 1112 l 291 1255 l 311 1276 l 462 1134 z "},"ú":{"ha":842,"x_min":68,"x_max":741,"o":"m 401 1 q 270 37 333 1 q 158 146 206 74 q 68 502 68 282 l 68 1008 l 101 1008 l 101 502 q 188 166 101 298 q 386 34 270 42 l 386 136 l 402 136 q 543 237 486 136 q 604 502 604 345 l 604 1008 l 741 1008 l 741 502 q 636 127 741 264 q 527 32 588 64 q 401 1 465 1 m 418 34 q 608 149 527 42 q 709 502 709 281 l 709 975 l 636 975 l 637 502 q 571 221 637 338 q 418 104 513 117 l 418 34 m 519 1255 l 368 1112 l 348 1134 l 498 1276 l 519 1255 z "},"û":{"ha":842,"x_min":68,"x_max":741,"o":"m 401 1 q 270 37 333 1 q 158 146 206 74 q 68 502 68 282 l 68 1008 l 101 1008 l 101 502 q 188 166 101 298 q 386 34 270 42 l 386 136 l 402 136 q 543 237 486 136 q 604 502 604 345 l 604 1008 l 741 1008 l 741 502 q 636 127 741 264 q 527 32 588 64 q 401 1 465 1 m 418 34 q 608 149 527 42 q 709 502 709 281 l 709 975 l 636 975 l 637 502 q 571 221 637 338 q 418 104 513 117 l 418 34 m 546 1112 l 405 1245 l 263 1112 l 243 1134 l 405 1286 l 566 1134 l 546 1112 z "},"ü":{"ha":842,"x_min":68,"x_max":741,"o":"m 401 1 q 270 37 333 1 q 158 146 206 74 q 68 502 68 282 l 68 1008 l 101 1008 l 101 502 q 188 166 101 298 q 386 34 270 42 l 386 136 l 402 136 q 543 237 486 136 q 604 502 604 345 l 604 1008 l 741 1008 l 741 502 q 636 127 741 264 q 527 32 588 64 q 401 1 465 1 m 418 34 q 608 149 527 42 q 709 502 709 281 l 709 975 l 636 975 l 637 502 q 571 221 637 338 q 418 104 513 117 l 418 34 m 262 1112 l 262 1222 l 372 1222 l 372 1112 l 262 1112 m 287 1137 l 344 1137 l 344 1197 l 287 1197 l 287 1137 m 438 1112 l 438 1222 l 549 1222 l 549 1112 l 438 1112 m 463 1137 l 520 1137 l 520 1197 l 463 1197 l 463 1137 z "},"ý":{"ha":625,"x_min":-6,"x_max":628,"o":"m 362 488 l 591 1009 l 628 1009 l 376 444 l 376 1 l 238 1 l 238 445 l -6 1009 l 144 1009 l 362 488 m 343 33 l 343 453 l 124 977 l 48 977 l 271 448 l 271 33 l 343 33 m 425 1256 l 274 1114 l 254 1135 l 404 1278 l 425 1256 z "},"þ":{"ha":602,"x_min":87,"x_max":603,"o":"m 191 33 l 191 975 l 119 975 l 119 33 l 191 33 m 224 1 l 87 1 l 87 1008 l 224 1008 l 224 782 q 575 631 494 771 q 603 525 603 582 q 574 422 603 472 q 224 259 489 276 l 224 1 m 224 292 q 545 437 467 307 q 570 525 570 480 q 546 615 570 573 q 224 749 474 739 l 224 292 z "},"ÿ":{"ha":625,"x_min":-6,"x_max":628,"o":"m 362 488 l 591 1009 l 628 1009 l 376 444 l 376 1 l 238 1 l 238 445 l -6 1009 l 144 1009 l 362 488 m 343 33 l 343 453 l 124 977 l 48 977 l 271 448 l 271 33 l 343 33 m 168 1114 l 168 1223 l 278 1223 l 278 1114 l 168 1114 m 193 1139 l 250 1139 l 250 1198 l 193 1198 l 193 1139 m 344 1114 l 344 1223 l 454 1223 l 454 1114 l 344 1114 m 369 1139 l 426 1139 l 426 1198 l 369 1198 l 369 1139 z "},"ı":{"ha":334,"x_min":87,"x_max":224,"o":"m 224 1 l 87 1 l 87 1008 l 224 1008 l 224 1 m 192 33 l 192 975 l 120 975 l 120 33 l 192 33 z "},"̀":{"ha":239,"x_min":34,"x_max":205,"o":"m 205 1099 l 184 1077 l 34 1219 l 54 1241 l 205 1099 z "},"́":{"ha":239,"x_min":34,"x_max":205,"o":"m 205 1219 l 54 1077 l 34 1099 l 184 1241 l 205 1219 z "},"̂":{"ha":391,"x_min":34,"x_max":357,"o":"m 336 1077 l 195 1210 l 54 1077 l 34 1099 l 195 1251 l 357 1099 l 336 1077 z "},"̃":{"ha":400,"x_min":34,"x_max":366,"o":"m 306 1077 q 254 1088 282 1077 q 196 1114 225 1100 q 96 1150 123 1150 q 73 1139 81 1150 q 63 1088 63 1126 l 34 1088 q 96 1179 34 1179 q 149 1168 120 1179 q 207 1142 178 1156 q 306 1107 279 1107 q 336 1168 336 1107 l 366 1168 q 351 1101 366 1122 q 306 1077 334 1077 z "},"̄":{"ha":371,"x_min":34,"x_max":337,"o":"m 337 1077 l 34 1077 l 34 1107 l 337 1107 l 337 1077 z "},"̇":{"ha":178,"x_min":34,"x_max":144,"o":"m 34 1077 l 34 1187 l 144 1187 l 144 1077 l 34 1077 m 59 1102 l 116 1102 l 116 1162 l 59 1162 l 59 1102 z "},"̈":{"ha":355,"x_min":34,"x_max":321,"o":"m 34 1077 l 34 1187 l 144 1187 l 144 1077 l 34 1077 m 59 1102 l 116 1102 l 116 1162 l 59 1162 l 59 1102 m 210 1077 l 210 1187 l 321 1187 l 321 1077 l 210 1077 m 235 1102 l 292 1102 l 292 1162 l 235 1162 l 235 1102 z "},"̊":{"ha":264,"x_min":34,"x_max":230,"o":"m 132 1077 q 63 1106 92 1077 q 34 1175 34 1135 q 63 1244 34 1215 q 132 1273 92 1273 q 201 1244 172 1273 q 230 1175 230 1215 q 201 1106 230 1135 q 132 1077 172 1077 m 132 1107 q 180 1127 160 1107 q 200 1175 200 1147 q 180 1223 200 1203 q 132 1244 160 1244 q 84 1223 104 1244 q 64 1175 64 1203 q 84 1127 64 1147 q 132 1107 104 1107 z "},"̌":{"ha":391,"x_min":34,"x_max":357,"o":"m 336 1251 l 357 1229 l 195 1077 l 34 1229 l 54 1251 l 195 1118 l 336 1251 z "},"̧":{"ha":174,"x_min":34,"x_max":140,"o":"m 34 -195 l 34 -165 q 111 -100 111 -163 q 107 -79 111 -87 q 66 -54 94 -54 l 35 -54 l 70 33 l 98 22 l 79 -26 q 115 -42 99 -29 q 140 -100 140 -62 q 34 -195 140 -188 z "},"–":{"ha":869,"x_min":34,"x_max":836,"o":"m 34 488 l 34 520 l 836 520 l 836 488 l 34 488 z "},"—":{"ha":1271,"x_min":34,"x_max":1237,"o":"m 34 488 l 34 520 l 1237 520 l 1237 488 l 34 488 z "},"‘":{"ha":205,"x_min":34,"x_max":172,"o":"m 67 841 l 67 770 l 139 770 l 139 841 l 67 841 m 104 1008 l 140 1008 l 71 873 l 172 873 l 172 738 l 34 738 l 34 873 l 104 1008 z "},"’":{"ha":205,"x_min":34,"x_max":172,"o":"m 138 905 l 138 975 l 66 975 l 66 905 l 138 905 m 102 738 l 65 738 l 135 872 l 34 872 l 34 1008 l 172 1008 l 172 872 l 102 738 z "},"‚":{"ha":205,"x_min":34,"x_max":172,"o":"m 138 30 l 138 100 l 66 100 l 66 30 l 138 30 m 102 -137 l 65 -137 l 135 -3 l 34 -3 l 34 133 l 172 133 l 172 -3 l 102 -137 z "},"“":{"ha":398,"x_min":34,"x_max":364,"o":"m 67 841 l 67 770 l 139 770 l 139 841 l 67 841 m 104 1008 l 140 1008 l 71 873 l 172 873 l 172 738 l 34 738 l 34 873 l 104 1008 m 260 841 l 260 770 l 332 770 l 332 841 l 260 841 m 296 1008 l 333 1008 l 263 873 l 364 873 l 364 738 l 227 738 l 227 873 l 296 1008 z "},"”":{"ha":398,"x_min":34,"x_max":364,"o":"m 138 905 l 138 975 l 66 975 l 66 905 l 138 905 m 102 738 l 65 738 l 135 872 l 34 872 l 34 1008 l 172 1008 l 172 872 l 102 738 m 331 905 l 331 975 l 259 975 l 259 905 l 331 905 m 294 738 l 258 738 l 328 872 l 227 872 l 227 1008 l 364 1008 l 364 872 l 294 738 z "},"„":{"ha":398,"x_min":34,"x_max":364,"o":"m 138 32 l 138 102 l 66 102 l 66 32 l 138 32 m 102 -135 l 65 -135 l 135 -1 l 34 -1 l 34 135 l 172 135 l 172 -1 l 102 -135 m 331 32 l 331 102 l 259 102 l 259 32 l 331 32 m 294 -135 l 258 -135 l 328 -1 l 227 -1 l 227 135 l 364 135 l 364 -1 l 294 -135 z "},"†":{"ha":579,"x_min":34,"x_max":545,"o":"m 306 -165 l 273 -165 l 273 735 l 34 735 l 34 768 l 273 768 l 273 1008 l 306 1008 l 306 768 l 545 768 l 545 735 l 306 735 l 306 -165 z "},"‡":{"ha":579,"x_min":34,"x_max":545,"o":"m 273 -165 l 273 74 l 34 74 l 34 107 l 273 107 l 273 735 l 34 735 l 34 768 l 273 768 l 273 1008 l 306 1008 l 306 768 l 545 768 l 545 735 l 306 735 l 306 107 l 545 107 l 545 74 l 306 74 l 306 -165 l 273 -165 z "},"•":{"ha":694,"x_min":135,"x_max":409,"o":"m 409 368 l 135 368 l 135 640 l 409 640 l 409 368 m 343 434 l 343 574 l 200 574 l 200 434 l 343 434 z "},"…":{"ha":1389,"x_min":68,"x_max":1132,"o":"m 205 -3 l 68 -3 l 68 133 l 205 133 l 205 -3 m 172 30 l 172 100 l 100 100 l 100 30 l 172 30 m 669 -3 l 531 -3 l 531 133 l 669 133 l 669 -3 m 635 30 l 635 100 l 564 100 l 564 30 l 635 30 m 1132 -3 l 994 -3 l 994 133 l 1132 133 l 1132 -3 m 1099 30 l 1099 100 l 1027 100 l 1027 30 l 1099 30 z "},"‹":{"ha":218,"x_min":34,"x_max":184,"o":"m 155 257 l 34 505 l 155 751 l 184 737 l 71 505 l 184 271 l 155 257 z "},"›":{"ha":218,"x_min":34,"x_max":184,"o":"m 63 257 l 34 271 l 148 505 l 34 737 l 63 751 l 184 505 l 63 257 z "},"⁄":{"ha":621,"x_min":34,"x_max":587,"o":"m 71 1 l 34 1 l 551 1008 l 587 1008 l 71 1 z "},"∕":{"ha":621,"x_min":34,"x_max":587,"o":"m 71 1 l 34 1 l 551 1008 l 587 1008 l 71 1 z "},"₣":{"ha":601,"x_min":34,"x_max":567,"o":"m 260 521 l 260 975 l 188 975 l 189 521 l 260 521 m 189 199 l 189 0 l 157 0 l 157 199 l 34 199 l 34 233 l 157 233 l 155 1008 l 567 1008 l 567 975 l 292 975 l 292 521 l 518 521 l 518 488 l 189 488 l 189 233 l 437 233 l 437 199 l 189 199 z "},"₤":{"ha":812,"x_min":34,"x_max":778,"o":"m 135 654 q 206 831 143 767 q 399 907 283 907 q 490 892 452 907 q 542 863 517 880 q 636 781 576 839 l 689 831 q 395 975 558 975 q 262 951 320 975 q 164 888 205 928 q 94 788 118 844 q 67 674 70 732 l 135 654 m 197 293 l 498 293 l 498 260 l 196 260 q 147 123 189 198 q 108 33 118 75 l 778 33 l 778 1 l 73 1 l 73 17 q 87 77 73 46 q 119 140 100 107 q 163 260 155 205 l 61 260 l 61 293 l 165 293 q 153 437 165 355 q 145 486 149 460 l 61 486 l 61 518 l 141 518 q 134 620 136 567 l 34 650 q 141 912 34 807 q 395 1008 240 1008 q 724 840 579 1008 l 735 829 l 635 735 q 545 819 570 799 q 480 860 514 846 q 399 873 446 873 q 230 808 297 873 q 167 632 167 744 q 174 518 167 584 l 498 518 l 498 486 l 178 486 q 185 441 182 465 q 197 293 197 359 z "},"€":{"ha":643,"x_min":-14,"x_max":618,"o":"m 391 33 q 576 111 504 33 l 531 163 q 398 104 474 104 q 218 218 284 104 q 166 354 182 281 q 148 488 149 427 l 75 488 q 169 161 79 296 q 391 33 253 33 m 391 1 q 247 39 310 1 q 140 141 184 77 q 45 429 62 259 l -14 429 l -14 462 l 43 462 q 42 505 42 483 q 54 631 42 569 l -14 631 l -14 664 l 61 664 q 252 968 113 879 q 391 1008 315 1008 q 513 982 456 1008 q 610 907 570 957 l 584 887 q 499 952 549 930 q 391 975 448 975 q 172 840 262 975 q 95 664 119 761 l 532 664 l 532 631 l 87 631 q 75 521 77 578 l 180 521 q 182 462 180 481 l 532 462 l 532 429 l 185 429 q 246 235 200 317 q 307 165 271 192 q 394 136 345 136 q 519 198 468 136 l 531 213 l 618 112 q 391 1 530 1 z "},"™":{"ha":875,"x_min":34,"x_max":841,"o":"m 214 473 l 138 473 l 138 959 l 34 959 l 34 1035 l 343 1035 l 343 1017 l 214 1017 l 214 473 m 196 491 l 196 1017 l 52 1017 l 52 977 l 156 977 l 156 491 l 196 491 m 823 491 l 823 1017 l 783 1017 l 783 491 l 823 491 m 841 473 l 764 473 l 764 994 l 623 749 l 608 749 l 467 994 l 467 473 l 390 473 l 390 1035 l 465 1035 l 616 772 l 765 1035 l 841 1035 l 841 473 m 448 491 l 448 1017 l 408 1017 l 408 491 l 448 491 z "},"−":{"ha":579,"x_min":34,"x_max":545,"o":"m 34 488 l 34 521 l 545 521 l 545 488 l 34 488 z "},"≈":{"ha":604,"x_min":34,"x_max":570,"o":"m 398 325 q 337 342 364 325 q 285 382 310 359 q 240 416 263 401 q 193 431 218 431 q 60 332 132 431 l 34 351 q 193 464 115 464 q 254 447 227 464 q 306 407 281 429 q 351 373 328 388 q 398 357 374 357 q 439 366 420 357 q 546 458 487 386 l 570 437 q 496 361 536 394 q 398 325 449 325 m 398 186 q 337 203 364 186 q 285 243 310 220 q 240 277 263 262 q 193 292 218 292 q 60 192 132 292 l 34 212 q 193 325 115 325 q 254 308 227 325 q 306 268 281 290 q 351 233 328 248 q 398 218 374 218 q 439 227 420 218 q 546 319 487 246 l 570 298 q 496 222 536 254 q 398 186 449 186 z "},"≤":{"ha":579,"x_min":34,"x_max":545,"o":"m 531 77 l 34 267 l 34 296 l 531 486 l 545 456 l 94 281 l 545 107 l 531 77 m 34 0 l 34 33 l 545 33 l 545 0 l 34 0 z "},"≥":{"ha":579,"x_min":34,"x_max":545,"o":"m 47 84 l 34 114 l 485 288 l 34 463 l 47 493 l 545 302 l 545 274 l 47 84 m 34 0 l 34 33 l 545 33 l 545 0 l 34 0 z "},"¹":{"ha":227,"x_min":34,"x_max":193,"o":"m 34 1012 l 193 1012 l 193 387 l 100 387 l 100 982 l 34 982 l 34 1012 m 163 982 l 129 982 l 129 416 l 163 416 l 163 982 z "},"²":{"ha":455,"x_min":34,"x_max":421,"o":"m 396 387 l 77 387 q 133 579 81 503 q 237 704 182 650 q 301 774 275 741 q 328 842 328 808 q 303 898 328 880 q 233 920 275 920 q 174 899 201 920 q 101 833 153 884 l 34 897 l 43 907 q 127 983 82 954 q 236 1012 172 1012 q 370 966 317 1012 q 421 845 421 922 q 319 658 421 736 l 307 649 l 270 695 l 258 684 q 162 571 208 635 q 108 416 117 507 l 396 416 l 396 387 m 312 690 q 391 845 391 756 q 351 944 391 908 q 236 982 306 982 q 142 957 180 982 q 75 899 106 935 l 101 874 q 170 932 142 915 q 233 949 201 949 q 321 921 286 949 q 357 842 357 892 q 338 778 357 808 q 290 717 319 747 l 312 690 z "},"³":{"ha":461,"x_min":34,"x_max":427,"o":"m 241 387 q 129 414 174 387 q 43 491 85 441 l 34 501 l 102 565 q 157 513 144 524 q 239 478 197 478 q 309 500 279 478 q 332 549 332 517 q 299 617 332 589 q 208 679 267 645 l 231 690 q 333 755 284 716 q 382 859 382 795 q 347 942 382 905 q 237 981 308 981 q 184 975 205 981 q 68 888 125 958 l 45 907 q 125 980 81 951 q 236 1011 173 1011 q 366 964 319 1011 q 413 854 413 918 q 298 694 412 762 l 337 690 q 399 639 365 686 q 427 553 427 600 q 377 432 427 477 q 241 387 326 387 m 241 416 q 357 453 315 416 q 398 553 398 490 q 333 665 398 620 l 287 665 q 361 551 361 614 q 328 477 361 503 q 239 449 288 449 q 101 524 171 449 l 75 500 q 144 439 109 462 q 241 416 182 416 z "},"⁴":{"ha":384,"x_min":34,"x_max":350,"o":"m 321 416 l 320 982 l 285 982 l 286 416 l 321 416 m 350 387 l 256 387 l 256 512 l 34 512 l 91 1006 l 121 1003 l 67 542 l 256 542 l 255 1012 l 350 1012 l 350 387 z "},"ȷ":{"ha":405,"x_min":-45,"x_max":296,"o":"m 112 1 q -45 62 17 1 l -23 85 q 108 33 31 33 q 242 138 210 33 q 262 308 262 203 l 262 323 l 157 323 l 157 1008 l 295 1008 q 296 311 295 339 q 292 227 296 275 q 112 1 279 1 m 262 355 l 262 975 l 190 975 l 190 355 l 262 355 z "},"ʻ":{"ha":157,"x_min":34,"x_max":123,"o":"m 56 1140 l 56 1094 l 102 1094 l 102 1140 l 56 1140 m 79 1251 l 103 1251 l 58 1163 l 123 1163 l 123 1075 l 34 1075 l 34 1163 l 79 1251 z "},"ʼ":{"ha":157,"x_min":34,"x_max":123,"o":"m 102 1185 l 102 1232 l 55 1232 l 55 1185 l 102 1185 m 78 1075 l 54 1075 l 100 1162 l 34 1162 l 34 1251 l 123 1251 l 123 1162 l 78 1075 z "},"ˆ":{"ha":391,"x_min":34,"x_max":357,"o":"m 336 1077 l 195 1210 l 54 1077 l 34 1099 l 195 1251 l 357 1099 l 336 1077 z "},"ˇ":{"ha":391,"x_min":34,"x_max":357,"o":"m 336 1251 l 357 1229 l 195 1077 l 34 1229 l 54 1251 l 195 1118 l 336 1251 z "},"ˉ":{"ha":371,"x_min":34,"x_max":337,"o":"m 337 1077 l 34 1077 l 34 1107 l 337 1107 l 337 1077 z "},"ˊ":{"ha":239,"x_min":34,"x_max":205,"o":"m 205 1219 l 54 1077 l 34 1099 l 184 1241 l 205 1219 z "},"ˋ":{"ha":239,"x_min":34,"x_max":205,"o":"m 205 1099 l 184 1077 l 34 1219 l 54 1241 l 205 1099 z "},"ˍ":{"ha":471,"x_min":34,"x_max":437,"o":"m 437 -100 l 34 -100 l 34 -68 l 437 -68 l 437 -100 z "},"˘":{"ha":400,"x_min":34,"x_max":366,"o":"m 199 1077 q 83 1109 135 1077 q 34 1191 34 1139 l 63 1191 q 98 1133 63 1155 q 199 1107 142 1107 q 301 1134 256 1107 q 337 1191 337 1155 l 366 1191 q 317 1109 366 1139 q 199 1077 264 1077 z "},"˷":{"ha":400,"x_min":34,"x_max":366,"o":"m 306 -170 q 254 -159 282 -170 q 196 -133 225 -147 q 96 -97 123 -97 q 74 -108 82 -97 q 63 -159 63 -121 l 34 -159 q 96 -68 34 -68 q 149 -79 120 -68 q 207 -105 178 -91 q 306 -140 279 -140 q 337 -79 337 -140 l 366 -79 q 351 -146 366 -125 q 306 -170 334 -170 z "},"̅":{"ha":579,"x_min":34,"x_max":545,"o":"m 545 1137 l 34 1137 l 34 1169 l 545 1169 l 545 1137 z "},"̆":{"ha":400,"x_min":34,"x_max":366,"o":"m 199 1077 q 83 1109 135 1077 q 34 1191 34 1139 l 63 1191 q 98 1133 63 1155 q 199 1107 142 1107 q 301 1134 256 1107 q 337 1191 337 1155 l 366 1191 q 317 1109 366 1139 q 199 1077 264 1077 z "},"̐":{"ha":400,"x_min":34,"x_max":366,"o":"m 199 1077 q 83 1109 135 1077 q 34 1191 34 1139 l 63 1191 q 98 1133 63 1155 q 199 1107 142 1107 q 301 1134 256 1107 q 337 1191 337 1155 l 366 1191 q 317 1109 366 1139 q 199 1077 264 1077 m 145 1191 l 145 1300 l 256 1300 l 256 1191 l 145 1191 m 170 1215 l 227 1215 l 227 1276 l 170 1276 l 170 1215 z "},"̕":{"ha":157,"x_min":34,"x_max":123,"o":"m 102 1185 l 102 1232 l 55 1232 l 55 1185 l 102 1185 m 78 1075 l 54 1075 l 100 1162 l 34 1162 l 34 1251 l 123 1251 l 123 1162 l 78 1075 z "},"̣":{"ha":178,"x_min":34,"x_max":144,"o":"m 34 -177 l 34 -68 l 144 -68 l 144 -177 l 34 -177 m 60 -153 l 117 -153 l 117 -92 l 60 -92 l 60 -153 z "},"̤":{"ha":355,"x_min":34,"x_max":321,"o":"m 34 -177 l 34 -68 l 144 -68 l 144 -177 l 34 -177 m 60 -153 l 117 -153 l 117 -92 l 60 -92 l 60 -153 m 210 -177 l 210 -68 l 321 -68 l 321 -177 l 210 -177 m 236 -153 l 293 -153 l 293 -92 l 236 -92 l 236 -153 z "},"̥":{"ha":264,"x_min":34,"x_max":230,"o":"m 132 -188 q 63 -159 92 -188 q 34 -90 34 -130 q 63 -21 34 -50 q 132 8 92 8 q 201 -21 172 8 q 230 -90 230 -50 q 201 -159 230 -130 q 132 -188 172 -188 m 132 -158 q 180 -138 160 -158 q 200 -90 200 -118 q 180 -41 200 -62 q 132 -21 160 -21 q 83 -41 104 -21 q 63 -90 63 -62 q 83 -138 63 -118 q 132 -158 104 -158 z "},"̦":{"ha":157,"x_min":34,"x_max":123,"o":"m 102 -133 l 102 -87 l 55 -87 l 55 -133 l 102 -133 m 78 -243 l 54 -243 l 100 -156 l 34 -156 l 34 -68 l 123 -68 l 123 -156 l 78 -243 z "},"̱":{"ha":371,"x_min":34,"x_max":337,"o":"m 337 -97 l 34 -97 l 34 -68 l 337 -68 l 337 -97 z "},"ẞ":{"ha":949,"x_min":84,"x_max":922,"o":"m 629 33 q 820 96 751 33 q 890 265 890 159 q 729 505 890 416 l 690 445 q 760 392 729 420 q 818 270 818 338 q 764 147 818 193 q 625 102 711 102 q 469 162 541 102 q 398 228 445 182 l 345 178 q 465 73 404 111 q 629 33 534 33 m 189 33 l 189 488 l 117 488 l 117 33 l 189 33 m 629 0 q 530 12 574 0 q 310 168 417 41 l 299 180 l 399 273 q 486 191 467 207 q 625 134 552 134 q 743 172 699 134 q 785 270 785 208 q 690 406 785 342 q 599 461 648 433 q 483 534 538 494 q 350 758 352 624 q 423 930 350 855 q 484 975 450 958 l 118 975 l 117 520 l 221 520 l 221 0 l 84 0 l 85 1008 l 629 1008 l 629 975 q 446 909 509 975 q 382 754 382 842 q 507 557 382 638 q 663 462 556 523 l 718 548 l 731 541 q 922 265 922 442 q 843 72 922 144 q 629 0 763 0 z "},"˙":{"ha":178,"x_min":34,"x_max":144,"o":"m 34 1077 l 34 1187 l 144 1187 l 144 1077 l 34 1077 m 59 1102 l 116 1102 l 116 1162 l 59 1162 l 59 1102 z "},"˚":{"ha":264,"x_min":34,"x_max":230,"o":"m 132 1077 q 63 1106 92 1077 q 34 1175 34 1135 q 63 1244 34 1215 q 132 1273 92 1273 q 201 1244 172 1273 q 230 1175 230 1215 q 201 1106 230 1135 q 132 1077 172 1077 m 132 1107 q 180 1127 160 1107 q 200 1175 200 1147 q 180 1223 200 1203 q 132 1244 160 1244 q 84 1223 104 1244 q 64 1175 64 1203 q 84 1127 64 1147 q 132 1107 104 1107 z "},"˛":{"ha":198,"x_min":34,"x_max":164,"o":"m 93 -195 q 51 -176 68 -195 q 34 -134 34 -158 q 62 -52 34 -95 q 138 33 94 -4 l 157 11 q 87 -66 117 -23 q 63 -134 63 -103 q 72 -157 63 -147 q 92 -166 81 -166 q 139 -134 119 -165 l 164 -149 q 93 -195 136 -194 z "},"˜":{"ha":400,"x_min":34,"x_max":366,"o":"m 306 1077 q 254 1088 282 1077 q 196 1114 225 1100 q 96 1150 123 1150 q 73 1139 81 1150 q 63 1088 63 1126 l 34 1088 q 96 1179 34 1179 q 149 1168 120 1179 q 207 1142 178 1156 q 306 1107 279 1107 q 336 1168 336 1107 l 366 1168 q 351 1101 366 1122 q 306 1077 334 1077 z "},"˝":{"ha":410,"x_min":34,"x_max":376,"o":"m 205 1219 l 54 1077 l 34 1099 l 184 1241 l 205 1219 m 376 1219 l 225 1077 l 205 1099 l 355 1241 l 376 1219 z "},"Ā":{"ha":697,"x_min":-32,"x_max":697,"o":"m 499 468 l 331 952 l 164 468 l 499 468 m 84 33 l 223 435 l 153 435 l 14 33 l 84 33 m 107 0 l -32 0 l 315 1008 l 346 1008 l 697 1 l 663 1 l 511 435 l 257 435 l 107 0 m 482 1077 l 179 1077 l 179 1107 l 482 1107 l 482 1077 z "},"ā":{"ha":699,"x_min":-33,"x_max":696,"o":"m 164 468 l 500 468 l 333 952 l 164 468 m 441 435 l 580 33 l 650 33 l 511 435 l 441 435 m 406 435 l 153 435 l 1 1 l -33 1 l 318 1008 l 349 1008 l 696 0 l 557 0 l 406 435 m 485 1077 l 182 1077 l 182 1107 l 485 1107 l 485 1077 z "},"Ă":{"ha":692,"x_min":-33,"x_max":696,"o":"m 498 468 l 330 952 l 163 468 l 498 468 m 83 33 l 222 435 l 152 435 l 13 33 l 83 33 m 106 0 l -33 0 l 315 1008 l 345 1008 l 696 1 l 663 1 l 510 435 l 256 435 l 106 0 m 329 1077 q 212 1109 264 1077 q 163 1191 163 1139 l 193 1191 q 228 1133 193 1155 q 329 1107 272 1107 q 431 1134 386 1107 q 467 1191 467 1155 l 496 1191 q 447 1109 496 1139 q 329 1077 393 1077 z "},"ă":{"ha":686,"x_min":-34,"x_max":695,"o":"m 163 468 l 499 468 l 332 952 l 163 468 m 440 435 l 579 33 l 649 33 l 511 435 l 440 435 m 406 435 l 153 435 l 0 1 l -34 1 l 317 1008 l 348 1008 l 695 0 l 556 0 l 406 435 m 332 1077 q 215 1109 267 1077 q 166 1191 166 1139 l 195 1191 q 231 1133 195 1155 q 332 1107 275 1107 q 433 1134 389 1107 q 469 1191 469 1155 l 498 1191 q 450 1109 498 1139 q 332 1077 396 1077 z "},"Ą":{"ha":712,"x_min":-32,"x_max":716,"o":"m 499 468 l 331 952 l 164 468 l 499 468 m 84 33 l 223 435 l 153 435 l 14 33 l 84 33 m 644 -195 q 602 -177 619 -195 q 585 -134 585 -160 q 663 1 585 -73 l 511 435 l 257 435 l 107 0 l -32 0 l 315 1008 l 346 1008 l 697 1 q 638 -67 662 -31 q 615 -134 615 -103 q 624 -157 615 -147 q 644 -166 633 -166 q 690 -134 671 -165 l 716 -149 q 644 -195 688 -194 z "},"ą":{"ha":718,"x_min":-33,"x_max":715,"o":"m 500 468 l 333 952 l 164 468 l 500 468 m 650 33 l 511 435 l 441 435 l 580 33 l 650 33 m 644 -195 q 603 -176 620 -195 q 585 -134 585 -158 q 655 0 585 -74 l 557 0 l 406 435 l 153 435 l 1 1 l -33 1 l 318 1008 l 349 1008 l 696 0 q 614 -134 614 -76 q 623 -157 614 -147 q 644 -166 632 -166 q 690 -134 671 -165 l 715 -149 q 644 -195 688 -194 z "},"Ć":{"ha":611,"x_min":22,"x_max":599,"o":"m 372 1 q 227 39 290 1 q 121 141 164 77 q 47 309 72 214 q 22 505 22 404 q 50 695 22 602 q 232 968 104 886 q 372 1008 295 1008 q 493 982 436 1008 q 590 907 550 957 l 564 887 q 479 952 530 930 q 372 975 429 975 q 152 840 242 975 q 56 521 62 705 l 161 521 l 161 500 q 176 370 161 442 q 227 235 191 298 q 287 165 251 192 q 374 136 326 136 q 499 198 448 136 l 511 213 l 599 112 q 372 1 510 1 m 372 33 q 556 111 484 33 l 511 163 q 378 104 454 104 q 199 218 264 104 q 146 354 163 281 q 128 488 130 427 l 56 488 q 149 161 60 296 q 372 33 233 33 m 488 1219 l 338 1077 l 317 1099 l 468 1241 l 488 1219 z "},"ć":{"ha":610,"x_min":25,"x_max":602,"o":"m 374 1 q 235 41 298 1 q 52 314 107 122 q 25 504 25 406 q 50 700 25 605 q 123 867 75 795 q 374 1008 218 1008 q 498 982 438 1008 q 593 907 553 957 l 602 897 l 514 795 l 502 810 q 380 872 451 872 q 230 774 286 872 q 163 488 163 655 l 58 488 q 155 168 65 303 q 374 33 245 33 q 482 56 431 33 q 567 121 532 79 l 593 102 q 496 26 553 52 q 374 1 439 1 m 131 520 q 149 655 132 582 q 201 790 165 728 q 273 871 230 840 q 376 905 318 905 q 514 846 456 905 l 559 897 q 374 975 487 975 q 152 848 235 975 q 58 520 62 713 l 131 520 m 487 1219 l 336 1077 l 316 1099 l 467 1241 l 487 1219 z "},"Ĉ":{"ha":611,"x_min":22,"x_max":599,"o":"m 372 1 q 227 39 290 1 q 121 141 164 77 q 47 309 72 214 q 22 505 22 404 q 50 695 22 602 q 232 968 104 886 q 372 1008 295 1008 q 493 982 436 1008 q 590 907 550 957 l 564 887 q 479 952 530 930 q 372 975 429 975 q 152 840 242 975 q 56 521 62 705 l 161 521 l 161 500 q 176 370 161 442 q 227 235 191 298 q 287 165 251 192 q 374 136 326 136 q 499 198 448 136 l 511 213 l 599 112 q 372 1 510 1 m 372 33 q 556 111 484 33 l 511 163 q 378 104 454 104 q 199 218 264 104 q 146 354 163 281 q 128 488 130 427 l 56 488 q 149 161 60 296 q 372 33 233 33 m 515 1077 l 374 1210 l 233 1077 l 213 1099 l 374 1251 l 536 1099 l 515 1077 z "},"ĉ":{"ha":610,"x_min":25,"x_max":602,"o":"m 374 1 q 235 41 298 1 q 52 314 107 122 q 25 504 25 406 q 50 700 25 605 q 123 867 75 795 q 374 1008 218 1008 q 498 982 438 1008 q 593 907 553 957 l 602 897 l 514 795 l 502 810 q 380 872 451 872 q 230 774 286 872 q 163 488 163 655 l 58 488 q 155 168 65 303 q 374 33 245 33 q 482 56 431 33 q 567 121 532 79 l 593 102 q 496 26 553 52 q 374 1 439 1 m 131 520 q 149 655 132 582 q 201 790 165 728 q 273 871 230 840 q 376 905 318 905 q 514 846 456 905 l 559 897 q 374 975 487 975 q 152 848 235 975 q 58 520 62 713 l 131 520 m 514 1077 l 373 1210 l 231 1077 l 212 1099 l 373 1251 l 534 1099 l 514 1077 z "},"Ċ":{"ha":611,"x_min":22,"x_max":599,"o":"m 372 1 q 227 39 290 1 q 121 141 164 77 q 47 309 72 214 q 22 505 22 404 q 50 695 22 602 q 232 968 104 886 q 372 1008 295 1008 q 493 982 436 1008 q 590 907 550 957 l 564 887 q 479 952 530 930 q 372 975 429 975 q 152 840 242 975 q 56 521 62 705 l 161 521 l 161 500 q 176 370 161 442 q 227 235 191 298 q 287 165 251 192 q 374 136 326 136 q 499 198 448 136 l 511 213 l 599 112 q 372 1 510 1 m 372 33 q 556 111 484 33 l 511 163 q 378 104 454 104 q 199 218 264 104 q 146 354 163 281 q 128 488 130 427 l 56 488 q 149 161 60 296 q 372 33 233 33 m 319 1077 l 319 1187 l 430 1187 l 430 1077 l 319 1077 m 345 1102 l 401 1102 l 401 1162 l 345 1162 l 345 1102 z "},"ċ":{"ha":610,"x_min":25,"x_max":602,"o":"m 374 1 q 235 41 298 1 q 52 314 107 122 q 25 504 25 406 q 50 700 25 605 q 123 867 75 795 q 374 1008 218 1008 q 498 982 438 1008 q 593 907 553 957 l 602 897 l 514 795 l 502 810 q 380 872 451 872 q 230 774 286 872 q 163 488 163 655 l 58 488 q 155 168 65 303 q 374 33 245 33 q 482 56 431 33 q 567 121 532 79 l 593 102 q 496 26 553 52 q 374 1 439 1 m 131 520 q 149 655 132 582 q 201 790 165 728 q 273 871 230 840 q 376 905 318 905 q 514 846 456 905 l 559 897 q 374 975 487 975 q 152 848 235 975 q 58 520 62 713 l 131 520 m 318 1077 l 318 1187 l 429 1187 l 429 1077 l 318 1077 m 343 1102 l 400 1102 l 400 1162 l 343 1162 l 343 1102 z "},"Č":{"ha":611,"x_min":22,"x_max":599,"o":"m 372 1 q 227 39 290 1 q 121 141 164 77 q 47 309 72 214 q 22 505 22 404 q 50 695 22 602 q 232 968 104 886 q 372 1008 295 1008 q 493 982 436 1008 q 590 907 550 957 l 564 887 q 479 952 530 930 q 372 975 429 975 q 152 840 242 975 q 56 521 62 705 l 161 521 l 161 500 q 176 370 161 442 q 227 235 191 298 q 287 165 251 192 q 374 136 326 136 q 499 198 448 136 l 511 213 l 599 112 q 372 1 510 1 m 372 33 q 556 111 484 33 l 511 163 q 378 104 454 104 q 199 218 264 104 q 146 354 163 281 q 128 488 130 427 l 56 488 q 149 161 60 296 q 372 33 233 33 m 515 1251 l 536 1229 l 374 1077 l 213 1229 l 233 1251 l 374 1118 l 515 1251 z "},"č":{"ha":610,"x_min":25,"x_max":602,"o":"m 374 1 q 235 41 298 1 q 52 314 107 122 q 25 504 25 406 q 50 700 25 605 q 123 867 75 795 q 374 1008 218 1008 q 498 982 438 1008 q 593 907 553 957 l 602 897 l 514 795 l 502 810 q 380 872 451 872 q 230 774 286 872 q 163 488 163 655 l 58 488 q 155 168 65 303 q 374 33 245 33 q 482 56 431 33 q 567 121 532 79 l 593 102 q 496 26 553 52 q 374 1 439 1 m 131 520 q 149 655 132 582 q 201 790 165 728 q 273 871 230 840 q 376 905 318 905 q 514 846 456 905 l 559 897 q 374 975 487 975 q 152 848 235 975 q 58 520 62 713 l 131 520 m 514 1251 l 534 1229 l 373 1077 l 212 1229 l 231 1251 l 373 1118 l 514 1251 z "},"Ď":{"ha":684,"x_min":84,"x_max":631,"o":"m 215 1 l 84 1 l 84 1008 l 221 1008 q 515 875 411 998 q 602 716 573 808 q 631 515 631 624 q 527 138 631 275 q 215 1 420 1 m 221 33 q 501 158 410 38 q 599 515 599 286 q 490 853 599 728 q 221 975 395 966 l 221 33 m 189 33 l 189 975 l 117 975 l 117 33 l 189 33 m 465 1251 l 486 1229 l 324 1077 l 163 1229 l 182 1251 l 324 1118 l 465 1251 z "},"ď":{"ha":768,"x_min":87,"x_max":721,"o":"m 224 1 l 87 1 l 87 1008 l 224 1008 q 518 875 414 998 q 605 716 576 808 q 634 515 634 624 q 528 138 634 275 q 224 1 422 1 m 224 33 q 504 158 412 38 q 602 515 602 286 q 494 854 602 728 q 224 975 398 966 l 224 33 m 191 33 l 191 975 l 119 975 l 119 33 l 191 33 m 699 943 l 699 989 l 652 989 l 652 943 l 699 943 m 675 833 l 652 833 l 697 920 l 631 920 l 631 1008 l 721 1008 l 721 920 l 675 833 z "},"Đ":{"ha":701,"x_min":1,"x_max":648,"o":"m 237 33 q 517 158 426 38 q 615 515 615 286 q 507 853 615 728 q 237 975 412 966 l 237 521 l 411 521 l 411 488 l 237 488 l 237 33 m 205 33 l 205 975 l 133 975 l 133 33 l 205 33 m 231 1 l 100 1 l 100 488 l 1 488 l 1 521 l 100 521 l 100 1008 l 237 1008 q 532 875 427 998 q 648 515 648 740 q 543 138 648 275 q 231 1 436 1 z "},"đ":{"ha":696,"x_min":4,"x_max":650,"o":"m 240 33 q 520 158 429 38 q 618 515 618 286 q 509 853 618 728 q 240 975 414 966 l 240 521 l 414 521 l 414 488 l 240 488 l 240 33 m 208 33 l 208 975 l 136 975 l 136 33 l 208 33 m 234 1 l 103 1 l 103 488 l 4 488 l 4 521 l 103 521 l 103 1008 l 240 1008 q 534 875 430 998 q 650 515 650 740 q 546 138 650 275 q 234 1 439 1 z "},"Ē":{"ha":519,"x_min":84,"x_max":496,"o":"m 189 33 l 189 488 l 117 488 l 117 33 l 189 33 m 496 0 l 84 0 l 85 1008 l 496 1008 l 496 975 l 118 975 l 117 520 l 447 520 l 447 488 l 221 488 l 221 33 l 496 33 l 496 0 m 442 1077 l 139 1077 l 139 1107 l 442 1107 l 442 1077 z "},"ē":{"ha":519,"x_min":87,"x_max":499,"o":"m 191 521 l 191 975 l 119 975 l 120 521 l 191 521 m 499 0 l 88 0 l 87 1008 l 499 1008 l 499 975 l 224 975 l 224 521 l 450 521 l 450 488 l 120 488 l 121 33 l 499 33 l 499 0 m 445 1077 l 142 1077 l 142 1107 l 445 1107 l 445 1077 z "},"Ĕ":{"ha":522,"x_min":84,"x_max":496,"o":"m 189 33 l 189 488 l 117 488 l 117 33 l 189 33 m 496 0 l 84 0 l 85 1008 l 496 1008 l 496 975 l 118 975 l 117 520 l 447 520 l 447 488 l 221 488 l 221 33 l 496 33 l 496 0 m 290 1077 q 173 1109 225 1077 q 124 1191 124 1139 l 153 1191 q 189 1133 153 1155 q 290 1107 233 1107 q 391 1134 347 1107 q 427 1191 427 1155 l 456 1191 q 408 1109 456 1139 q 290 1077 354 1077 z "},"ĕ":{"ha":519,"x_min":87,"x_max":499,"o":"m 191 521 l 191 975 l 119 975 l 120 521 l 191 521 m 499 0 l 88 0 l 87 1008 l 499 1008 l 499 975 l 224 975 l 224 521 l 450 521 l 450 488 l 120 488 l 121 33 l 499 33 l 499 0 m 292 1077 q 176 1109 228 1077 q 127 1191 127 1139 l 156 1191 q 191 1133 156 1155 q 292 1107 235 1107 q 394 1134 349 1107 q 430 1191 430 1155 l 459 1191 q 410 1109 459 1139 q 292 1077 357 1077 z "},"Ė":{"ha":522,"x_min":84,"x_max":496,"o":"m 189 33 l 189 488 l 117 488 l 117 33 l 189 33 m 496 0 l 84 0 l 85 1008 l 496 1008 l 496 975 l 118 975 l 117 520 l 447 520 l 447 488 l 221 488 l 221 33 l 496 33 l 496 0 m 235 1077 l 235 1187 l 346 1187 l 346 1077 l 235 1077 m 260 1102 l 317 1102 l 317 1162 l 260 1162 l 260 1102 z "},"ė":{"ha":519,"x_min":87,"x_max":499,"o":"m 191 521 l 191 975 l 119 975 l 120 521 l 191 521 m 499 0 l 88 0 l 87 1008 l 499 1008 l 499 975 l 224 975 l 224 521 l 450 521 l 450 488 l 120 488 l 121 33 l 499 33 l 499 0 m 238 1077 l 238 1187 l 349 1187 l 349 1077 l 238 1077 m 263 1102 l 320 1102 l 320 1162 l 263 1162 l 263 1102 z "},"Ę":{"ha":524,"x_min":84,"x_max":516,"o":"m 189 33 l 189 488 l 117 488 l 117 33 l 189 33 m 444 -195 q 401 -176 418 -195 q 385 -134 385 -158 q 458 0 385 -75 l 84 0 l 85 1008 l 496 1008 l 496 975 l 118 975 l 117 520 l 447 520 l 447 488 l 221 488 l 221 33 l 496 33 l 496 0 q 439 -67 463 -31 q 415 -134 415 -103 q 424 -157 415 -147 q 444 -166 433 -166 q 490 -134 471 -165 l 516 -149 q 444 -195 488 -194 z "},"ę":{"ha":538,"x_min":87,"x_max":519,"o":"m 191 521 l 191 975 l 119 975 l 120 521 l 191 521 m 448 -195 q 406 -176 423 -195 q 389 -134 389 -158 q 460 0 389 -73 l 88 0 l 87 1008 l 499 1008 l 499 975 l 224 975 l 224 521 l 450 521 l 450 488 l 120 488 l 121 33 l 499 33 l 499 0 q 418 -134 418 -76 q 427 -157 418 -147 q 446 -166 435 -166 q 494 -134 474 -165 l 519 -149 q 448 -195 491 -194 z "},"Ě":{"ha":522,"x_min":84,"x_max":496,"o":"m 189 33 l 189 488 l 117 488 l 117 33 l 189 33 m 496 0 l 84 0 l 85 1008 l 496 1008 l 496 975 l 118 975 l 117 520 l 447 520 l 447 488 l 221 488 l 221 33 l 496 33 l 496 0 m 431 1251 l 452 1229 l 290 1077 l 129 1229 l 149 1251 l 290 1118 l 431 1251 z "},"ě":{"ha":519,"x_min":87,"x_max":499,"o":"m 191 521 l 191 975 l 119 975 l 120 521 l 191 521 m 499 0 l 88 0 l 87 1008 l 499 1008 l 499 975 l 224 975 l 224 521 l 450 521 l 450 488 l 120 488 l 121 33 l 499 33 l 499 0 m 434 1251 l 454 1229 l 293 1077 l 132 1229 l 151 1251 l 293 1118 l 434 1251 z "},"Ĝ":{"ha":707,"x_min":22,"x_max":634,"o":"m 602 33 l 602 488 l 328 488 l 328 418 l 530 418 l 530 33 l 602 33 m 634 0 l 381 1 q 114 132 203 2 q 22 494 22 263 q 121 866 22 717 q 371 1008 216 1008 q 494 982 435 1008 q 590 907 550 957 l 564 887 q 371 975 492 975 q 243 941 299 975 q 79 688 125 867 q 55 494 55 597 q 140 151 55 273 q 381 33 222 35 l 496 33 l 496 385 l 295 385 l 295 521 l 634 522 l 634 0 m 508 1077 l 367 1210 l 225 1077 l 205 1099 l 367 1251 l 528 1099 l 508 1077 z "},"ĝ":{"ha":707,"x_min":25,"x_max":637,"o":"m 604 33 l 604 488 l 331 488 l 331 418 l 532 418 l 532 33 l 604 33 m 637 0 l 384 1 q 117 132 206 2 q 25 494 25 263 q 123 866 25 717 q 374 1008 218 1008 q 497 982 437 1008 q 593 907 553 957 l 567 887 q 484 951 532 930 q 374 975 431 975 q 246 941 302 975 q 151 848 190 906 q 81 688 104 778 q 58 500 58 597 q 144 151 58 275 q 384 33 224 35 l 500 33 l 500 385 l 298 385 l 298 521 l 637 522 l 637 0 m 517 1077 l 376 1210 l 234 1077 l 214 1099 l 376 1251 l 537 1099 l 517 1077 z "},"Ğ":{"ha":707,"x_min":22,"x_max":634,"o":"m 602 33 l 602 488 l 328 488 l 328 418 l 530 418 l 530 33 l 602 33 m 634 0 l 381 1 q 114 132 203 2 q 22 494 22 263 q 121 866 22 717 q 371 1008 216 1008 q 494 982 435 1008 q 590 907 550 957 l 564 887 q 371 975 492 975 q 243 941 299 975 q 79 688 125 867 q 55 494 55 597 q 140 151 55 273 q 381 33 222 35 l 496 33 l 496 385 l 295 385 l 295 521 l 634 522 l 634 0 m 380 1077 q 263 1109 315 1077 q 214 1191 214 1139 l 243 1191 q 279 1133 243 1155 q 380 1107 323 1107 q 481 1134 437 1107 q 517 1191 517 1155 l 547 1191 q 498 1109 547 1139 q 380 1077 444 1077 z "},"ğ":{"ha":707,"x_min":25,"x_max":637,"o":"m 604 33 l 604 488 l 331 488 l 331 418 l 532 418 l 532 33 l 604 33 m 637 0 l 384 1 q 117 132 206 2 q 25 494 25 263 q 123 866 25 717 q 374 1008 218 1008 q 497 982 437 1008 q 593 907 553 957 l 567 887 q 484 951 532 930 q 374 975 431 975 q 246 941 302 975 q 151 848 190 906 q 81 688 104 778 q 58 500 58 597 q 144 151 58 275 q 384 33 224 35 l 500 33 l 500 385 l 298 385 l 298 521 l 637 522 l 637 0 m 357 1077 q 241 1109 293 1077 q 192 1191 192 1139 l 221 1191 q 256 1133 221 1155 q 357 1107 300 1107 q 459 1134 414 1107 q 495 1191 495 1155 l 524 1191 q 475 1109 524 1139 q 357 1077 422 1077 z "},"Ġ":{"ha":707,"x_min":22,"x_max":634,"o":"m 602 33 l 602 488 l 328 488 l 328 418 l 530 418 l 530 33 l 602 33 m 634 0 l 381 1 q 114 132 203 2 q 22 494 22 263 q 121 866 22 717 q 371 1008 216 1008 q 494 982 435 1008 q 590 907 550 957 l 564 887 q 371 975 492 975 q 243 941 299 975 q 79 688 125 867 q 55 494 55 597 q 140 151 55 273 q 381 33 222 35 l 496 33 l 496 385 l 295 385 l 295 521 l 634 522 l 634 0 m 330 1077 l 330 1187 l 440 1187 l 440 1077 l 330 1077 m 355 1102 l 412 1102 l 412 1162 l 355 1162 l 355 1102 z "},"ġ":{"ha":707,"x_min":25,"x_max":637,"o":"m 604 33 l 604 488 l 331 488 l 331 418 l 532 418 l 532 33 l 604 33 m 637 0 l 384 1 q 117 132 206 2 q 25 494 25 263 q 123 866 25 717 q 374 1008 218 1008 q 497 982 437 1008 q 593 907 553 957 l 567 887 q 484 951 532 930 q 374 975 431 975 q 246 941 302 975 q 151 848 190 906 q 81 688 104 778 q 58 500 58 597 q 144 151 58 275 q 384 33 224 35 l 500 33 l 500 385 l 298 385 l 298 521 l 637 522 l 637 0 m 301 1077 l 301 1187 l 412 1187 l 412 1077 l 301 1077 m 326 1102 l 383 1102 l 383 1162 l 326 1162 l 326 1102 z "},"Ģ":{"ha":707,"x_min":22,"x_max":634,"o":"m 602 33 l 602 488 l 328 488 l 328 418 l 530 418 l 530 33 l 602 33 m 634 0 l 381 1 q 114 132 203 2 q 22 494 22 263 q 121 866 22 717 q 371 1008 216 1008 q 494 982 435 1008 q 590 907 550 957 l 564 887 q 371 975 492 975 q 243 941 299 975 q 79 688 125 867 q 55 494 55 597 q 140 151 55 273 q 381 33 222 35 l 496 33 l 496 385 l 295 385 l 295 521 l 634 522 l 634 0 m 433 -133 l 433 -87 l 386 -87 l 386 -133 l 433 -133 m 409 -243 l 385 -243 l 431 -156 l 365 -156 l 365 -68 l 454 -68 l 454 -156 l 409 -243 z "},"ģ":{"ha":707,"x_min":25,"x_max":637,"o":"m 604 33 l 604 488 l 331 488 l 331 418 l 532 418 l 532 33 l 604 33 m 637 0 l 384 1 q 117 132 206 2 q 25 494 25 263 q 123 866 25 717 q 374 1008 218 1008 q 497 982 437 1008 q 593 907 553 957 l 567 887 q 484 951 532 930 q 374 975 431 975 q 246 941 302 975 q 151 848 190 906 q 81 688 104 778 q 58 500 58 597 q 144 151 58 275 q 384 33 224 35 l 500 33 l 500 385 l 298 385 l 298 521 l 637 522 l 637 0 m 308 1140 l 308 1094 l 355 1094 l 355 1140 l 308 1140 m 332 1251 l 355 1251 l 310 1163 l 376 1163 l 376 1075 l 286 1075 l 286 1163 l 332 1251 z "},"Ĥ":{"ha":749,"x_min":84,"x_max":635,"o":"m 635 0 l 498 0 l 498 488 l 117 488 l 118 0 l 85 0 l 84 1008 l 221 1008 l 221 521 l 602 521 l 602 1008 l 634 1008 l 635 0 m 603 33 l 602 488 l 531 488 l 531 33 l 603 33 m 189 521 l 189 975 l 117 975 l 117 521 l 189 521 m 500 1077 l 359 1210 l 218 1077 l 198 1099 l 359 1251 l 521 1099 l 500 1077 z "},"ĥ":{"ha":748,"x_min":87,"x_max":639,"o":"m 637 0 l 605 0 l 606 488 l 224 488 l 224 0 l 87 0 l 89 1008 l 121 1008 l 121 520 l 502 520 l 502 1008 l 639 1008 l 637 0 m 606 520 l 606 975 l 534 975 l 534 520 l 606 520 m 192 33 l 192 488 l 121 488 l 120 33 l 192 33 m 505 1077 l 364 1210 l 222 1077 l 203 1099 l 364 1251 l 526 1099 l 505 1077 z "},"Ħ":{"ha":749,"x_min":19,"x_max":707,"o":"m 606 33 l 605 488 l 534 488 l 534 33 l 606 33 m 120 521 l 191 521 l 191 975 l 119 975 l 120 521 m 605 521 l 604 874 l 224 874 l 224 521 l 605 521 m 638 0 l 501 0 l 501 488 l 120 488 l 121 0 l 88 0 l 87 874 l 19 874 l 19 907 l 87 907 l 87 1008 l 224 1008 l 224 907 l 604 907 l 604 1008 l 637 1008 l 637 907 l 707 907 l 707 874 l 637 874 l 638 0 z "},"ħ":{"ha":748,"x_min":20,"x_max":708,"o":"m 193 33 l 193 488 l 122 488 l 121 33 l 193 33 m 608 975 l 536 975 l 536 520 l 607 520 l 608 975 m 503 520 l 503 874 l 123 874 l 122 520 l 503 520 m 639 0 l 606 0 l 607 488 l 226 488 l 226 0 l 88 0 l 90 874 l 20 874 l 20 907 l 90 907 l 90 1008 l 123 1008 l 123 907 l 503 907 l 503 1008 l 640 1008 l 640 907 l 708 907 l 708 874 l 640 874 l 639 0 z "},"Ĩ":{"ha":318,"x_min":-18,"x_max":315,"o":"m 217 1 l 80 1 l 80 1008 l 217 1008 l 217 1 m 184 33 l 184 975 l 113 975 l 113 33 l 184 33 m 254 1077 q 202 1088 231 1077 q 144 1114 174 1100 q 44 1150 72 1150 q 22 1139 30 1150 q 12 1088 12 1126 l -18 1088 q 44 1179 -18 1179 q 97 1168 68 1179 q 155 1142 126 1156 q 254 1107 227 1107 q 285 1168 285 1107 l 315 1168 q 300 1101 315 1122 q 254 1077 282 1077 z "},"ĩ":{"ha":313,"x_min":-21,"x_max":311,"o":"m 214 1 l 76 1 l 76 1008 l 214 1008 l 214 1 m 181 33 l 181 975 l 109 975 l 109 33 l 181 33 m 251 1077 q 199 1088 227 1077 q 141 1114 170 1100 q 41 1150 68 1150 q 18 1139 26 1150 q 8 1088 8 1126 l -21 1088 q 41 1179 -21 1179 q 94 1168 65 1179 q 152 1142 123 1156 q 251 1107 224 1107 q 281 1168 281 1107 l 311 1168 q 296 1101 311 1122 q 251 1077 279 1077 z "},"Ī":{"ha":289,"x_min":-18,"x_max":286,"o":"m 202 1 l 65 1 l 65 1008 l 202 1008 l 202 1 m 170 33 l 170 975 l 98 975 l 98 33 l 170 33 m 286 1077 l -18 1077 l -18 1107 l 286 1107 l 286 1077 z "},"ī":{"ha":289,"x_min":-16,"x_max":288,"o":"m 204 1 l 66 1 l 66 1008 l 204 1008 l 204 1 m 172 33 l 172 975 l 100 975 l 100 33 l 172 33 m 288 1077 l -16 1077 l -16 1107 l 288 1107 l 288 1077 z "},"Ĭ":{"ha":318,"x_min":-18,"x_max":315,"o":"m 217 1 l 80 1 l 80 1008 l 217 1008 l 217 1 m 184 33 l 184 975 l 113 975 l 113 33 l 184 33 m 148 1077 q 31 1109 83 1077 q -18 1191 -18 1139 l 12 1191 q 47 1133 12 1155 q 148 1107 91 1107 q 250 1134 205 1107 q 286 1191 286 1155 l 315 1191 q 266 1109 315 1139 q 148 1077 212 1077 z "},"ĭ":{"ha":318,"x_min":-16,"x_max":317,"o":"m 219 1 l 81 1 l 81 1008 l 219 1008 l 219 1 m 186 33 l 186 975 l 115 975 l 115 33 l 186 33 m 150 1077 q 33 1109 85 1077 q -16 1191 -16 1139 l 14 1191 q 49 1133 14 1155 q 150 1107 93 1107 q 252 1134 207 1107 q 288 1191 288 1155 l 317 1191 q 268 1109 317 1139 q 150 1077 214 1077 z "},"Į":{"ha":353,"x_min":84,"x_max":240,"o":"m 189 33 l 189 975 l 117 975 l 117 33 l 189 33 m 168 -195 q 127 -176 144 -195 q 110 -134 110 -158 q 138 -52 110 -95 q 183 1 156 -24 l 84 1 l 84 1008 l 221 1008 l 221 1 q 163 -67 187 -31 q 139 -134 139 -103 q 148 -157 139 -147 q 168 -166 157 -166 q 214 -134 195 -165 l 240 -149 q 168 -195 212 -194 z "},"į":{"ha":353,"x_min":87,"x_max":244,"o":"m 192 33 l 192 975 l 120 975 l 120 33 l 192 33 m 173 -195 q 131 -176 149 -195 q 114 -134 114 -158 q 185 1 114 -71 l 87 1 l 87 1008 l 224 1008 l 224 1 q 168 -66 192 -30 q 143 -134 143 -103 q 152 -157 143 -147 q 172 -166 161 -166 q 219 -134 199 -165 l 244 -149 q 173 -195 216 -194 z "},"İ":{"ha":334,"x_min":84,"x_max":221,"o":"m 221 1 l 84 1 l 84 1008 l 221 1008 l 221 1 m 189 33 l 189 975 l 117 975 l 117 33 l 189 33 m 98 1077 l 98 1187 l 208 1187 l 208 1077 l 98 1077 m 123 1102 l 180 1102 l 180 1162 l 123 1162 l 123 1102 z "},"Ĳ":{"ha":762,"x_min":84,"x_max":644,"o":"m 221 1 l 84 1 l 84 1008 l 221 1008 l 221 1 m 189 33 l 189 975 l 117 975 l 117 33 l 189 33 m 457 1 q 303 62 367 1 l 326 85 q 457 33 379 33 q 591 138 559 33 q 612 310 612 203 l 612 323 l 507 323 l 507 1008 l 644 1008 l 644 323 q 642 231 644 281 q 457 1 627 1 m 611 355 l 611 975 l 539 975 l 539 355 l 611 355 z "},"ĳ":{"ha":767,"x_min":91,"x_max":654,"o":"m 229 1 l 91 1 l 91 1008 l 229 1008 l 229 1 m 196 33 l 196 975 l 124 975 l 124 33 l 196 33 m 470 1 q 313 62 375 1 l 335 85 q 466 33 389 33 q 600 138 568 33 q 621 308 621 203 l 621 323 l 515 323 l 515 1008 l 653 1008 q 654 311 653 339 q 650 227 654 275 q 470 1 637 1 m 621 355 l 621 975 l 548 975 l 548 355 l 621 355 z "},"Ĵ":{"ha":387,"x_min":-50,"x_max":384,"o":"m 104 1 q -50 62 14 1 l -27 85 q 104 33 26 33 q 238 138 206 33 q 258 310 258 203 l 258 323 l 153 323 l 153 1008 l 291 1008 l 291 323 q 288 231 291 281 q 104 1 274 1 m 258 355 l 258 975 l 186 975 l 186 355 l 258 355 m 363 1077 l 222 1210 l 81 1077 l 61 1099 l 222 1251 l 384 1099 l 363 1077 z "},"ĵ":{"ha":389,"x_min":-45,"x_max":388,"o":"m 112 1 q -45 62 17 1 l -23 85 q 108 33 31 33 q 242 138 210 33 q 262 308 262 203 l 262 323 l 157 323 l 157 1008 l 295 1008 q 296 311 295 339 q 292 227 296 275 q 112 1 279 1 m 262 355 l 262 975 l 190 975 l 190 355 l 262 355 m 368 1077 l 227 1210 l 85 1077 l 65 1099 l 227 1251 l 388 1099 l 368 1077 z "},"Ķ":{"ha":597,"x_min":84,"x_max":578,"o":"m 189 33 l 189 488 l 117 488 l 117 33 l 189 33 m 578 0 l 541 0 l 300 488 l 221 488 l 221 0 l 84 0 l 85 1008 l 118 1008 l 117 520 l 195 520 l 433 1008 l 574 1008 l 328 504 l 578 0 m 300 520 l 522 975 l 453 975 l 231 520 l 300 520 m 355 -133 l 355 -87 l 308 -87 l 308 -133 l 355 -133 m 331 -243 l 307 -243 l 353 -156 l 287 -156 l 287 -68 l 376 -68 l 376 -156 l 331 -243 z "},"ķ":{"ha":600,"x_min":87,"x_max":581,"o":"m 191 520 l 191 975 l 119 975 l 120 520 l 191 520 m 121 0 l 88 0 l 87 1008 l 224 1008 l 224 520 l 302 520 l 543 1008 l 581 1008 l 331 504 l 576 1 l 435 1 l 197 488 l 120 488 l 121 0 m 524 33 l 302 488 l 234 488 l 456 33 l 524 33 m 357 -133 l 357 -87 l 311 -87 l 311 -133 l 357 -133 m 334 -243 l 310 -243 l 355 -156 l 290 -156 l 290 -68 l 379 -68 l 379 -156 l 334 -243 z "},"Ĺ":{"ha":391,"x_min":84,"x_max":422,"o":"m 189 33 l 189 488 l 117 488 l 117 33 l 189 33 m 422 0 l 84 0 l 86 1008 l 119 1008 l 118 520 l 222 520 l 222 33 l 422 33 l 422 0 m 321 1219 l 170 1077 l 150 1099 l 300 1241 l 321 1219 z "},"ĺ":{"ha":410,"x_min":87,"x_max":451,"o":"m 191 520 l 191 975 l 119 975 l 120 520 l 191 520 m 451 0 l 88 0 l 87 1008 l 224 1008 l 224 487 l 120 488 l 121 33 l 451 33 l 451 0 m 331 1219 l 180 1077 l 160 1099 l 311 1241 l 331 1219 z "},"Ļ":{"ha":391,"x_min":84,"x_max":422,"o":"m 189 33 l 189 488 l 117 488 l 117 33 l 189 33 m 422 0 l 84 0 l 86 1008 l 119 1008 l 118 520 l 222 520 l 222 33 l 422 33 l 422 0 m 276 -133 l 276 -87 l 229 -87 l 229 -133 l 276 -133 m 252 -243 l 229 -243 l 274 -156 l 208 -156 l 208 -68 l 298 -68 l 298 -156 l 252 -243 z "},"ļ":{"ha":410,"x_min":87,"x_max":451,"o":"m 191 520 l 191 975 l 119 975 l 120 520 l 191 520 m 451 0 l 88 0 l 87 1008 l 224 1008 l 224 487 l 120 488 l 121 33 l 451 33 l 451 0 m 293 -133 l 293 -87 l 246 -87 l 246 -133 l 293 -133 m 269 -243 l 245 -243 l 291 -156 l 225 -156 l 225 -68 l 315 -68 l 315 -156 l 269 -243 z "},"Ľ":{"ha":422,"x_min":84,"x_max":422,"o":"m 189 33 l 189 488 l 117 488 l 117 33 l 189 33 m 422 0 l 84 0 l 86 1008 l 119 1008 l 118 520 l 222 520 l 222 33 l 422 33 l 422 0 m 359 943 l 359 989 l 312 989 l 312 943 l 359 943 m 335 832 l 311 832 l 357 920 l 291 920 l 291 1008 l 380 1008 l 380 920 l 335 832 z "},"ľ":{"ha":431,"x_min":87,"x_max":451,"o":"m 191 520 l 191 975 l 119 975 l 120 520 l 191 520 m 451 0 l 88 0 l 87 1008 l 224 1008 l 224 487 l 120 488 l 121 33 l 451 33 l 451 0 m 347 943 l 347 989 l 300 989 l 300 943 l 347 943 m 323 832 l 299 832 l 345 920 l 279 920 l 279 1008 l 368 1008 l 368 920 l 323 832 z "},"Ŀ":{"ha":439,"x_min":84,"x_max":422,"o":"m 189 33 l 189 488 l 117 488 l 117 33 l 189 33 m 422 0 l 84 0 l 86 1008 l 119 1008 l 118 520 l 222 520 l 222 33 l 422 33 l 422 0 m 387 446 l 270 446 l 270 562 l 387 562 l 387 446 m 359 474 l 359 534 l 298 534 l 298 474 l 359 474 z "},"ŀ":{"ha":454,"x_min":87,"x_max":451,"o":"m 191 520 l 191 975 l 119 975 l 120 520 l 191 520 m 451 0 l 88 0 l 87 1008 l 224 1008 l 224 487 l 120 488 l 121 33 l 451 33 l 451 0 m 393 446 l 277 446 l 277 562 l 393 562 l 393 446 m 366 474 l 366 534 l 304 534 l 304 474 l 366 474 z "},"Ł":{"ha":450,"x_min":-1,"x_max":472,"o":"m 212 33 l 212 488 l 140 488 l 140 33 l 212 33 m 472 0 l 107 0 l 108 436 l 22 347 l -1 370 l 108 484 l 109 1008 l 142 1008 l 141 520 l 143 520 l 321 705 l 345 682 l 189 520 l 245 520 l 245 33 l 472 33 l 472 0 z "},"ł":{"ha":434,"x_min":2,"x_max":475,"o":"m 215 520 l 215 975 l 143 975 l 144 520 l 215 520 m 475 0 l 112 0 l 111 435 l 26 347 l 2 370 l 111 484 l 111 1008 l 248 1008 l 248 625 l 325 705 l 349 682 l 248 577 l 248 487 l 144 488 l 144 33 l 475 33 l 475 0 z "},"Ń":{"ha":829,"x_min":84,"x_max":715,"o":"m 189 33 l 189 975 l 117 975 l 117 33 l 189 33 m 683 33 l 683 975 l 611 975 l 611 33 l 683 33 m 715 1 l 578 1 l 222 915 l 222 1 l 84 1 l 84 1008 l 222 1008 l 578 94 l 578 1008 l 715 1008 l 715 1 m 513 1219 l 363 1077 l 342 1099 l 493 1241 l 513 1219 z "},"ń":{"ha":827,"x_min":87,"x_max":718,"o":"m 191 33 l 191 975 l 119 975 l 119 33 l 191 33 m 685 33 l 685 975 l 614 975 l 614 33 l 685 33 m 718 1 l 581 1 l 224 915 l 224 1 l 87 1 l 87 1008 l 224 1008 l 581 94 l 581 1008 l 718 1008 l 718 1 m 516 1219 l 366 1077 l 345 1099 l 496 1241 l 516 1219 z "},"Ņ":{"ha":829,"x_min":84,"x_max":715,"o":"m 189 33 l 189 975 l 117 975 l 117 33 l 189 33 m 683 33 l 683 975 l 611 975 l 611 33 l 683 33 m 715 1 l 578 1 l 222 915 l 222 1 l 84 1 l 84 1008 l 222 1008 l 578 94 l 578 1008 l 715 1008 l 715 1 m 422 -133 l 422 -87 l 376 -87 l 376 -133 l 422 -133 m 399 -243 l 375 -243 l 420 -156 l 355 -156 l 355 -68 l 444 -68 l 444 -156 l 399 -243 z "},"ņ":{"ha":827,"x_min":87,"x_max":718,"o":"m 191 33 l 191 975 l 119 975 l 119 33 l 191 33 m 685 33 l 685 975 l 614 975 l 614 33 l 685 33 m 718 1 l 581 1 l 224 915 l 224 1 l 87 1 l 87 1008 l 224 1008 l 581 94 l 581 1008 l 718 1008 l 718 1 m 425 -133 l 425 -87 l 378 -87 l 378 -133 l 425 -133 m 401 -243 l 378 -243 l 423 -156 l 357 -156 l 357 -68 l 447 -68 l 447 -156 l 401 -243 z "},"Ň":{"ha":829,"x_min":84,"x_max":715,"o":"m 189 33 l 189 975 l 117 975 l 117 33 l 189 33 m 683 33 l 683 975 l 611 975 l 611 33 l 683 33 m 715 1 l 578 1 l 222 915 l 222 1 l 84 1 l 84 1008 l 222 1008 l 578 94 l 578 1008 l 715 1008 l 715 1 m 541 1251 l 561 1229 l 399 1077 l 238 1229 l 258 1251 l 399 1118 l 541 1251 z "},"ň":{"ha":827,"x_min":87,"x_max":718,"o":"m 191 33 l 191 975 l 119 975 l 119 33 l 191 33 m 685 33 l 685 975 l 614 975 l 614 33 l 685 33 m 718 1 l 581 1 l 224 915 l 224 1 l 87 1 l 87 1008 l 224 1008 l 581 94 l 581 1008 l 718 1008 l 718 1 m 543 1251 l 564 1229 l 402 1077 l 241 1229 l 260 1251 l 402 1118 l 543 1251 z "},"ŉ":{"ha":937,"x_min":42,"x_max":828,"o":"m 110 1122 l 110 1168 l 63 1168 l 63 1122 l 110 1122 m 86 1011 l 62 1011 l 108 1099 l 42 1099 l 42 1187 l 132 1187 l 132 1099 l 86 1011 m 301 33 l 301 975 l 229 975 l 229 33 l 301 33 m 795 33 l 795 975 l 724 975 l 724 33 l 795 33 m 828 1 l 690 1 l 334 915 l 334 1 l 197 1 l 197 1008 l 334 1008 l 690 94 l 690 1008 l 828 1008 l 828 1 z "},"Ō":{"ha":781,"x_min":22,"x_max":728,"o":"m 376 1 q 244 33 308 1 q 132 127 180 66 q 22 503 26 260 q 118 861 22 725 q 238 972 170 935 q 378 1008 306 1008 q 515 971 448 1008 q 633 860 582 934 q 728 503 728 723 q 633 147 728 283 q 515 38 582 75 q 376 1 449 1 m 360 33 l 360 136 l 376 136 q 528 239 467 139 q 590 503 590 342 q 522 780 590 675 q 380 872 461 872 l 361 872 l 361 975 q 244 938 300 971 q 145 843 189 905 q 55 503 55 715 l 55 498 q 158 148 58 271 q 360 33 245 40 m 393 34 q 508 71 453 38 q 606 166 563 104 q 695 503 695 293 q 671 698 695 613 q 606 842 647 783 q 508 937 563 904 q 394 975 453 970 l 394 905 q 549 798 487 896 q 623 503 623 684 q 556 222 623 332 q 393 104 491 116 l 393 34 m 528 1077 l 225 1077 l 225 1107 l 528 1107 l 528 1077 z "},"ō":{"ha":775,"x_min":25,"x_max":729,"o":"m 378 1 q 245 33 309 1 q 133 127 181 66 q 25 513 25 262 q 119 861 25 728 q 239 972 171 935 q 378 1008 307 1008 q 516 971 449 1008 q 634 860 583 934 q 729 503 729 723 q 634 147 729 283 q 516 38 583 75 q 378 1 450 1 m 361 33 l 361 136 l 377 136 q 528 239 467 139 q 591 503 591 342 q 522 779 591 672 q 381 872 462 872 l 362 872 l 362 975 q 245 938 302 971 q 146 843 189 905 q 56 498 56 715 q 159 148 58 273 q 361 33 246 40 m 394 34 q 509 71 454 38 q 607 166 564 104 q 696 503 696 293 q 672 698 696 613 q 607 842 648 783 q 509 937 564 904 q 395 975 454 970 l 395 905 q 550 798 488 896 q 624 503 624 682 q 557 222 624 332 q 394 104 492 116 l 394 34 m 529 1077 l 226 1077 l 226 1107 l 529 1107 l 529 1077 z "},"Ŏ":{"ha":781,"x_min":22,"x_max":728,"o":"m 376 1 q 244 33 308 1 q 132 127 180 66 q 22 503 26 260 q 118 861 22 725 q 238 972 170 935 q 378 1008 306 1008 q 515 971 448 1008 q 633 860 582 934 q 728 503 728 723 q 633 147 728 283 q 515 38 582 75 q 376 1 449 1 m 360 33 l 360 136 l 376 136 q 528 239 467 139 q 590 503 590 342 q 522 780 590 675 q 380 872 461 872 l 361 872 l 361 975 q 244 938 300 971 q 145 843 189 905 q 55 503 55 715 l 55 498 q 158 148 58 271 q 360 33 245 40 m 393 34 q 508 71 453 38 q 606 166 563 104 q 695 503 695 293 q 671 698 695 613 q 606 842 647 783 q 508 937 563 904 q 394 975 453 970 l 394 905 q 549 798 487 896 q 623 503 623 684 q 556 222 623 332 q 393 104 491 116 l 393 34 m 376 1077 q 259 1109 311 1077 q 210 1191 210 1139 l 239 1191 q 275 1133 239 1155 q 376 1107 319 1107 q 477 1134 433 1107 q 513 1191 513 1155 l 543 1191 q 494 1109 543 1139 q 376 1077 440 1077 z "},"ŏ":{"ha":775,"x_min":25,"x_max":729,"o":"m 378 1 q 245 33 309 1 q 133 127 181 66 q 25 513 25 262 q 119 861 25 728 q 239 972 171 935 q 378 1008 307 1008 q 516 971 449 1008 q 634 860 583 934 q 729 503 729 723 q 634 147 729 283 q 516 38 583 75 q 378 1 450 1 m 361 33 l 361 136 l 377 136 q 528 239 467 139 q 591 503 591 342 q 522 779 591 672 q 381 872 462 872 l 362 872 l 362 975 q 245 938 302 971 q 146 843 189 905 q 56 498 56 715 q 159 148 58 273 q 361 33 246 40 m 394 34 q 509 71 454 38 q 607 166 564 104 q 696 503 696 293 q 672 698 696 613 q 607 842 648 783 q 509 937 564 904 q 395 975 454 970 l 395 905 q 550 798 488 896 q 624 503 624 682 q 557 222 624 332 q 394 104 492 116 l 394 34 m 376 1077 q 260 1109 312 1077 q 211 1191 211 1139 l 240 1191 q 275 1133 240 1155 q 376 1107 319 1107 q 478 1134 433 1107 q 514 1191 514 1155 l 543 1191 q 494 1109 543 1139 q 376 1077 441 1077 z "},"Ő":{"ha":781,"x_min":22,"x_max":728,"o":"m 376 1 q 244 33 308 1 q 132 127 180 66 q 22 503 26 260 q 118 861 22 725 q 238 972 170 935 q 378 1008 306 1008 q 515 971 448 1008 q 633 860 582 934 q 728 503 728 723 q 633 147 728 283 q 515 38 582 75 q 376 1 449 1 m 360 33 l 360 136 l 376 136 q 528 239 467 139 q 590 503 590 342 q 522 780 590 675 q 380 872 461 872 l 361 872 l 361 975 q 244 938 300 971 q 145 843 189 905 q 55 503 55 715 l 55 498 q 158 148 58 271 q 360 33 245 40 m 393 34 q 508 71 453 38 q 606 166 563 104 q 695 503 695 293 q 671 698 695 613 q 606 842 647 783 q 508 937 563 904 q 394 975 453 970 l 394 905 q 549 798 487 896 q 623 503 623 684 q 556 222 623 332 q 393 104 491 116 l 393 34 m 432 1219 l 281 1077 l 261 1099 l 412 1241 l 432 1219 m 603 1219 l 452 1077 l 432 1099 l 583 1241 l 603 1219 z "},"ő":{"ha":775,"x_min":25,"x_max":729,"o":"m 378 1 q 245 33 309 1 q 133 127 181 66 q 25 513 25 262 q 119 861 25 728 q 239 972 171 935 q 378 1008 307 1008 q 516 971 449 1008 q 634 860 583 934 q 729 503 729 723 q 634 147 729 283 q 516 38 583 75 q 378 1 450 1 m 361 33 l 361 136 l 377 136 q 528 239 467 139 q 591 503 591 342 q 522 779 591 672 q 381 872 462 872 l 362 872 l 362 975 q 245 938 302 971 q 146 843 189 905 q 56 498 56 715 q 159 148 58 273 q 361 33 246 40 m 394 34 q 509 71 454 38 q 607 166 564 104 q 696 503 696 293 q 672 698 696 613 q 607 842 648 783 q 509 937 564 904 q 395 975 454 970 l 395 905 q 550 798 488 896 q 624 503 624 682 q 557 222 624 332 q 394 104 492 116 l 394 34 m 434 1219 l 283 1077 l 263 1099 l 414 1241 l 434 1219 m 605 1219 l 454 1077 l 434 1099 l 585 1241 l 605 1219 z "},"Œ":{"ha":1022,"x_min":22,"x_max":996,"o":"m 689 33 l 689 404 q 695 503 695 451 q 671 698 695 613 q 606 842 647 783 q 508 937 563 904 q 394 975 453 970 l 394 905 q 549 798 487 896 q 623 503 623 684 q 556 222 623 332 q 393 104 491 116 l 393 34 q 617 179 524 43 l 617 33 l 689 33 m 360 33 l 360 136 l 376 136 q 528 239 467 139 q 590 503 590 342 q 522 780 590 675 q 380 872 461 872 l 361 872 l 361 975 q 244 938 300 971 q 145 843 189 905 q 55 503 55 715 q 158 148 55 275 q 360 33 245 40 m 996 0 l 585 0 l 585 90 q 376 1 492 1 q 244 33 308 1 q 132 127 180 66 q 22 503 26 260 q 118 861 22 725 q 238 972 170 935 q 378 1008 306 1008 q 515 971 448 1008 q 586 917 553 950 l 586 1008 l 996 1008 l 996 975 l 618 975 l 618 880 q 728 520 724 746 l 947 520 l 947 488 l 728 488 q 722 404 727 444 l 722 33 l 996 33 l 996 0 z "},"œ":{"ha":1019,"x_min":25,"x_max":999,"o":"m 692 976 l 620 976 l 620 829 q 395 975 527 966 l 395 904 q 559 787 494 892 q 626 505 626 676 q 552 211 626 325 q 397 104 490 113 l 397 34 q 511 71 456 38 q 609 167 566 104 q 674 311 650 226 q 698 505 698 395 q 692 604 698 557 l 692 976 m 363 975 q 161 861 248 968 q 58 505 58 734 q 148 165 58 294 q 247 71 191 104 q 364 34 303 37 l 364 136 l 383 136 q 524 229 464 136 q 593 505 593 334 q 531 770 593 667 q 379 872 469 869 l 363 872 l 363 975 m 999 1008 l 999 976 l 724 976 l 724 604 q 730 521 730 564 l 950 521 l 950 488 l 730 488 q 621 128 727 262 l 621 33 l 999 33 l 999 1 l 589 1 l 589 92 q 518 37 556 58 q 380 0 451 0 q 241 37 309 0 q 121 147 173 73 q 25 505 25 283 q 135 882 28 749 q 247 975 183 943 q 379 1008 311 1008 q 587 919 494 1008 l 587 1008 l 999 1008 z "},"Ŕ":{"ha":627,"x_min":84,"x_max":600,"o":"m 538 1 l 502 1 l 267 488 l 221 485 l 221 1 l 84 1 l 84 1008 l 221 1005 q 572 857 490 999 q 600 751 600 808 q 570 648 600 698 q 483 559 541 597 q 300 493 413 511 l 538 1 m 221 517 q 541 663 464 532 q 567 751 567 706 q 543 841 567 799 q 221 975 470 966 l 221 517 m 189 33 l 189 975 l 117 975 l 117 33 l 189 33 m 452 1219 l 302 1077 l 281 1099 l 432 1241 l 452 1219 z "},"ŕ":{"ha":628,"x_min":87,"x_max":603,"o":"m 541 1 l 505 1 l 269 488 q 224 485 248 486 l 224 1 l 87 1 l 87 1008 l 224 1008 q 574 857 493 999 q 603 751 603 808 q 573 648 603 698 q 486 559 544 597 q 303 493 416 511 l 541 1 m 224 517 q 468 586 382 527 q 544 663 519 620 q 570 751 570 706 q 546 841 570 799 q 224 975 473 966 l 224 517 m 191 33 l 191 975 l 119 975 l 119 33 l 191 33 m 458 1219 l 308 1077 l 288 1099 l 438 1241 l 458 1219 z "},"Ŗ":{"ha":627,"x_min":84,"x_max":600,"o":"m 538 1 l 502 1 l 267 488 l 221 485 l 221 1 l 84 1 l 84 1008 l 221 1005 q 572 857 490 999 q 600 751 600 808 q 570 648 600 698 q 483 559 541 597 q 300 493 413 511 l 538 1 m 221 517 q 541 663 464 532 q 567 751 567 706 q 543 841 567 799 q 221 975 470 966 l 221 517 m 189 33 l 189 975 l 117 975 l 117 33 l 189 33 m 365 -133 l 365 -87 l 318 -87 l 318 -133 l 365 -133 m 341 -243 l 317 -243 l 363 -156 l 297 -156 l 297 -68 l 387 -68 l 387 -156 l 341 -243 z "},"ŗ":{"ha":628,"x_min":87,"x_max":603,"o":"m 541 1 l 505 1 l 269 488 q 224 485 248 486 l 224 1 l 87 1 l 87 1008 l 224 1008 q 574 857 493 999 q 603 751 603 808 q 573 648 603 698 q 486 559 544 597 q 303 493 416 511 l 541 1 m 224 517 q 468 586 382 527 q 544 663 519 620 q 570 751 570 706 q 546 841 570 799 q 224 975 473 966 l 224 517 m 191 33 l 191 975 l 119 975 l 119 33 l 191 33 m 334 -133 l 334 -87 l 288 -87 l 288 -133 l 334 -133 m 311 -243 l 287 -243 l 332 -156 l 267 -156 l 267 -68 l 356 -68 l 356 -156 l 311 -243 z "},"Ř":{"ha":627,"x_min":84,"x_max":600,"o":"m 538 1 l 502 1 l 267 488 l 221 485 l 221 1 l 84 1 l 84 1008 l 221 1005 q 572 857 490 999 q 600 751 600 808 q 570 648 600 698 q 483 559 541 597 q 300 493 413 511 l 538 1 m 221 517 q 541 663 464 532 q 567 751 567 706 q 543 841 567 799 q 221 975 470 966 l 221 517 m 189 33 l 189 975 l 117 975 l 117 33 l 189 33 m 479 1251 l 500 1229 l 338 1077 l 177 1229 l 197 1251 l 338 1118 l 479 1251 z "},"ř":{"ha":628,"x_min":87,"x_max":603,"o":"m 541 1 l 505 1 l 269 488 q 224 485 248 486 l 224 1 l 87 1 l 87 1008 l 224 1008 q 574 857 493 999 q 603 751 603 808 q 573 648 603 698 q 486 559 544 597 q 303 493 416 511 l 541 1 m 224 517 q 468 586 382 527 q 544 663 519 620 q 570 751 570 706 q 546 841 570 799 q 224 975 473 966 l 224 517 m 191 33 l 191 975 l 119 975 l 119 33 l 191 33 m 486 1251 l 506 1229 l 345 1077 l 183 1229 l 203 1251 l 345 1118 l 486 1251 z "},"Ś":{"ha":671,"x_min":-12,"x_max":628,"o":"m 317 0 q 219 12 263 0 q -1 168 106 41 l -12 180 l 87 273 q 176 191 156 207 q 314 134 241 134 q 433 172 388 134 q 474 270 474 208 q 379 406 474 342 q 288 461 337 433 q 173 533 228 494 q 80 623 117 571 q 40 762 40 680 q 114 929 40 857 q 318 1008 194 1008 q 469 977 407 1008 q 589 883 531 946 l 628 841 l 604 819 l 565 860 q 455 947 511 920 q 318 975 399 975 q 136 906 207 975 q 73 758 73 844 q 196 557 73 640 q 351 462 241 526 l 407 548 l 420 541 q 612 265 612 442 q 532 72 612 144 q 317 0 452 0 m 317 33 q 510 96 440 33 q 579 265 579 159 q 418 505 579 416 l 379 445 q 481 355 450 400 q 507 270 507 316 q 453 147 507 193 q 314 102 400 102 q 157 162 230 102 q 87 228 134 182 l 34 178 q 155 74 92 111 q 317 33 223 33 m 422 1219 l 272 1077 l 252 1099 l 402 1241 l 422 1219 z "},"ś":{"ha":671,"x_min":-9,"x_max":631,"o":"m 320 0 q 222 12 266 0 q 1 168 109 41 l -9 180 l 90 273 q 178 191 159 207 q 317 134 243 134 q 435 172 391 134 q 477 270 477 208 q 382 406 477 342 q 291 461 340 433 q 185 526 236 491 q 81 626 119 571 q 43 762 43 681 q 117 929 43 857 q 321 1008 197 1008 q 472 977 410 1008 q 592 883 534 946 l 631 841 l 607 819 l 568 860 q 458 947 513 920 q 321 975 402 975 q 139 906 210 975 q 76 758 76 844 q 199 557 76 640 q 354 462 243 526 l 410 548 l 423 541 q 614 265 614 442 q 535 72 614 144 q 320 0 455 0 m 320 33 q 512 96 443 33 q 582 265 582 159 q 421 505 582 416 l 382 445 q 481 359 450 402 q 509 270 509 318 q 456 147 509 193 q 317 102 403 102 q 161 162 233 102 q 90 228 136 182 l 37 178 q 157 74 95 111 q 320 33 226 33 m 425 1219 l 275 1077 l 254 1099 l 405 1241 l 425 1219 z "},"Ŝ":{"ha":671,"x_min":-12,"x_max":628,"o":"m 317 0 q 219 12 263 0 q -1 168 106 41 l -12 180 l 87 273 q 176 191 156 207 q 314 134 241 134 q 433 172 388 134 q 474 270 474 208 q 379 406 474 342 q 288 461 337 433 q 173 533 228 494 q 80 623 117 571 q 40 762 40 680 q 114 929 40 857 q 318 1008 194 1008 q 469 977 407 1008 q 589 883 531 946 l 628 841 l 604 819 l 565 860 q 455 947 511 920 q 318 975 399 975 q 136 906 207 975 q 73 758 73 844 q 196 557 73 640 q 351 462 241 526 l 407 548 l 420 541 q 612 265 612 442 q 532 72 612 144 q 317 0 452 0 m 317 33 q 510 96 440 33 q 579 265 579 159 q 418 505 579 416 l 379 445 q 481 355 450 400 q 507 270 507 316 q 453 147 507 193 q 314 102 400 102 q 157 162 230 102 q 87 228 134 182 l 34 178 q 155 74 92 111 q 317 33 223 33 m 450 1077 l 309 1210 l 167 1077 l 147 1099 l 309 1251 l 470 1099 l 450 1077 z "},"ŝ":{"ha":671,"x_min":-9,"x_max":631,"o":"m 320 0 q 222 12 266 0 q 1 168 109 41 l -9 180 l 90 273 q 178 191 159 207 q 317 134 243 134 q 435 172 391 134 q 477 270 477 208 q 382 406 477 342 q 291 461 340 433 q 185 526 236 491 q 81 626 119 571 q 43 762 43 681 q 117 929 43 857 q 321 1008 197 1008 q 472 977 410 1008 q 592 883 534 946 l 631 841 l 607 819 l 568 860 q 458 947 513 920 q 321 975 402 975 q 139 906 210 975 q 76 758 76 844 q 199 557 76 640 q 354 462 243 526 l 410 548 l 423 541 q 614 265 614 442 q 535 72 614 144 q 320 0 455 0 m 320 33 q 512 96 443 33 q 582 265 582 159 q 421 505 582 416 l 382 445 q 481 359 450 402 q 509 270 509 318 q 456 147 509 193 q 317 102 403 102 q 161 162 233 102 q 90 228 136 182 l 37 178 q 157 74 95 111 q 320 33 226 33 m 452 1077 l 311 1210 l 170 1077 l 150 1099 l 311 1251 l 473 1099 l 452 1077 z "},"Ş":{"ha":671,"x_min":-12,"x_max":628,"o":"m 317 33 q 510 96 440 33 q 579 265 579 159 q 418 505 579 416 l 379 445 q 481 355 450 400 q 507 270 507 316 q 453 147 507 193 q 314 102 400 102 q 157 162 230 102 q 87 228 134 182 l 34 178 q 155 74 92 111 q 317 33 223 33 m 277 -195 l 277 -165 q 355 -100 355 -163 q 341 -65 355 -76 q 310 -54 327 -54 l 279 -54 l 301 0 q 219 12 256 2 q -1 168 106 41 l -12 180 l 87 273 q 176 191 156 207 q 314 134 241 134 q 433 172 388 134 q 474 270 474 208 q 379 406 474 342 q 288 461 337 433 q 173 533 228 494 q 80 623 117 571 q 40 762 40 680 q 114 929 40 857 q 318 1008 194 1008 q 469 977 407 1008 q 589 883 531 946 l 628 841 l 604 819 l 565 860 q 455 947 511 920 q 318 975 399 975 q 136 906 207 975 q 73 758 73 844 q 196 557 73 640 q 351 462 241 526 l 407 548 l 420 541 q 612 265 612 442 q 532 73 612 144 q 333 0 457 4 l 323 -26 q 359 -42 343 -29 q 384 -100 384 -62 q 277 -195 384 -188 z "},"ş":{"ha":671,"x_min":-9,"x_max":631,"o":"m 320 33 q 512 96 443 33 q 582 265 582 159 q 421 505 582 416 l 382 445 q 481 359 450 402 q 509 270 509 318 q 456 147 509 193 q 317 102 403 102 q 161 162 233 102 q 90 228 136 182 l 37 178 q 157 74 95 111 q 320 33 226 33 m 281 -195 l 281 -165 q 358 -100 358 -163 q 342 -64 358 -77 q 313 -54 330 -54 l 281 -54 l 304 0 q 222 12 259 2 q 1 168 109 41 l -9 180 l 90 273 q 178 191 159 207 q 317 134 243 134 q 435 172 391 134 q 477 270 477 208 q 382 406 477 342 q 291 461 340 433 q 185 526 236 491 q 81 626 119 571 q 43 762 43 681 q 117 929 43 857 q 321 1008 197 1008 q 472 977 410 1008 q 592 883 534 946 l 631 841 l 607 819 l 568 860 q 458 947 513 920 q 321 975 402 975 q 139 906 210 975 q 76 758 76 844 q 199 557 76 640 q 354 462 243 526 l 410 548 l 423 541 q 614 265 614 442 q 535 73 614 144 q 336 0 460 4 l 326 -26 q 361 -42 346 -29 q 387 -100 387 -63 q 281 -195 387 -188 z "},"Š":{"ha":671,"x_min":-12,"x_max":628,"o":"m 317 0 q 219 12 263 0 q -1 168 106 41 l -12 180 l 87 273 q 176 191 156 207 q 314 134 241 134 q 433 172 388 134 q 474 270 474 208 q 379 406 474 342 q 288 461 337 433 q 173 533 228 494 q 80 623 117 571 q 40 762 40 680 q 114 929 40 857 q 318 1008 194 1008 q 469 977 407 1008 q 589 883 531 946 l 628 841 l 604 819 l 565 860 q 455 947 511 920 q 318 975 399 975 q 136 906 207 975 q 73 758 73 844 q 196 557 73 640 q 351 462 241 526 l 407 548 l 420 541 q 612 265 612 442 q 532 72 612 144 q 317 0 452 0 m 317 33 q 510 96 440 33 q 579 265 579 159 q 418 505 579 416 l 379 445 q 481 355 450 400 q 507 270 507 316 q 453 147 507 193 q 314 102 400 102 q 157 162 230 102 q 87 228 134 182 l 34 178 q 155 74 92 111 q 317 33 223 33 m 450 1251 l 470 1229 l 309 1077 l 147 1229 l 167 1251 l 309 1118 l 450 1251 z "},"š":{"ha":671,"x_min":-9,"x_max":631,"o":"m 320 0 q 222 12 266 0 q 1 168 109 41 l -9 180 l 90 273 q 178 191 159 207 q 317 134 243 134 q 435 172 391 134 q 477 270 477 208 q 382 406 477 342 q 291 461 340 433 q 185 526 236 491 q 81 626 119 571 q 43 762 43 681 q 117 929 43 857 q 321 1008 197 1008 q 472 977 410 1008 q 592 883 534 946 l 631 841 l 607 819 l 568 860 q 458 947 513 920 q 321 975 402 975 q 139 906 210 975 q 76 758 76 844 q 199 557 76 640 q 354 462 243 526 l 410 548 l 423 541 q 614 265 614 442 q 535 72 614 144 q 320 0 455 0 m 320 33 q 512 96 443 33 q 582 265 582 159 q 421 505 582 416 l 382 445 q 481 359 450 402 q 509 270 509 318 q 456 147 509 193 q 317 102 403 102 q 161 162 233 102 q 90 228 136 182 l 37 178 q 157 74 95 111 q 320 33 226 33 m 452 1251 l 473 1229 l 311 1077 l 150 1229 l 170 1251 l 311 1118 l 452 1251 z "},"Ţ":{"ha":574,"x_min":20,"x_max":575,"o":"m 310 33 l 310 975 l 54 975 l 54 905 l 239 905 l 239 33 l 310 33 m 242 -195 l 242 -165 q 319 -100 319 -163 q 304 -65 319 -77 q 274 -55 291 -55 q 243 -58 271 -55 l 266 1 l 205 1 l 205 871 l 20 871 l 20 1008 l 575 1008 l 575 975 l 343 975 l 343 1 l 298 1 l 287 -26 q 323 -43 307 -30 q 349 -100 349 -64 q 242 -195 349 -188 z "},"ţ":{"ha":574,"x_min":-15,"x_max":539,"o":"m 321 33 l 321 905 l 507 905 l 507 975 l 250 975 l 250 33 l 321 33 m 260 -195 l 260 -165 q 337 -100 337 -163 q 321 -64 337 -77 q 292 -54 309 -54 q 260 -58 288 -54 l 283 1 l 217 1 l 217 975 l -15 975 l -15 1008 l 539 1008 l 539 871 l 354 871 l 354 1 l 315 1 l 304 -26 q 340 -42 325 -29 q 366 -100 366 -63 q 260 -195 366 -188 z "},"Ť":{"ha":526,"x_min":20,"x_max":521,"o":"m 343 1 l 205 1 l 205 871 l 20 871 l 20 1008 l 521 1008 l 521 975 l 343 975 l 343 1 m 310 33 l 310 975 l 54 975 l 54 905 l 239 905 l 239 33 l 310 33 m 412 1251 l 432 1229 l 271 1077 l 109 1229 l 129 1251 l 271 1118 l 412 1251 z "},"ť":{"ha":690,"x_min":-4,"x_max":673,"o":"m -4 1008 l 503 1008 l 503 871 l 317 871 l 317 1 l 180 1 l 180 975 l -4 975 l -4 1008 m 470 975 l 213 975 l 213 33 l 285 33 l 285 905 l 470 905 l 470 975 m 652 943 l 652 989 l 605 989 l 605 943 l 652 943 m 628 832 l 604 832 l 650 920 l 584 920 l 584 1008 l 673 1008 l 673 920 l 628 832 z "},"Ŧ":{"ha":580,"x_min":20,"x_max":575,"o":"m 310 33 l 310 975 l 54 975 l 54 905 l 239 905 l 239 33 l 310 33 m 343 1 l 205 1 l 205 488 l 96 488 l 96 521 l 205 521 l 205 871 l 20 871 l 20 1008 l 575 1008 l 575 975 l 343 975 l 343 521 l 500 521 l 500 488 l 343 488 l 343 1 z "},"ŧ":{"ha":592,"x_min":-9,"x_max":545,"o":"m 328 33 l 328 905 l 513 905 l 513 975 l 256 975 l 256 33 l 328 33 m 360 1 l 223 1 l 223 387 l 66 387 l 66 420 l 223 420 l 223 975 l -9 975 l -9 1008 l 545 1008 l 545 871 l 360 871 l 360 420 l 470 420 l 470 387 l 360 387 l 360 1 z "},"Ũ":{"ha":842,"x_min":65,"x_max":738,"o":"m 405 1 q 279 32 341 1 q 115 222 173 87 q 65 502 65 341 l 65 1008 l 203 1008 l 203 502 q 264 237 203 345 q 404 136 321 136 l 420 136 l 420 34 q 618 166 536 42 q 705 502 705 298 l 705 1008 l 738 1008 l 738 502 q 648 146 738 282 q 536 37 600 74 q 405 1 473 1 m 387 34 l 387 104 q 235 221 294 117 q 170 502 170 338 l 170 975 l 98 975 l 98 502 q 198 149 98 281 q 387 34 279 42 m 534 1077 q 482 1088 511 1077 q 425 1114 454 1100 q 324 1150 352 1150 q 302 1139 310 1150 q 292 1088 292 1126 l 262 1088 q 324 1179 262 1179 q 377 1168 349 1179 q 435 1142 406 1156 q 534 1107 507 1107 q 565 1168 565 1107 l 595 1168 q 580 1101 595 1122 q 534 1077 562 1077 z "},"ũ":{"ha":842,"x_min":68,"x_max":741,"o":"m 401 1 q 270 37 333 1 q 158 146 206 74 q 68 502 68 282 l 68 1008 l 101 1008 l 101 502 q 188 166 101 298 q 386 34 270 42 l 386 136 l 402 136 q 543 237 486 136 q 604 502 604 345 l 604 1008 l 741 1008 l 741 502 q 636 127 741 264 q 527 32 588 64 q 401 1 465 1 m 418 34 q 608 149 527 42 q 709 502 709 281 l 709 975 l 636 975 l 637 502 q 571 221 637 338 q 418 104 513 117 l 418 34 m 511 1077 q 458 1088 487 1077 q 401 1114 430 1100 q 300 1150 328 1150 q 278 1139 286 1150 q 268 1088 268 1126 l 239 1088 q 300 1179 239 1179 q 354 1168 325 1179 q 412 1142 382 1156 q 511 1107 484 1107 q 541 1168 541 1107 l 571 1168 q 556 1101 571 1122 q 511 1077 538 1077 z "},"Ū":{"ha":842,"x_min":65,"x_max":738,"o":"m 405 1 q 279 32 341 1 q 115 222 173 87 q 65 502 65 341 l 65 1008 l 203 1008 l 203 502 q 264 237 203 345 q 404 136 321 136 l 420 136 l 420 34 q 618 166 536 42 q 705 502 705 298 l 705 1008 l 738 1008 l 738 502 q 648 146 738 282 q 536 37 600 74 q 405 1 473 1 m 387 34 l 387 104 q 235 221 294 117 q 170 502 170 338 l 170 975 l 98 975 l 98 502 q 198 149 98 281 q 387 34 279 42 m 553 1077 l 250 1077 l 250 1107 l 553 1107 l 553 1077 z "},"ū":{"ha":842,"x_min":68,"x_max":741,"o":"m 401 1 q 270 37 333 1 q 158 146 206 74 q 68 502 68 282 l 68 1008 l 101 1008 l 101 502 q 188 166 101 298 q 386 34 270 42 l 386 136 l 402 136 q 543 237 486 136 q 604 502 604 345 l 604 1008 l 741 1008 l 741 502 q 636 127 741 264 q 527 32 588 64 q 401 1 465 1 m 418 34 q 608 149 527 42 q 709 502 709 281 l 709 975 l 636 975 l 637 502 q 571 221 637 338 q 418 104 513 117 l 418 34 m 557 1077 l 254 1077 l 254 1107 l 557 1107 l 557 1077 z "},"Ŭ":{"ha":842,"x_min":65,"x_max":738,"o":"m 405 1 q 279 32 341 1 q 115 222 173 87 q 65 502 65 341 l 65 1008 l 203 1008 l 203 502 q 264 237 203 345 q 404 136 321 136 l 420 136 l 420 34 q 618 166 536 42 q 705 502 705 298 l 705 1008 l 738 1008 l 738 502 q 648 146 738 282 q 536 37 600 74 q 405 1 473 1 m 387 34 l 387 104 q 235 221 294 117 q 170 502 170 338 l 170 975 l 98 975 l 98 502 q 198 149 98 281 q 387 34 279 42 m 401 1077 q 284 1109 336 1077 q 235 1191 235 1139 l 264 1191 q 300 1133 264 1155 q 401 1107 344 1107 q 503 1134 458 1107 q 538 1191 538 1155 l 568 1191 q 519 1109 568 1139 q 401 1077 465 1077 z "},"ŭ":{"ha":842,"x_min":68,"x_max":741,"o":"m 401 1 q 270 37 333 1 q 158 146 206 74 q 68 502 68 282 l 68 1008 l 101 1008 l 101 502 q 188 166 101 298 q 386 34 270 42 l 386 136 l 402 136 q 543 237 486 136 q 604 502 604 345 l 604 1008 l 741 1008 l 741 502 q 636 127 741 264 q 527 32 588 64 q 401 1 465 1 m 418 34 q 608 149 527 42 q 709 502 709 281 l 709 975 l 636 975 l 637 502 q 571 221 637 338 q 418 104 513 117 l 418 34 m 404 1077 q 288 1109 340 1077 q 239 1191 239 1139 l 268 1191 q 303 1133 268 1155 q 404 1107 347 1107 q 506 1134 461 1107 q 542 1191 542 1155 l 571 1191 q 522 1109 571 1139 q 404 1077 469 1077 z "},"Ů":{"ha":842,"x_min":65,"x_max":738,"o":"m 405 1 q 279 32 341 1 q 115 222 173 87 q 65 502 65 341 l 65 1008 l 203 1008 l 203 502 q 264 237 203 345 q 404 136 321 136 l 420 136 l 420 34 q 618 166 536 42 q 705 502 705 298 l 705 1008 l 738 1008 l 738 502 q 648 146 738 282 q 536 37 600 74 q 405 1 473 1 m 387 34 l 387 104 q 235 221 294 117 q 170 502 170 338 l 170 975 l 98 975 l 98 502 q 198 149 98 281 q 387 34 279 42 m 401 1077 q 332 1106 361 1077 q 303 1175 303 1135 q 332 1244 303 1215 q 401 1273 361 1273 q 470 1244 441 1273 q 499 1175 499 1215 q 470 1106 499 1135 q 401 1077 441 1077 m 401 1107 q 449 1127 429 1107 q 469 1175 469 1147 q 449 1223 469 1203 q 401 1244 429 1244 q 353 1223 373 1244 q 333 1175 333 1203 q 353 1127 333 1147 q 401 1107 373 1107 z "},"ů":{"ha":842,"x_min":68,"x_max":741,"o":"m 401 1 q 270 37 333 1 q 158 146 206 74 q 68 502 68 282 l 68 1008 l 101 1008 l 101 502 q 188 166 101 298 q 386 34 270 42 l 386 136 l 402 136 q 543 237 486 136 q 604 502 604 345 l 604 1008 l 741 1008 l 741 502 q 636 127 741 264 q 527 32 588 64 q 401 1 465 1 m 418 34 q 608 149 527 42 q 709 502 709 281 l 709 975 l 636 975 l 637 502 q 571 221 637 338 q 418 104 513 117 l 418 34 m 405 1077 q 335 1106 364 1077 q 307 1175 307 1135 q 335 1244 307 1215 q 405 1273 364 1273 q 474 1244 445 1273 q 503 1175 503 1215 q 474 1106 503 1135 q 405 1077 445 1077 m 405 1107 q 453 1127 433 1107 q 473 1175 473 1147 q 453 1223 473 1203 q 405 1244 433 1244 q 356 1223 376 1244 q 336 1175 336 1203 q 356 1127 336 1147 q 405 1107 376 1107 z "},"Ű":{"ha":842,"x_min":65,"x_max":738,"o":"m 405 1 q 279 32 341 1 q 115 222 173 87 q 65 502 65 341 l 65 1008 l 203 1008 l 203 502 q 264 237 203 345 q 404 136 321 136 l 420 136 l 420 34 q 618 166 536 42 q 705 502 705 298 l 705 1008 l 738 1008 l 738 502 q 648 146 738 282 q 536 37 600 74 q 405 1 473 1 m 387 34 l 387 104 q 235 221 294 117 q 170 502 170 338 l 170 975 l 98 975 l 98 502 q 198 149 98 281 q 387 34 279 42 m 458 1219 l 308 1077 l 288 1099 l 438 1241 l 458 1219 m 629 1219 l 478 1077 l 458 1099 l 609 1241 l 629 1219 z "},"ű":{"ha":842,"x_min":68,"x_max":741,"o":"m 401 1 q 270 37 333 1 q 158 146 206 74 q 68 502 68 282 l 68 1008 l 101 1008 l 101 502 q 188 166 101 298 q 386 34 270 42 l 386 136 l 402 136 q 543 237 486 136 q 604 502 604 345 l 604 1008 l 741 1008 l 741 502 q 636 127 741 264 q 527 32 588 64 q 401 1 465 1 m 418 34 q 608 149 527 42 q 709 502 709 281 l 709 975 l 636 975 l 637 502 q 571 221 637 338 q 418 104 513 117 l 418 34 m 462 1219 l 311 1077 l 291 1099 l 441 1241 l 462 1219 m 633 1219 l 482 1077 l 462 1099 l 612 1241 l 633 1219 z "},"Ų":{"ha":842,"x_min":65,"x_max":738,"o":"m 387 34 l 387 104 q 235 221 294 117 q 170 502 170 338 l 170 975 l 98 975 l 98 502 q 198 149 98 281 q 387 34 279 42 m 442 -195 q 400 -176 418 -195 q 383 -134 383 -158 q 463 9 383 -75 q 405 1 432 1 q 279 32 341 1 q 115 222 173 87 q 65 502 65 341 l 65 1008 l 203 1008 l 203 502 q 264 237 203 345 q 404 136 321 136 l 420 136 l 420 34 q 618 166 536 42 q 705 502 705 298 l 705 1008 l 738 1008 l 738 502 q 648 146 738 282 q 536 37 600 74 l 516 26 q 412 -134 412 -77 q 421 -157 412 -147 q 441 -166 430 -166 q 488 -134 469 -165 l 513 -149 q 442 -195 486 -194 z "},"ų":{"ha":842,"x_min":68,"x_max":741,"o":"m 418 34 q 608 149 527 42 q 709 502 709 281 l 709 975 l 636 975 l 637 502 q 571 221 637 338 q 418 104 513 117 l 418 34 m 433 -195 q 392 -174 409 -195 q 374 -130 374 -154 q 453 6 374 -68 q 401 1 425 1 q 270 37 333 1 q 158 146 206 74 q 68 502 68 282 l 68 1008 l 101 1008 l 101 502 q 188 166 101 298 q 386 34 270 42 l 386 136 l 402 136 q 543 237 486 136 q 604 502 604 345 l 604 1008 l 741 1008 l 741 502 q 636 127 741 264 q 509 24 582 56 q 404 -134 404 -72 q 413 -157 404 -147 q 433 -166 422 -166 q 479 -134 460 -165 l 505 -149 q 433 -195 477 -194 z "},"Ŵ":{"ha":1166,"x_min":20,"x_max":1141,"o":"m 878 33 l 1099 977 l 1020 977 l 797 33 l 878 33 m 758 0 l 574 646 l 420 1 l 275 1 l 20 1009 l 168 1009 l 404 73 l 628 1009 l 662 1009 l 590 711 l 772 70 l 994 1009 l 1141 1009 l 904 1 l 758 0 m 380 33 l 142 977 l 62 977 l 300 33 l 380 33 m 722 1077 l 581 1210 l 439 1077 l 419 1099 l 581 1251 l 742 1099 l 722 1077 z "},"ŵ":{"ha":1179,"x_min":12,"x_max":1132,"o":"m 869 33 l 1090 977 l 1011 977 l 789 33 l 869 33 m 749 0 l 566 646 l 412 1 l 266 1 l 12 1009 l 159 1009 l 395 73 l 620 1009 l 653 1009 l 582 711 l 764 70 l 985 1009 l 1132 1009 l 895 1 l 749 0 m 372 33 l 134 977 l 54 977 l 292 33 l 372 33 m 713 1077 l 572 1210 l 431 1077 l 411 1099 l 572 1251 l 734 1099 l 713 1077 z "},"Ŷ":{"ha":625,"x_min":-7,"x_max":627,"o":"m 361 488 l 590 1009 l 627 1009 l 374 444 l 374 1 l 237 1 l 237 445 l -7 1009 l 142 1009 l 361 488 m 342 33 l 342 453 l 123 977 l 47 977 l 269 448 l 269 33 l 342 33 m 450 1077 l 309 1210 l 168 1077 l 148 1099 l 309 1251 l 471 1099 l 450 1077 z "},"ŷ":{"ha":625,"x_min":-6,"x_max":628,"o":"m 362 488 l 591 1009 l 628 1009 l 376 444 l 376 1 l 238 1 l 238 445 l -6 1009 l 144 1009 l 362 488 m 343 33 l 343 453 l 124 977 l 48 977 l 271 448 l 271 33 l 343 33 m 452 1077 l 311 1210 l 169 1077 l 149 1099 l 311 1251 l 472 1099 l 452 1077 z "},"Ÿ":{"ha":625,"x_min":-7,"x_max":627,"o":"m 361 488 l 590 1009 l 627 1009 l 374 444 l 374 1 l 237 1 l 237 445 l -7 1009 l 142 1009 l 361 488 m 342 33 l 342 453 l 123 977 l 47 977 l 269 448 l 269 33 l 342 33 m 166 1077 l 166 1187 l 277 1187 l 277 1077 l 166 1077 m 191 1102 l 248 1102 l 248 1162 l 191 1162 l 191 1102 m 342 1077 l 342 1187 l 453 1187 l 453 1077 l 342 1077 m 368 1102 l 425 1102 l 425 1162 l 368 1162 l 368 1102 z "},"Ź":{"ha":526,"x_min":2,"x_max":507,"o":"m 129 33 l 461 977 l 382 977 l 48 33 l 129 33 m 465 1 l 2 1 l 348 977 l 29 977 l 29 1009 l 507 1009 l 163 33 l 465 33 l 465 1 m 368 1219 l 218 1077 l 197 1099 l 348 1241 l 368 1219 z "},"ź":{"ha":528,"x_min":4,"x_max":509,"o":"m 385 977 l 50 33 l 131 33 l 463 977 l 385 977 m 350 977 l 31 977 l 31 1009 l 509 1009 l 165 33 l 467 33 l 467 1 l 4 1 l 350 977 m 370 1219 l 220 1077 l 199 1099 l 350 1241 l 370 1219 z "},"Ż":{"ha":526,"x_min":2,"x_max":507,"o":"m 129 33 l 461 977 l 382 977 l 48 33 l 129 33 m 465 1 l 2 1 l 348 977 l 29 977 l 29 1009 l 507 1009 l 163 33 l 465 33 l 465 1 m 199 1077 l 199 1187 l 310 1187 l 310 1077 l 199 1077 m 224 1102 l 281 1102 l 281 1162 l 224 1162 l 224 1102 z "},"ż":{"ha":528,"x_min":4,"x_max":509,"o":"m 385 977 l 50 33 l 131 33 l 463 977 l 385 977 m 350 977 l 31 977 l 31 1009 l 509 1009 l 165 33 l 467 33 l 467 1 l 4 1 l 350 977 m 201 1077 l 201 1187 l 312 1187 l 312 1077 l 201 1077 m 227 1102 l 283 1102 l 283 1162 l 227 1162 l 227 1102 z "},"Ž":{"ha":526,"x_min":2,"x_max":507,"o":"m 129 33 l 461 977 l 382 977 l 48 33 l 129 33 m 465 1 l 2 1 l 348 977 l 29 977 l 29 1009 l 507 1009 l 163 33 l 465 33 l 465 1 m 395 1251 l 416 1229 l 254 1077 l 93 1229 l 113 1251 l 254 1118 l 395 1251 z "},"ž":{"ha":528,"x_min":4,"x_max":509,"o":"m 385 977 l 50 33 l 131 33 l 463 977 l 385 977 m 350 977 l 31 977 l 31 1009 l 509 1009 l 165 33 l 467 33 l 467 1 l 4 1 l 350 977 m 397 1251 l 418 1229 l 256 1077 l 95 1229 l 115 1251 l 256 1118 l 397 1251 z "},"Ș":{"ha":671,"x_min":-12,"x_max":628,"o":"m 317 0 q 219 12 263 0 q -1 168 106 41 l -12 180 l 87 273 q 176 191 156 207 q 314 134 241 134 q 433 172 388 134 q 474 270 474 208 q 379 406 474 342 q 288 461 337 433 q 173 533 228 494 q 80 623 117 571 q 40 762 40 680 q 114 929 40 857 q 318 1008 194 1008 q 469 977 407 1008 q 589 883 531 946 l 628 841 l 604 819 l 565 860 q 455 947 511 920 q 318 975 399 975 q 136 906 207 975 q 73 758 73 844 q 196 557 73 640 q 351 462 241 526 l 407 548 l 420 541 q 612 265 612 442 q 532 72 612 144 q 317 0 452 0 m 317 33 q 510 96 440 33 q 579 265 579 159 q 418 505 579 416 l 379 445 q 481 355 450 400 q 507 270 507 316 q 453 147 507 193 q 314 102 400 102 q 157 162 230 102 q 87 228 134 182 l 34 178 q 155 74 92 111 q 317 33 223 33 m 332 -133 l 332 -87 l 285 -87 l 285 -133 l 332 -133 m 308 -243 l 284 -243 l 330 -156 l 264 -156 l 264 -68 l 353 -68 l 353 -156 l 308 -243 z "},"ș":{"ha":671,"x_min":-9,"x_max":631,"o":"m 320 0 q 222 12 266 0 q 1 168 109 41 l -9 180 l 90 273 q 178 191 159 207 q 317 134 243 134 q 435 172 391 134 q 477 270 477 208 q 382 406 477 342 q 291 461 340 433 q 185 526 236 491 q 81 626 119 571 q 43 762 43 681 q 117 929 43 857 q 321 1008 197 1008 q 472 977 410 1008 q 592 883 534 946 l 631 841 l 607 819 l 568 860 q 458 947 513 920 q 321 975 402 975 q 139 906 210 975 q 76 758 76 844 q 199 557 76 640 q 354 462 243 526 l 410 548 l 423 541 q 614 265 614 442 q 535 72 614 144 q 320 0 455 0 m 320 33 q 512 96 443 33 q 582 265 582 159 q 421 505 582 416 l 382 445 q 481 359 450 402 q 509 270 509 318 q 456 147 509 193 q 317 102 403 102 q 161 162 233 102 q 90 228 136 182 l 37 178 q 157 74 95 111 q 320 33 226 33 m 334 -133 l 334 -87 l 288 -87 l 288 -133 l 334 -133 m 311 -243 l 287 -243 l 332 -156 l 267 -156 l 267 -68 l 356 -68 l 356 -156 l 311 -243 z "},"Ț":{"ha":526,"x_min":20,"x_max":521,"o":"m 343 1 l 205 1 l 205 871 l 20 871 l 20 1008 l 521 1008 l 521 975 l 343 975 l 343 1 m 310 33 l 310 975 l 54 975 l 54 905 l 239 905 l 239 33 l 310 33 m 294 -133 l 294 -87 l 247 -87 l 247 -133 l 294 -133 m 270 -243 l 246 -243 l 292 -156 l 226 -156 l 226 -68 l 315 -68 l 315 -156 l 270 -243 z "},"ț":{"ha":537,"x_min":-4,"x_max":503,"o":"m -4 1008 l 503 1008 l 503 871 l 317 871 l 317 1 l 180 1 l 180 975 l -4 975 l -4 1008 m 470 975 l 213 975 l 213 33 l 285 33 l 285 905 l 470 905 l 470 975 m 272 -133 l 272 -87 l 225 -87 l 225 -133 l 272 -133 m 248 -243 l 224 -243 l 270 -156 l 204 -156 l 204 -68 l 294 -68 l 294 -156 l 248 -243 z "},"Ȳ":{"ha":625,"x_min":-7,"x_max":627,"o":"m 361 488 l 590 1009 l 627 1009 l 374 444 l 374 1 l 237 1 l 237 445 l -7 1009 l 142 1009 l 361 488 m 342 33 l 342 453 l 123 977 l 47 977 l 269 448 l 269 33 l 342 33 m 461 1077 l 158 1077 l 158 1107 l 461 1107 l 461 1077 z "},"ȳ":{"ha":625,"x_min":-6,"x_max":628,"o":"m 362 488 l 591 1009 l 628 1009 l 376 444 l 376 1 l 238 1 l 238 445 l -6 1009 l 144 1009 l 362 488 m 343 33 l 343 453 l 124 977 l 48 977 l 271 448 l 271 33 l 343 33 m 463 1077 l 159 1077 l 159 1107 l 463 1107 l 463 1077 z "},"Ḍ":{"ha":684,"x_min":84,"x_max":631,"o":"m 215 1 l 84 1 l 84 1008 l 221 1008 q 515 875 411 998 q 602 716 573 808 q 631 515 631 624 q 527 138 631 275 q 215 1 420 1 m 221 33 q 501 158 410 38 q 599 515 599 286 q 490 853 599 728 q 221 975 395 966 l 221 33 m 189 33 l 189 975 l 117 975 l 117 33 l 189 33 m 271 -177 l 271 -68 l 381 -68 l 381 -177 l 271 -177 m 296 -153 l 353 -153 l 353 -92 l 296 -92 l 296 -153 z "},"ḍ":{"ha":680,"x_min":87,"x_max":634,"o":"m 224 1 l 87 1 l 87 1008 l 224 1008 q 518 875 414 998 q 605 716 576 808 q 634 515 634 624 q 528 138 634 275 q 224 1 422 1 m 224 33 q 504 158 412 38 q 602 515 602 286 q 494 854 602 728 q 224 975 398 966 l 224 33 m 191 33 l 191 975 l 119 975 l 119 33 l 191 33 m 305 -177 l 305 -68 l 416 -68 l 416 -177 l 305 -177 m 331 -153 l 388 -153 l 388 -92 l 331 -92 l 331 -153 z "},"Ḥ":{"ha":749,"x_min":84,"x_max":635,"o":"m 635 0 l 498 0 l 498 488 l 117 488 l 118 0 l 85 0 l 84 1008 l 221 1008 l 221 521 l 602 521 l 602 1008 l 634 1008 l 635 0 m 603 33 l 602 488 l 531 488 l 531 33 l 603 33 m 189 521 l 189 975 l 117 975 l 117 521 l 189 521 m 304 -177 l 304 -68 l 414 -68 l 414 -177 l 304 -177 m 330 -153 l 387 -153 l 387 -92 l 330 -92 l 330 -153 z "},"ḥ":{"ha":748,"x_min":87,"x_max":639,"o":"m 637 0 l 605 0 l 606 488 l 224 488 l 224 0 l 87 0 l 89 1008 l 121 1008 l 121 520 l 502 520 l 502 1008 l 639 1008 l 637 0 m 606 520 l 606 975 l 534 975 l 534 520 l 606 520 m 192 33 l 192 488 l 121 488 l 120 33 l 192 33 m 307 -177 l 307 -68 l 418 -68 l 418 -177 l 307 -177 m 333 -153 l 390 -153 l 390 -92 l 333 -92 l 333 -153 z "},"Ḳ":{"ha":597,"x_min":84,"x_max":578,"o":"m 189 33 l 189 488 l 117 488 l 117 33 l 189 33 m 578 0 l 541 0 l 300 488 l 221 488 l 221 0 l 84 0 l 85 1008 l 118 1008 l 117 520 l 195 520 l 433 1008 l 574 1008 l 328 504 l 578 0 m 300 520 l 522 975 l 453 975 l 231 520 l 300 520 m 276 -177 l 276 -68 l 387 -68 l 387 -177 l 276 -177 m 302 -153 l 359 -153 l 359 -92 l 302 -92 l 302 -153 z "},"ḳ":{"ha":600,"x_min":87,"x_max":581,"o":"m 191 520 l 191 975 l 119 975 l 120 520 l 191 520 m 121 0 l 88 0 l 87 1008 l 224 1008 l 224 520 l 302 520 l 543 1008 l 581 1008 l 331 504 l 576 1 l 435 1 l 197 488 l 120 488 l 121 0 m 524 33 l 302 488 l 234 488 l 456 33 l 524 33 m 279 -177 l 279 -68 l 389 -68 l 389 -177 l 279 -177 m 304 -153 l 361 -153 l 361 -92 l 304 -92 l 304 -153 z "},"Ḷ":{"ha":391,"x_min":84,"x_max":422,"o":"m 189 33 l 189 488 l 117 488 l 117 33 l 189 33 m 422 0 l 84 0 l 86 1008 l 119 1008 l 118 520 l 222 520 l 222 33 l 422 33 l 422 0 m 197 -177 l 197 -68 l 308 -68 l 308 -177 l 197 -177 m 223 -153 l 280 -153 l 280 -92 l 223 -92 l 223 -153 z "},"ḷ":{"ha":410,"x_min":87,"x_max":451,"o":"m 191 520 l 191 975 l 119 975 l 120 520 l 191 520 m 451 0 l 88 0 l 87 1008 l 224 1008 l 224 487 l 120 488 l 121 33 l 451 33 l 451 0 m 214 -177 l 214 -68 l 325 -68 l 325 -177 l 214 -177 m 240 -153 l 297 -153 l 297 -92 l 240 -92 l 240 -153 z "},"Ḹ":{"ha":407,"x_min":84,"x_max":439,"o":"m 205 33 l 205 488 l 134 488 l 134 33 l 205 33 m 439 0 l 101 0 l 103 1008 l 136 1008 l 135 520 l 239 520 l 239 33 l 439 33 l 439 0 m 214 -177 l 214 -68 l 325 -68 l 325 -177 l 214 -177 m 240 -153 l 297 -153 l 297 -92 l 240 -92 l 240 -153 m 387 1077 l 84 1077 l 84 1107 l 387 1107 l 387 1077 z "},"ḹ":{"ha":423,"x_min":87,"x_max":464,"o":"m 204 520 l 204 975 l 132 975 l 133 520 l 204 520 m 464 0 l 101 0 l 100 1008 l 237 1008 l 237 487 l 133 488 l 134 33 l 464 33 l 464 0 m 227 -177 l 227 -68 l 338 -68 l 338 -177 l 227 -177 m 253 -153 l 310 -153 l 310 -92 l 253 -92 l 253 -153 m 390 1077 l 87 1077 l 87 1107 l 390 1107 l 390 1077 z "},"Ḻ":{"ha":391,"x_min":84,"x_max":422,"o":"m 189 33 l 189 488 l 117 488 l 117 33 l 189 33 m 422 0 l 84 0 l 86 1008 l 119 1008 l 118 520 l 222 520 l 222 33 l 422 33 l 422 0 m 405 -97 l 102 -97 l 102 -68 l 405 -68 l 405 -97 z "},"ḻ":{"ha":410,"x_min":87,"x_max":451,"o":"m 191 520 l 191 975 l 119 975 l 120 520 l 191 520 m 451 0 l 88 0 l 87 1008 l 224 1008 l 224 487 l 120 488 l 121 33 l 451 33 l 451 0 m 422 -97 l 119 -97 l 119 -68 l 422 -68 l 422 -97 z "},"Ṁ":{"ha":1006,"x_min":84,"x_max":893,"o":"m 860 33 l 860 975 l 788 975 l 788 33 l 860 33 m 893 1 l 755 1 l 755 933 l 503 496 l 474 496 l 221 933 l 221 1 l 84 1 l 84 1008 l 218 1008 l 488 536 l 757 1008 l 893 1008 l 893 1 m 189 33 l 189 975 l 117 975 l 117 33 l 189 33 m 433 1077 l 433 1187 l 544 1187 l 544 1077 l 433 1077 m 458 1102 l 515 1102 l 515 1162 l 458 1162 l 458 1102 z "},"ṁ":{"ha":1004,"x_min":87,"x_max":895,"o":"m 863 33 l 863 975 l 791 975 l 791 33 l 863 33 m 895 1 l 758 1 l 758 933 l 505 496 l 477 496 l 224 933 l 224 1 l 87 1 l 87 1008 l 220 1008 l 491 536 l 760 1008 l 895 1008 l 895 1 m 191 33 l 191 975 l 119 975 l 119 33 l 191 33 m 436 1077 l 436 1187 l 547 1187 l 547 1077 l 436 1077 m 461 1102 l 518 1102 l 518 1162 l 461 1162 l 461 1102 z "},"Ṃ":{"ha":1006,"x_min":84,"x_max":893,"o":"m 860 33 l 860 975 l 788 975 l 788 33 l 860 33 m 893 1 l 755 1 l 755 933 l 503 496 l 474 496 l 221 933 l 221 1 l 84 1 l 84 1008 l 218 1008 l 488 536 l 757 1008 l 893 1008 l 893 1 m 189 33 l 189 975 l 117 975 l 117 33 l 189 33 m 433 -177 l 433 -68 l 543 -68 l 543 -177 l 433 -177 m 458 -153 l 515 -153 l 515 -92 l 458 -92 l 458 -153 z "},"ṃ":{"ha":1004,"x_min":87,"x_max":895,"o":"m 863 33 l 863 975 l 791 975 l 791 33 l 863 33 m 895 1 l 758 1 l 758 933 l 505 496 l 477 496 l 224 933 l 224 1 l 87 1 l 87 1008 l 220 1008 l 491 536 l 760 1008 l 895 1008 l 895 1 m 191 33 l 191 975 l 119 975 l 119 33 l 191 33 m 435 -177 l 435 -68 l 546 -68 l 546 -177 l 435 -177 m 461 -153 l 518 -153 l 518 -92 l 461 -92 l 461 -153 z "},"Ṅ":{"ha":829,"x_min":84,"x_max":715,"o":"m 189 33 l 189 975 l 117 975 l 117 33 l 189 33 m 683 33 l 683 975 l 611 975 l 611 33 l 683 33 m 715 1 l 578 1 l 222 915 l 222 1 l 84 1 l 84 1008 l 222 1008 l 578 94 l 578 1008 l 715 1008 l 715 1 m 345 1077 l 345 1187 l 455 1187 l 455 1077 l 345 1077 m 370 1102 l 427 1102 l 427 1162 l 370 1162 l 370 1102 z "},"ṅ":{"ha":827,"x_min":87,"x_max":718,"o":"m 191 33 l 191 975 l 119 975 l 119 33 l 191 33 m 685 33 l 685 975 l 614 975 l 614 33 l 685 33 m 718 1 l 581 1 l 224 915 l 224 1 l 87 1 l 87 1008 l 224 1008 l 581 94 l 581 1008 l 718 1008 l 718 1 m 347 1077 l 347 1187 l 458 1187 l 458 1077 l 347 1077 m 372 1102 l 429 1102 l 429 1162 l 372 1162 l 372 1102 z "},"Ṇ":{"ha":829,"x_min":84,"x_max":715,"o":"m 189 33 l 189 975 l 117 975 l 117 33 l 189 33 m 683 33 l 683 975 l 611 975 l 611 33 l 683 33 m 715 1 l 578 1 l 222 915 l 222 1 l 84 1 l 84 1008 l 222 1008 l 578 94 l 578 1008 l 715 1008 l 715 1 m 344 -177 l 344 -68 l 454 -68 l 454 -177 l 344 -177 m 370 -153 l 427 -153 l 427 -92 l 370 -92 l 370 -153 z "},"ṇ":{"ha":827,"x_min":87,"x_max":718,"o":"m 191 33 l 191 975 l 119 975 l 119 33 l 191 33 m 685 33 l 685 975 l 614 975 l 614 33 l 685 33 m 718 1 l 581 1 l 224 915 l 224 1 l 87 1 l 87 1008 l 224 1008 l 581 94 l 581 1008 l 718 1008 l 718 1 m 347 -177 l 347 -68 l 457 -68 l 457 -177 l 347 -177 m 372 -153 l 429 -153 l 429 -92 l 372 -92 l 372 -153 z "},"Ṉ":{"ha":829,"x_min":84,"x_max":715,"o":"m 189 33 l 189 975 l 117 975 l 117 33 l 189 33 m 683 33 l 683 975 l 611 975 l 611 33 l 683 33 m 715 1 l 578 1 l 222 915 l 222 1 l 84 1 l 84 1008 l 222 1008 l 578 94 l 578 1008 l 715 1008 l 715 1 m 551 -97 l 248 -97 l 248 -68 l 551 -68 l 551 -97 z "},"ṉ":{"ha":827,"x_min":87,"x_max":718,"o":"m 191 33 l 191 975 l 119 975 l 119 33 l 191 33 m 685 33 l 685 975 l 614 975 l 614 33 l 685 33 m 718 1 l 581 1 l 224 915 l 224 1 l 87 1 l 87 1008 l 224 1008 l 581 94 l 581 1008 l 718 1008 l 718 1 m 554 -97 l 251 -97 l 251 -68 l 554 -68 l 554 -97 z "},"Ṙ":{"ha":627,"x_min":84,"x_max":600,"o":"m 538 1 l 502 1 l 267 488 l 221 485 l 221 1 l 84 1 l 84 1008 l 221 1005 q 572 857 490 999 q 600 751 600 808 q 570 648 600 698 q 483 559 541 597 q 300 493 413 511 l 538 1 m 221 517 q 541 663 464 532 q 567 751 567 706 q 543 841 567 799 q 221 975 470 966 l 221 517 m 189 33 l 189 975 l 117 975 l 117 33 l 189 33 m 283 1077 l 283 1187 l 394 1187 l 394 1077 l 283 1077 m 309 1102 l 366 1102 l 366 1162 l 309 1162 l 309 1102 z "},"ṙ":{"ha":628,"x_min":87,"x_max":603,"o":"m 541 1 l 505 1 l 269 488 q 224 485 248 486 l 224 1 l 87 1 l 87 1008 l 224 1008 q 574 857 493 999 q 603 751 603 808 q 573 648 603 698 q 486 559 544 597 q 303 493 416 511 l 541 1 m 224 517 q 468 586 382 527 q 544 663 519 620 q 570 751 570 706 q 546 841 570 799 q 224 975 473 966 l 224 517 m 191 33 l 191 975 l 119 975 l 119 33 l 191 33 m 290 1077 l 290 1187 l 400 1187 l 400 1077 l 290 1077 m 315 1102 l 372 1102 l 372 1162 l 315 1162 l 315 1102 z "},"Ṛ":{"ha":627,"x_min":84,"x_max":600,"o":"m 538 1 l 502 1 l 267 488 l 221 485 l 221 1 l 84 1 l 84 1008 l 221 1005 q 572 857 490 999 q 600 751 600 808 q 570 648 600 698 q 483 559 541 597 q 300 493 413 511 l 538 1 m 221 517 q 541 663 464 532 q 567 751 567 706 q 543 841 567 799 q 221 975 470 966 l 221 517 m 189 33 l 189 975 l 117 975 l 117 33 l 189 33 m 286 -177 l 286 -68 l 397 -68 l 397 -177 l 286 -177 m 312 -153 l 369 -153 l 369 -92 l 312 -92 l 312 -153 z "},"ṛ":{"ha":628,"x_min":87,"x_max":603,"o":"m 541 1 l 505 1 l 269 488 q 224 485 248 486 l 224 1 l 87 1 l 87 1008 l 224 1008 q 574 857 493 999 q 603 751 603 808 q 573 648 603 698 q 486 559 544 597 q 303 493 416 511 l 541 1 m 224 517 q 468 586 382 527 q 544 663 519 620 q 570 751 570 706 q 546 841 570 799 q 224 975 473 966 l 224 517 m 191 33 l 191 975 l 119 975 l 119 33 l 191 33 m 256 -177 l 256 -68 l 366 -68 l 366 -177 l 256 -177 m 281 -153 l 338 -153 l 338 -92 l 281 -92 l 281 -153 z "},"Ṝ":{"ha":627,"x_min":84,"x_max":600,"o":"m 538 1 l 502 1 l 267 488 l 221 485 l 221 1 l 84 1 l 84 1008 l 221 1005 q 572 857 490 999 q 600 751 600 808 q 570 648 600 698 q 483 559 541 597 q 300 493 413 511 l 538 1 m 221 517 q 541 663 464 532 q 567 751 567 706 q 543 841 567 799 q 221 975 470 966 l 221 517 m 189 33 l 189 975 l 117 975 l 117 33 l 189 33 m 286 -177 l 286 -68 l 397 -68 l 397 -177 l 286 -177 m 312 -153 l 369 -153 l 369 -92 l 312 -92 l 312 -153 m 490 1077 l 187 1077 l 187 1107 l 490 1107 l 490 1077 z "},"ṝ":{"ha":628,"x_min":87,"x_max":603,"o":"m 541 1 l 505 1 l 269 488 q 224 485 248 486 l 224 1 l 87 1 l 87 1008 l 224 1008 q 574 857 493 999 q 603 751 603 808 q 573 648 603 698 q 486 559 544 597 q 303 493 416 511 l 541 1 m 224 517 q 468 586 382 527 q 544 663 519 620 q 570 751 570 706 q 546 841 570 799 q 224 975 473 966 l 224 517 m 191 33 l 191 975 l 119 975 l 119 33 l 191 33 m 256 -177 l 256 -68 l 366 -68 l 366 -177 l 256 -177 m 281 -153 l 338 -153 l 338 -92 l 281 -92 l 281 -153 m 496 1077 l 193 1077 l 193 1107 l 496 1107 l 496 1077 z "},"Ṟ":{"ha":627,"x_min":84,"x_max":600,"o":"m 538 1 l 502 1 l 267 488 l 221 485 l 221 1 l 84 1 l 84 1008 l 221 1005 q 572 857 490 999 q 600 751 600 808 q 570 648 600 698 q 483 559 541 597 q 300 493 413 511 l 538 1 m 221 517 q 541 663 464 532 q 567 751 567 706 q 543 841 567 799 q 221 975 470 966 l 221 517 m 189 33 l 189 975 l 117 975 l 117 33 l 189 33 m 494 -97 l 191 -97 l 191 -68 l 494 -68 l 494 -97 z "},"ṟ":{"ha":628,"x_min":87,"x_max":603,"o":"m 541 1 l 505 1 l 269 488 q 224 485 248 486 l 224 1 l 87 1 l 87 1008 l 224 1008 q 574 857 493 999 q 603 751 603 808 q 573 648 603 698 q 486 559 544 597 q 303 493 416 511 l 541 1 m 224 517 q 468 586 382 527 q 544 663 519 620 q 570 751 570 706 q 546 841 570 799 q 224 975 473 966 l 224 517 m 191 33 l 191 975 l 119 975 l 119 33 l 191 33 m 463 -97 l 160 -97 l 160 -68 l 463 -68 l 463 -97 z "},"Ṣ":{"ha":671,"x_min":-12,"x_max":628,"o":"m 317 0 q 219 12 263 0 q -1 168 106 41 l -12 180 l 87 273 q 176 191 156 207 q 314 134 241 134 q 433 172 388 134 q 474 270 474 208 q 379 406 474 342 q 288 461 337 433 q 173 533 228 494 q 80 623 117 571 q 40 762 40 680 q 114 929 40 857 q 318 1008 194 1008 q 469 977 407 1008 q 589 883 531 946 l 628 841 l 604 819 l 565 860 q 455 947 511 920 q 318 975 399 975 q 136 906 207 975 q 73 758 73 844 q 196 557 73 640 q 351 462 241 526 l 407 548 l 420 541 q 612 265 612 442 q 532 72 612 144 q 317 0 452 0 m 317 33 q 510 96 440 33 q 579 265 579 159 q 418 505 579 416 l 379 445 q 481 355 450 400 q 507 270 507 316 q 453 147 507 193 q 314 102 400 102 q 157 162 230 102 q 87 228 134 182 l 34 178 q 155 74 92 111 q 317 33 223 33 m 253 -177 l 253 -68 l 363 -68 l 363 -177 l 253 -177 m 279 -153 l 336 -153 l 336 -92 l 279 -92 l 279 -153 z "},"ṣ":{"ha":671,"x_min":-9,"x_max":631,"o":"m 320 0 q 222 12 266 0 q 1 168 109 41 l -9 180 l 90 273 q 178 191 159 207 q 317 134 243 134 q 435 172 391 134 q 477 270 477 208 q 382 406 477 342 q 291 461 340 433 q 185 526 236 491 q 81 626 119 571 q 43 762 43 681 q 117 929 43 857 q 321 1008 197 1008 q 472 977 410 1008 q 592 883 534 946 l 631 841 l 607 819 l 568 860 q 458 947 513 920 q 321 975 402 975 q 139 906 210 975 q 76 758 76 844 q 199 557 76 640 q 354 462 243 526 l 410 548 l 423 541 q 614 265 614 442 q 535 72 614 144 q 320 0 455 0 m 320 33 q 512 96 443 33 q 582 265 582 159 q 421 505 582 416 l 382 445 q 481 359 450 402 q 509 270 509 318 q 456 147 509 193 q 317 102 403 102 q 161 162 233 102 q 90 228 136 182 l 37 178 q 157 74 95 111 q 320 33 226 33 m 256 -177 l 256 -68 l 366 -68 l 366 -177 l 256 -177 m 281 -153 l 338 -153 l 338 -92 l 281 -92 l 281 -153 z "},"Ṭ":{"ha":526,"x_min":20,"x_max":521,"o":"m 343 1 l 205 1 l 205 871 l 20 871 l 20 1008 l 521 1008 l 521 975 l 343 975 l 343 1 m 310 33 l 310 975 l 54 975 l 54 905 l 239 905 l 239 33 l 310 33 m 215 -177 l 215 -68 l 326 -68 l 326 -177 l 215 -177 m 241 -153 l 298 -153 l 298 -92 l 241 -92 l 241 -153 z "},"ṭ":{"ha":537,"x_min":-4,"x_max":503,"o":"m -4 1008 l 503 1008 l 503 871 l 317 871 l 317 1 l 180 1 l 180 975 l -4 975 l -4 1008 m 470 975 l 213 975 l 213 33 l 285 33 l 285 905 l 470 905 l 470 975 m 193 -177 l 193 -68 l 304 -68 l 304 -177 l 193 -177 m 219 -153 l 276 -153 l 276 -92 l 219 -92 l 219 -153 z "},"Ẁ":{"ha":1166,"x_min":20,"x_max":1141,"o":"m 878 33 l 1099 977 l 1020 977 l 797 33 l 878 33 m 758 0 l 574 646 l 420 1 l 275 1 l 20 1009 l 168 1009 l 404 73 l 628 1009 l 662 1009 l 590 711 l 772 70 l 994 1009 l 1141 1009 l 904 1 l 758 0 m 380 33 l 142 977 l 62 977 l 300 33 l 380 33 m 637 1099 l 617 1077 l 467 1219 l 487 1241 l 637 1099 z "},"ẁ":{"ha":1179,"x_min":12,"x_max":1132,"o":"m 869 33 l 1090 977 l 1011 977 l 789 33 l 869 33 m 749 0 l 566 646 l 412 1 l 266 1 l 12 1009 l 159 1009 l 395 73 l 620 1009 l 653 1009 l 582 711 l 764 70 l 985 1009 l 1132 1009 l 895 1 l 749 0 m 372 33 l 134 977 l 54 977 l 292 33 l 372 33 m 629 1099 l 609 1077 l 458 1219 l 479 1241 l 629 1099 z "},"Ẃ":{"ha":1166,"x_min":20,"x_max":1141,"o":"m 878 33 l 1099 977 l 1020 977 l 797 33 l 878 33 m 758 0 l 574 646 l 420 1 l 275 1 l 20 1009 l 168 1009 l 404 73 l 628 1009 l 662 1009 l 590 711 l 772 70 l 994 1009 l 1141 1009 l 904 1 l 758 0 m 380 33 l 142 977 l 62 977 l 300 33 l 380 33 m 694 1219 l 544 1077 l 524 1099 l 674 1241 l 694 1219 z "},"ẃ":{"ha":1179,"x_min":12,"x_max":1132,"o":"m 869 33 l 1090 977 l 1011 977 l 789 33 l 869 33 m 749 0 l 566 646 l 412 1 l 266 1 l 12 1009 l 159 1009 l 395 73 l 620 1009 l 653 1009 l 582 711 l 764 70 l 985 1009 l 1132 1009 l 895 1 l 749 0 m 372 33 l 134 977 l 54 977 l 292 33 l 372 33 m 686 1219 l 536 1077 l 515 1099 l 666 1241 l 686 1219 z "},"Ẅ":{"ha":1166,"x_min":20,"x_max":1141,"o":"m 878 33 l 1099 977 l 1020 977 l 797 33 l 878 33 m 758 0 l 574 646 l 420 1 l 275 1 l 20 1009 l 168 1009 l 404 73 l 628 1009 l 662 1009 l 590 711 l 772 70 l 994 1009 l 1141 1009 l 904 1 l 758 0 m 380 33 l 142 977 l 62 977 l 300 33 l 380 33 m 437 1077 l 437 1187 l 548 1187 l 548 1077 l 437 1077 m 463 1102 l 519 1102 l 519 1162 l 463 1162 l 463 1102 m 614 1077 l 614 1187 l 724 1187 l 724 1077 l 614 1077 m 639 1102 l 696 1102 l 696 1162 l 639 1162 l 639 1102 z "},"ẅ":{"ha":1179,"x_min":12,"x_max":1132,"o":"m 869 33 l 1090 977 l 1011 977 l 789 33 l 869 33 m 749 0 l 566 646 l 412 1 l 266 1 l 12 1009 l 159 1009 l 395 73 l 620 1009 l 653 1009 l 582 711 l 764 70 l 985 1009 l 1132 1009 l 895 1 l 749 0 m 372 33 l 134 977 l 54 977 l 292 33 l 372 33 m 429 1077 l 429 1187 l 540 1187 l 540 1077 l 429 1077 m 454 1102 l 511 1102 l 511 1162 l 454 1162 l 454 1102 m 606 1077 l 606 1187 l 716 1187 l 716 1077 l 606 1077 m 631 1102 l 688 1102 l 688 1162 l 631 1162 l 631 1102 z "},"Ẉ":{"ha":1166,"x_min":20,"x_max":1141,"o":"m 878 33 l 1099 977 l 1020 977 l 797 33 l 878 33 m 758 0 l 574 646 l 420 1 l 275 1 l 20 1009 l 168 1009 l 404 73 l 628 1009 l 662 1009 l 590 711 l 772 70 l 994 1009 l 1141 1009 l 904 1 l 758 0 m 380 33 l 142 977 l 62 977 l 300 33 l 380 33 m 525 -177 l 525 -68 l 635 -68 l 635 -177 l 525 -177 m 551 -153 l 608 -153 l 608 -92 l 551 -92 l 551 -153 z "},"ẉ":{"ha":1179,"x_min":12,"x_max":1132,"o":"m 869 33 l 1090 977 l 1011 977 l 789 33 l 869 33 m 749 0 l 566 646 l 412 1 l 266 1 l 12 1009 l 159 1009 l 395 73 l 620 1009 l 653 1009 l 582 711 l 764 70 l 985 1009 l 1132 1009 l 895 1 l 749 0 m 372 33 l 134 977 l 54 977 l 292 33 l 372 33 m 517 -177 l 517 -68 l 627 -68 l 627 -177 l 517 -177 m 543 -153 l 600 -153 l 600 -92 l 543 -92 l 543 -153 z "},"Ẓ":{"ha":526,"x_min":2,"x_max":507,"o":"m 129 33 l 461 977 l 382 977 l 48 33 l 129 33 m 465 1 l 2 1 l 348 977 l 29 977 l 29 1009 l 507 1009 l 163 33 l 465 33 l 465 1 m 199 -177 l 199 -68 l 309 -68 l 309 -177 l 199 -177 m 224 -153 l 281 -153 l 281 -92 l 224 -92 l 224 -153 z "},"ẓ":{"ha":528,"x_min":4,"x_max":509,"o":"m 385 977 l 50 33 l 131 33 l 463 977 l 385 977 m 350 977 l 31 977 l 31 1009 l 509 1009 l 165 33 l 467 33 l 467 1 l 4 1 l 350 977 m 201 -177 l 201 -68 l 311 -68 l 311 -177 l 201 -177 m 227 -153 l 283 -153 l 283 -92 l 227 -92 l 227 -153 z "},"Ẽ":{"ha":519,"x_min":84,"x_max":496,"o":"m 189 33 l 189 488 l 117 488 l 117 33 l 189 33 m 496 0 l 84 0 l 85 1008 l 496 1008 l 496 975 l 118 975 l 117 520 l 447 520 l 447 488 l 221 488 l 221 33 l 496 33 l 496 0 m 396 1077 q 344 1088 372 1077 q 286 1114 315 1100 q 186 1150 214 1150 q 163 1139 172 1150 q 153 1088 153 1126 l 124 1088 q 186 1179 124 1179 q 239 1168 210 1179 q 297 1142 268 1156 q 396 1107 369 1107 q 427 1168 427 1107 l 456 1168 q 441 1101 456 1122 q 396 1077 424 1077 z "},"ẽ":{"ha":521,"x_min":87,"x_max":499,"o":"m 191 521 l 191 975 l 119 975 l 120 521 l 191 521 m 499 0 l 88 0 l 87 1008 l 499 1008 l 499 975 l 224 975 l 224 521 l 450 521 l 450 488 l 120 488 l 121 33 l 499 33 l 499 0 m 399 1077 q 347 1088 375 1077 q 289 1114 318 1100 q 189 1150 216 1150 q 166 1139 174 1150 q 156 1088 156 1126 l 127 1088 q 189 1179 127 1179 q 242 1168 213 1179 q 300 1142 271 1156 q 399 1107 372 1107 q 429 1168 429 1107 l 459 1168 q 444 1101 459 1122 q 399 1077 427 1077 z "},"Ỳ":{"ha":625,"x_min":-7,"x_max":627,"o":"m 361 488 l 590 1009 l 627 1009 l 374 444 l 374 1 l 237 1 l 237 445 l -7 1009 l 142 1009 l 361 488 m 342 33 l 342 453 l 123 977 l 47 977 l 269 448 l 269 33 l 342 33 m 366 1099 l 346 1077 l 195 1219 l 216 1241 l 366 1099 z "},"ỳ":{"ha":625,"x_min":-6,"x_max":628,"o":"m 362 488 l 591 1009 l 628 1009 l 376 444 l 376 1 l 238 1 l 238 445 l -6 1009 l 144 1009 l 362 488 m 343 33 l 343 453 l 124 977 l 48 977 l 271 448 l 271 33 l 343 33 m 368 1099 l 347 1077 l 197 1219 l 217 1241 l 368 1099 z "},"Ỵ":{"ha":625,"x_min":-7,"x_max":627,"o":"m 361 488 l 590 1009 l 627 1009 l 374 444 l 374 1 l 237 1 l 237 445 l -7 1009 l 142 1009 l 361 488 m 342 33 l 342 453 l 123 977 l 47 977 l 269 448 l 269 33 l 342 33 m 254 -177 l 254 -68 l 364 -68 l 364 -177 l 254 -177 m 279 -153 l 336 -153 l 336 -92 l 279 -92 l 279 -153 z "},"ỵ":{"ha":625,"x_min":-6,"x_max":628,"o":"m 362 488 l 591 1009 l 628 1009 l 376 444 l 376 1 l 238 1 l 238 445 l -6 1009 l 144 1009 l 362 488 m 343 33 l 343 453 l 124 977 l 48 977 l 271 448 l 271 33 l 343 33 m 255 -177 l 255 -68 l 366 -68 l 366 -177 l 255 -177 m 281 -153 l 338 -153 l 338 -92 l 281 -92 l 281 -153 z "},"⅓":{"ha":959,"x_min":68,"x_max":891,"o":"m 68 1012 l 227 1012 l 227 387 l 134 387 l 134 982 l 68 982 l 68 1012 m 197 982 l 163 982 l 163 416 l 197 416 l 197 982 m 127 1 l 91 1 l 608 1008 l 644 1008 l 127 1 m 705 -11 q 593 17 637 -11 q 507 94 549 44 l 498 104 l 566 168 q 621 115 608 126 q 703 81 661 81 q 773 103 743 81 q 796 151 796 119 q 763 219 796 191 q 672 281 730 248 l 695 293 q 797 358 748 319 q 846 460 846 397 q 810 545 846 508 q 701 584 772 584 q 648 578 669 584 q 532 491 589 560 l 509 510 q 589 583 545 553 q 700 614 637 614 q 830 567 783 614 q 877 457 877 520 q 762 296 876 364 l 801 292 q 863 241 829 289 q 891 156 891 203 q 841 34 891 79 q 705 -11 790 -11 m 705 19 q 821 56 779 19 q 862 156 862 92 q 797 268 862 222 l 751 267 q 825 153 825 217 q 791 80 825 105 q 703 51 752 51 q 565 127 635 51 l 539 102 q 608 42 573 64 q 705 19 646 19 z "},"⅔":{"ha":1187,"x_min":68,"x_max":1120,"o":"m 430 387 l 111 387 q 167 579 115 503 q 271 704 216 650 q 335 774 309 741 q 361 842 361 808 q 337 898 361 880 q 267 920 309 920 q 208 899 235 920 q 135 833 187 884 l 68 897 l 77 907 q 161 983 116 954 q 270 1012 205 1012 q 404 966 351 1012 q 455 845 455 922 q 353 658 455 736 l 341 649 l 304 695 l 292 684 q 196 571 241 635 q 142 416 151 507 l 430 416 l 430 387 m 346 690 q 425 845 425 756 q 385 944 425 908 q 270 982 340 982 q 176 957 214 982 q 109 899 140 935 l 135 874 q 203 932 176 915 q 267 949 235 949 q 355 921 320 949 q 391 842 391 892 q 372 778 391 808 q 324 717 353 747 l 346 690 m 356 1 l 319 1 l 837 1008 l 873 1008 l 356 1 m 934 -11 q 822 17 866 -11 q 736 94 777 44 l 726 104 l 794 168 q 849 115 837 126 q 932 81 890 81 q 1002 103 971 81 q 1025 151 1025 119 q 992 219 1025 191 q 901 281 959 248 l 924 293 q 1026 358 977 319 q 1075 460 1075 397 q 1039 545 1075 508 q 929 584 1000 584 q 876 578 898 584 q 760 491 817 560 l 738 510 q 817 583 774 553 q 928 614 865 614 q 1059 567 1012 614 q 1105 457 1105 520 q 990 296 1105 364 l 1029 292 q 1092 241 1057 289 q 1120 156 1120 203 q 1069 34 1120 79 q 934 -11 1019 -11 m 934 19 q 1049 56 1008 19 q 1090 156 1090 92 q 1025 268 1090 222 l 979 267 q 1054 153 1054 217 q 1020 80 1054 105 q 932 51 981 51 q 793 127 863 51 l 768 102 q 836 42 802 64 q 934 19 874 19 z "},"≡":{"ha":579,"x_min":34,"x_max":545,"o":"m 34 707 l 34 740 l 545 740 l 545 707 l 34 707 m 34 488 l 34 521 l 545 521 l 545 488 l 34 488 m 34 274 l 34 307 l 545 307 l 545 274 l 34 274 z "}}}
